<?xml version="1.0" encoding="utf-8" standalone="no"?>
<!--
  ~ Copyright (C) 2024 Intel Corporation
  ~
  ~ This software and the related documents are Intel copyrighted materials,
  ~ and your use of them is governed by the express license under which they
  ~ were provided to you ("License"). Unless the License provides otherwise,
  ~ you may not use, modify, copy, publish, distribute, disclose or transmit
  ~ this software or the related documents without Intel's prior written
  ~ permission.
  ~
  ~ This software and the related documents are provided as is, with no
  ~ express or implied warranties, other than those that are expressly stated
  ~ in the License.
-->

<!DOCTYPE svg PUBLIC "-//W3C//DTD SVG 1.1//EN"
  "http://www.w3.org/Graphics/SVG/1.1/DTD/svg11.dtd">
<!-- Created with matplotlib (https://matplotlib.org/) -->
<svg height="420.10625pt" version="1.1" viewBox="0 0 1129.326132 420.10625" width="1129.326132pt" xmlns="http://www.w3.org/2000/svg" xmlns:xlink="http://www.w3.org/1999/xlink">
 <metadata>
  <rdf:RDF xmlns:cc="http://creativecommons.org/ns#" xmlns:dc="http://purl.org/dc/elements/1.1/" xmlns:rdf="http://www.w3.org/1999/02/22-rdf-syntax-ns#">
   <cc:Work>
    <dc:type rdf:resource="http://purl.org/dc/dcmitype/StillImage"/>
    <dc:date>2024-04-03T12:24:35.916215</dc:date>
    <dc:format>image/svg+xml</dc:format>
    <dc:creator>
     <cc:Agent>
      <dc:title>Matplotlib v3.3.2, https://matplotlib.org/</dc:title>
     </cc:Agent>
    </dc:creator>
   </cc:Work>
  </rdf:RDF>
 </metadata>
 <defs>
  <style type="text/css">*{stroke-linecap:butt;stroke-linejoin:round;}</style>
 </defs>
 <g id="figure_1">
  <g id="patch_1">
   <path d="M -0 420.10625 
L 1129.326132 420.10625 
L 1129.326132 0 
L -0 0 
z
" style="fill:#ffffff;"/>
  </g>
  <g id="axes_1">
   <g id="patch_2">
    <path d="M 120.315313 297.20625 
L 576.860767 297.20625 
L 576.860767 25.40625 
L 120.315313 25.40625 
z
" style="fill:#ffffff;"/>
   </g>
   <g id="matplotlib.axis_1">
    <g id="xtick_1">
     <g id="line2d_1">
      <path clip-path="url(#pc60fe6a41c)" d="M 126.568212 297.20625 
L 126.568212 25.40625 
" style="fill:none;stroke:#cccccc;stroke-linecap:round;"/>
     </g>
     <g id="text_1">
      <!-- 0.80 -->
      <g style="fill:#262626;" transform="translate(101.268993 325.316563)scale(0.26 -0.26)">
       <defs>
        <path d="M 4.15625 35.296875 
Q 4.15625 48 6.765625 55.734375 
Q 9.375 63.484375 14.515625 67.671875 
Q 19.671875 71.875 27.484375 71.875 
Q 33.25 71.875 37.59375 69.546875 
Q 41.9375 67.234375 44.765625 62.859375 
Q 47.609375 58.5 49.21875 52.21875 
Q 50.828125 45.953125 50.828125 35.296875 
Q 50.828125 22.703125 48.234375 14.96875 
Q 45.65625 7.234375 40.5 3 
Q 35.359375 -1.21875 27.484375 -1.21875 
Q 17.140625 -1.21875 11.234375 6.203125 
Q 4.15625 15.140625 4.15625 35.296875 
z
M 13.1875 35.296875 
Q 13.1875 17.671875 17.3125 11.828125 
Q 21.4375 6 27.484375 6 
Q 33.546875 6 37.671875 11.859375 
Q 41.796875 17.71875 41.796875 35.296875 
Q 41.796875 52.984375 37.671875 58.78125 
Q 33.546875 64.59375 27.390625 64.59375 
Q 21.34375 64.59375 17.71875 59.46875 
Q 13.1875 52.9375 13.1875 35.296875 
z
" id="ArialMT-48"/>
        <path d="M 9.078125 0 
L 9.078125 10.015625 
L 19.09375 10.015625 
L 19.09375 0 
z
" id="ArialMT-46"/>
        <path d="M 17.671875 38.8125 
Q 12.203125 40.828125 9.5625 44.53125 
Q 6.9375 48.25 6.9375 53.421875 
Q 6.9375 61.234375 12.546875 66.546875 
Q 18.171875 71.875 27.484375 71.875 
Q 36.859375 71.875 42.578125 66.421875 
Q 48.296875 60.984375 48.296875 53.171875 
Q 48.296875 48.1875 45.671875 44.5 
Q 43.0625 40.828125 37.75 38.8125 
Q 44.34375 36.671875 47.78125 31.875 
Q 51.21875 27.09375 51.21875 20.453125 
Q 51.21875 11.28125 44.71875 5.03125 
Q 38.234375 -1.21875 27.640625 -1.21875 
Q 17.046875 -1.21875 10.546875 5.046875 
Q 4.046875 11.328125 4.046875 20.703125 
Q 4.046875 27.6875 7.59375 32.390625 
Q 11.140625 37.109375 17.671875 38.8125 
z
M 15.921875 53.71875 
Q 15.921875 48.640625 19.1875 45.40625 
Q 22.46875 42.1875 27.6875 42.1875 
Q 32.765625 42.1875 36.015625 45.375 
Q 39.265625 48.578125 39.265625 53.21875 
Q 39.265625 58.0625 35.90625 61.359375 
Q 32.5625 64.65625 27.59375 64.65625 
Q 22.5625 64.65625 19.234375 61.421875 
Q 15.921875 58.203125 15.921875 53.71875 
z
M 13.09375 20.65625 
Q 13.09375 16.890625 14.875 13.375 
Q 16.65625 9.859375 20.171875 7.921875 
Q 23.6875 6 27.734375 6 
Q 34.03125 6 38.125 10.046875 
Q 42.234375 14.109375 42.234375 20.359375 
Q 42.234375 26.703125 38.015625 30.859375 
Q 33.796875 35.015625 27.4375 35.015625 
Q 21.234375 35.015625 17.15625 30.90625 
Q 13.09375 26.8125 13.09375 20.65625 
z
" id="ArialMT-56"/>
       </defs>
       <use xlink:href="#ArialMT-48"/>
       <use x="55.615234" xlink:href="#ArialMT-46"/>
       <use x="83.398438" xlink:href="#ArialMT-56"/>
       <use x="139.013672" xlink:href="#ArialMT-48"/>
      </g>
     </g>
    </g>
    <g id="xtick_2">
     <g id="line2d_2">
      <path clip-path="url(#pc60fe6a41c)" d="M 233.969445 297.20625 
L 233.969445 25.40625 
" style="fill:none;stroke:#cccccc;stroke-linecap:round;"/>
     </g>
     <g id="text_2">
      <!-- 0.85 -->
      <g style="fill:#262626;" transform="translate(208.670226 325.316563)scale(0.26 -0.26)">
       <defs>
        <path d="M 4.15625 18.75 
L 13.375 19.53125 
Q 14.40625 12.796875 18.140625 9.390625 
Q 21.875 6 27.15625 6 
Q 33.5 6 37.890625 10.78125 
Q 42.28125 15.578125 42.28125 23.484375 
Q 42.28125 31 38.0625 35.34375 
Q 33.84375 39.703125 27 39.703125 
Q 22.75 39.703125 19.328125 37.765625 
Q 15.921875 35.84375 13.96875 32.765625 
L 5.71875 33.84375 
L 12.640625 70.609375 
L 48.25 70.609375 
L 48.25 62.203125 
L 19.671875 62.203125 
L 15.828125 42.96875 
Q 22.265625 47.46875 29.34375 47.46875 
Q 38.71875 47.46875 45.15625 40.96875 
Q 51.609375 34.46875 51.609375 24.265625 
Q 51.609375 14.546875 45.953125 7.46875 
Q 39.0625 -1.21875 27.15625 -1.21875 
Q 17.390625 -1.21875 11.203125 4.25 
Q 5.03125 9.71875 4.15625 18.75 
z
" id="ArialMT-53"/>
       </defs>
       <use xlink:href="#ArialMT-48"/>
       <use x="55.615234" xlink:href="#ArialMT-46"/>
       <use x="83.398438" xlink:href="#ArialMT-56"/>
       <use x="139.013672" xlink:href="#ArialMT-53"/>
      </g>
     </g>
    </g>
    <g id="xtick_3">
     <g id="line2d_3">
      <path clip-path="url(#pc60fe6a41c)" d="M 341.370677 297.20625 
L 341.370677 25.40625 
" style="fill:none;stroke:#cccccc;stroke-linecap:round;"/>
     </g>
     <g id="text_3">
      <!-- 0.90 -->
      <g style="fill:#262626;" transform="translate(316.071458 325.316563)scale(0.26 -0.26)">
       <defs>
        <path d="M 5.46875 16.546875 
L 13.921875 17.328125 
Q 14.984375 11.375 18.015625 8.6875 
Q 21.046875 6 25.78125 6 
Q 29.828125 6 32.875 7.859375 
Q 35.9375 9.71875 37.890625 12.8125 
Q 39.84375 15.921875 41.15625 21.1875 
Q 42.484375 26.46875 42.484375 31.9375 
Q 42.484375 32.515625 42.4375 33.6875 
Q 39.796875 29.5 35.234375 26.875 
Q 30.671875 24.265625 25.34375 24.265625 
Q 16.453125 24.265625 10.296875 30.703125 
Q 4.15625 37.15625 4.15625 47.703125 
Q 4.15625 58.59375 10.578125 65.234375 
Q 17 71.875 26.65625 71.875 
Q 33.640625 71.875 39.421875 68.109375 
Q 45.21875 64.359375 48.21875 57.390625 
Q 51.21875 50.4375 51.21875 37.25 
Q 51.21875 23.53125 48.234375 15.40625 
Q 45.265625 7.28125 39.375 3.03125 
Q 33.5 -1.21875 25.59375 -1.21875 
Q 17.1875 -1.21875 11.859375 3.4375 
Q 6.546875 8.109375 5.46875 16.546875 
z
M 41.453125 48.140625 
Q 41.453125 55.71875 37.421875 60.15625 
Q 33.40625 64.59375 27.734375 64.59375 
Q 21.875 64.59375 17.53125 59.8125 
Q 13.1875 55.03125 13.1875 47.40625 
Q 13.1875 40.578125 17.3125 36.296875 
Q 21.4375 32.03125 27.484375 32.03125 
Q 33.59375 32.03125 37.515625 36.296875 
Q 41.453125 40.578125 41.453125 48.140625 
z
" id="ArialMT-57"/>
       </defs>
       <use xlink:href="#ArialMT-48"/>
       <use x="55.615234" xlink:href="#ArialMT-46"/>
       <use x="83.398438" xlink:href="#ArialMT-57"/>
       <use x="139.013672" xlink:href="#ArialMT-48"/>
      </g>
     </g>
    </g>
    <g id="xtick_4">
     <g id="line2d_4">
      <path clip-path="url(#pc60fe6a41c)" d="M 448.771909 297.20625 
L 448.771909 25.40625 
" style="fill:none;stroke:#cccccc;stroke-linecap:round;"/>
     </g>
     <g id="text_4">
      <!-- 0.95 -->
      <g style="fill:#262626;" transform="translate(423.472691 325.316563)scale(0.26 -0.26)">
       <use xlink:href="#ArialMT-48"/>
       <use x="55.615234" xlink:href="#ArialMT-46"/>
       <use x="83.398438" xlink:href="#ArialMT-57"/>
       <use x="139.013672" xlink:href="#ArialMT-53"/>
      </g>
     </g>
    </g>
    <g id="xtick_5">
     <g id="line2d_5">
      <path clip-path="url(#pc60fe6a41c)" d="M 556.173142 297.20625 
L 556.173142 25.40625 
" style="fill:none;stroke:#cccccc;stroke-linecap:round;"/>
     </g>
     <g id="text_5">
      <!-- 1.00 -->
      <g style="fill:#262626;" transform="translate(530.873923 325.316563)scale(0.26 -0.26)">
       <defs>
        <path d="M 37.25 0 
L 28.46875 0 
L 28.46875 56 
Q 25.296875 52.984375 20.140625 49.953125 
Q 14.984375 46.921875 10.890625 45.40625 
L 10.890625 53.90625 
Q 18.265625 57.375 23.78125 62.296875 
Q 29.296875 67.234375 31.59375 71.875 
L 37.25 71.875 
z
" id="ArialMT-49"/>
       </defs>
       <use xlink:href="#ArialMT-49"/>
       <use x="55.615234" xlink:href="#ArialMT-46"/>
       <use x="83.398438" xlink:href="#ArialMT-48"/>
       <use x="139.013672" xlink:href="#ArialMT-48"/>
      </g>
     </g>
    </g>
    <g id="text_6">
     <!-- 10 recall@10 -->
     <g style="fill:#262626;" transform="translate(271.798665 353.439688)scale(0.26 -0.26)">
      <defs>
       <path id="ArialMT-32"/>
       <path d="M 6.5 0 
L 6.5 51.859375 
L 14.40625 51.859375 
L 14.40625 44 
Q 17.4375 49.515625 20 51.265625 
Q 22.5625 53.03125 25.640625 53.03125 
Q 30.078125 53.03125 34.671875 50.203125 
L 31.640625 42.046875 
Q 28.421875 43.953125 25.203125 43.953125 
Q 22.3125 43.953125 20.015625 42.21875 
Q 17.71875 40.484375 16.75 37.40625 
Q 15.28125 32.71875 15.28125 27.15625 
L 15.28125 0 
z
" id="ArialMT-114"/>
       <path d="M 42.09375 16.703125 
L 51.171875 15.578125 
Q 49.03125 7.625 43.21875 3.21875 
Q 37.40625 -1.171875 28.375 -1.171875 
Q 17 -1.171875 10.328125 5.828125 
Q 3.65625 12.84375 3.65625 25.484375 
Q 3.65625 38.578125 10.390625 45.796875 
Q 17.140625 53.03125 27.875 53.03125 
Q 38.28125 53.03125 44.875 45.953125 
Q 51.46875 38.875 51.46875 26.03125 
Q 51.46875 25.25 51.421875 23.6875 
L 12.75 23.6875 
Q 13.234375 15.140625 17.578125 10.59375 
Q 21.921875 6.0625 28.421875 6.0625 
Q 33.25 6.0625 36.671875 8.59375 
Q 40.09375 11.140625 42.09375 16.703125 
z
M 13.234375 30.90625 
L 42.1875 30.90625 
Q 41.609375 37.453125 38.875 40.71875 
Q 34.671875 45.796875 27.984375 45.796875 
Q 21.921875 45.796875 17.796875 41.75 
Q 13.671875 37.703125 13.234375 30.90625 
z
" id="ArialMT-101"/>
       <path d="M 40.4375 19 
L 49.078125 17.875 
Q 47.65625 8.9375 41.8125 3.875 
Q 35.984375 -1.171875 27.484375 -1.171875 
Q 16.84375 -1.171875 10.375 5.78125 
Q 3.90625 12.75 3.90625 25.734375 
Q 3.90625 34.125 6.6875 40.421875 
Q 9.46875 46.734375 15.15625 49.875 
Q 20.84375 53.03125 27.546875 53.03125 
Q 35.984375 53.03125 41.359375 48.75 
Q 46.734375 44.484375 48.25 36.625 
L 39.703125 35.296875 
Q 38.484375 40.53125 35.375 43.15625 
Q 32.28125 45.796875 27.875 45.796875 
Q 21.234375 45.796875 17.078125 41.03125 
Q 12.9375 36.28125 12.9375 25.984375 
Q 12.9375 15.53125 16.9375 10.796875 
Q 20.953125 6.0625 27.390625 6.0625 
Q 32.5625 6.0625 36.03125 9.234375 
Q 39.5 12.40625 40.4375 19 
z
" id="ArialMT-99"/>
       <path d="M 40.4375 6.390625 
Q 35.546875 2.25 31.03125 0.53125 
Q 26.515625 -1.171875 21.34375 -1.171875 
Q 12.796875 -1.171875 8.203125 3 
Q 3.609375 7.171875 3.609375 13.671875 
Q 3.609375 17.484375 5.34375 20.625 
Q 7.078125 23.78125 9.890625 25.6875 
Q 12.703125 27.59375 16.21875 28.5625 
Q 18.796875 29.25 24.03125 29.890625 
Q 34.671875 31.15625 39.703125 32.90625 
Q 39.75 34.71875 39.75 35.203125 
Q 39.75 40.578125 37.25 42.78125 
Q 33.890625 45.75 27.25 45.75 
Q 21.046875 45.75 18.09375 43.578125 
Q 15.140625 41.40625 13.71875 35.890625 
L 5.125 37.0625 
Q 6.296875 42.578125 8.984375 45.96875 
Q 11.671875 49.359375 16.75 51.1875 
Q 21.828125 53.03125 28.515625 53.03125 
Q 35.15625 53.03125 39.296875 51.46875 
Q 43.453125 49.90625 45.40625 47.53125 
Q 47.359375 45.171875 48.140625 41.546875 
Q 48.578125 39.3125 48.578125 33.453125 
L 48.578125 21.734375 
Q 48.578125 9.46875 49.140625 6.21875 
Q 49.703125 2.984375 51.375 0 
L 42.1875 0 
Q 40.828125 2.734375 40.4375 6.390625 
z
M 39.703125 26.03125 
Q 34.90625 24.078125 25.34375 22.703125 
Q 19.921875 21.921875 17.671875 20.9375 
Q 15.4375 19.96875 14.203125 18.09375 
Q 12.984375 16.21875 12.984375 13.921875 
Q 12.984375 10.40625 15.640625 8.0625 
Q 18.3125 5.71875 23.4375 5.71875 
Q 28.515625 5.71875 32.46875 7.9375 
Q 36.421875 10.15625 38.28125 14.015625 
Q 39.703125 17 39.703125 22.796875 
z
" id="ArialMT-97"/>
       <path d="M 6.390625 0 
L 6.390625 71.578125 
L 15.1875 71.578125 
L 15.1875 0 
z
" id="ArialMT-108"/>
       <path d="M 56.6875 7.953125 
Q 53.515625 4.296875 49.578125 2.078125 
Q 45.65625 -0.140625 41.703125 -0.140625 
Q 37.359375 -0.140625 33.25 2.390625 
Q 29.15625 4.9375 26.59375 10.203125 
Q 24.03125 15.484375 24.03125 21.78125 
Q 24.03125 29.546875 28 37.328125 
Q 31.984375 45.125 37.890625 49.03125 
Q 43.796875 52.9375 49.359375 52.9375 
Q 53.609375 52.9375 57.46875 50.703125 
Q 61.328125 48.484375 64.109375 43.953125 
L 65.765625 51.515625 
L 74.515625 51.515625 
L 67.484375 18.75 
Q 66.015625 11.921875 66.015625 11.1875 
Q 66.015625 9.859375 67.015625 8.90625 
Q 68.015625 7.953125 69.4375 7.953125 
Q 72.015625 7.953125 76.21875 10.9375 
Q 81.78125 14.84375 85.03125 21.40625 
Q 88.28125 27.984375 88.28125 34.96875 
Q 88.28125 43.109375 84.109375 50.1875 
Q 79.9375 57.28125 71.65625 61.515625 
Q 63.375 65.765625 53.375 65.765625 
Q 41.9375 65.765625 32.484375 60.421875 
Q 23.046875 55.078125 17.84375 45.09375 
Q 12.640625 35.109375 12.640625 23.6875 
Q 12.640625 11.71875 17.84375 3.078125 
Q 23.046875 -5.5625 32.875 -9.6875 
Q 42.71875 -13.8125 54.6875 -13.8125 
Q 67.484375 -13.8125 76.125 -9.515625 
Q 84.765625 -5.21875 89.0625 0.921875 
L 97.90625 0.921875 
Q 95.40625 -4.203125 89.34375 -9.515625 
Q 83.296875 -14.84375 74.953125 -17.9375 
Q 66.609375 -21.046875 54.828125 -21.046875 
Q 44 -21.046875 34.84375 -18.265625 
Q 25.6875 -15.484375 19.234375 -9.890625 
Q 12.796875 -4.296875 9.515625 2.984375 
Q 5.421875 12.203125 5.421875 22.90625 
Q 5.421875 34.8125 10.296875 45.609375 
Q 16.265625 58.84375 27.21875 65.875 
Q 38.1875 72.90625 53.8125 72.90625 
Q 65.921875 72.90625 75.5625 67.9375 
Q 85.203125 62.984375 90.765625 53.171875 
Q 95.515625 44.734375 95.515625 34.8125 
Q 95.515625 20.65625 85.546875 9.671875 
Q 76.65625 -0.203125 66.109375 -0.203125 
Q 62.75 -0.203125 60.671875 0.828125 
Q 58.59375 1.859375 57.625 3.765625 
Q 56.984375 4.984375 56.6875 7.953125 
z
M 33.0625 21.1875 
Q 33.0625 14.5 36.234375 10.78125 
Q 39.40625 7.078125 43.5 7.078125 
Q 46.234375 7.078125 49.265625 8.71875 
Q 52.296875 10.359375 55.046875 13.578125 
Q 57.8125 16.796875 59.5625 21.75 
Q 61.328125 26.703125 61.328125 31.6875 
Q 61.328125 38.328125 58.03125 41.984375 
Q 54.734375 45.65625 50 45.65625 
Q 46.875 45.65625 44.109375 44.0625 
Q 41.359375 42.484375 38.765625 38.96875 
Q 36.1875 35.453125 34.625 30.421875 
Q 33.0625 25.390625 33.0625 21.1875 
z
" id="ArialMT-64"/>
      </defs>
      <use xlink:href="#ArialMT-49"/>
      <use x="55.615234" xlink:href="#ArialMT-48"/>
      <use x="111.230469" xlink:href="#ArialMT-32"/>
      <use x="139.013672" xlink:href="#ArialMT-114"/>
      <use x="172.314453" xlink:href="#ArialMT-101"/>
      <use x="227.929688" xlink:href="#ArialMT-99"/>
      <use x="277.929688" xlink:href="#ArialMT-97"/>
      <use x="333.544922" xlink:href="#ArialMT-108"/>
      <use x="355.761719" xlink:href="#ArialMT-108"/>
      <use x="377.978516" xlink:href="#ArialMT-64"/>
      <use x="479.492188" xlink:href="#ArialMT-49"/>
      <use x="535.107422" xlink:href="#ArialMT-48"/>
     </g>
    </g>
   </g>
   <g id="matplotlib.axis_2">
    <g id="ytick_1">
     <g id="line2d_6">
      <path clip-path="url(#pc60fe6a41c)" d="M 120.315313 215.046051 
L 576.860767 215.046051 
" style="fill:none;stroke:#cccccc;stroke-linecap:round;"/>
     </g>
     <g id="text_7">
      <!-- 10K -->
      <g style="fill:#262626;" transform="translate(64.555625 224.351207)scale(0.26 -0.26)">
       <defs>
        <path d="M 7.328125 0 
L 7.328125 71.578125 
L 16.796875 71.578125 
L 16.796875 36.078125 
L 52.34375 71.578125 
L 65.1875 71.578125 
L 35.15625 42.578125 
L 66.5 0 
L 54 0 
L 28.515625 36.234375 
L 16.796875 24.8125 
L 16.796875 0 
z
" id="ArialMT-75"/>
       </defs>
       <use xlink:href="#ArialMT-49"/>
       <use x="55.615234" xlink:href="#ArialMT-48"/>
       <use x="111.230469" xlink:href="#ArialMT-75"/>
      </g>
     </g>
    </g>
    <g id="ytick_2">
     <g id="line2d_7">
      <path clip-path="url(#pc60fe6a41c)" d="M 120.315313 124.732642 
L 576.860767 124.732642 
" style="fill:none;stroke:#cccccc;stroke-linecap:round;"/>
     </g>
     <g id="text_8">
      <!-- 100K -->
      <g style="fill:#262626;" transform="translate(50.097188 134.037798)scale(0.26 -0.26)">
       <use xlink:href="#ArialMT-49"/>
       <use x="55.615234" xlink:href="#ArialMT-48"/>
       <use x="111.230469" xlink:href="#ArialMT-48"/>
       <use x="166.845703" xlink:href="#ArialMT-75"/>
      </g>
     </g>
    </g>
    <g id="ytick_3">
     <g id="line2d_8">
      <path clip-path="url(#pc60fe6a41c)" d="M 120.315313 34.419232 
L 576.860767 34.419232 
" style="fill:none;stroke:#cccccc;stroke-linecap:round;"/>
     </g>
     <g id="text_9">
      <!-- 1,000K -->
      <g style="fill:#262626;" transform="translate(28.415625 43.724389)scale(0.26 -0.26)">
       <defs>
        <path d="M 8.890625 0 
L 8.890625 10.015625 
L 18.890625 10.015625 
L 18.890625 0 
Q 18.890625 -5.515625 16.9375 -8.90625 
Q 14.984375 -12.3125 10.75 -14.15625 
L 8.296875 -10.40625 
Q 11.078125 -9.1875 12.390625 -6.8125 
Q 13.71875 -4.4375 13.875 0 
z
" id="ArialMT-44"/>
       </defs>
       <use xlink:href="#ArialMT-49"/>
       <use x="55.615234" xlink:href="#ArialMT-44"/>
       <use x="83.398438" xlink:href="#ArialMT-48"/>
       <use x="139.013672" xlink:href="#ArialMT-48"/>
       <use x="194.628906" xlink:href="#ArialMT-48"/>
       <use x="250.244141" xlink:href="#ArialMT-75"/>
      </g>
     </g>
    </g>
    <g id="ytick_4"/>
    <g id="ytick_5"/>
    <g id="ytick_6"/>
    <g id="ytick_7"/>
    <g id="ytick_8"/>
    <g id="ytick_9"/>
    <g id="ytick_10"/>
    <g id="ytick_11"/>
    <g id="ytick_12"/>
    <g id="ytick_13"/>
    <g id="ytick_14"/>
    <g id="ytick_15"/>
    <g id="ytick_16"/>
    <g id="ytick_17"/>
    <g id="ytick_18"/>
    <g id="ytick_19"/>
    <g id="ytick_20"/>
    <g id="ytick_21"/>
    <g id="ytick_22"/>
    <g id="ytick_23"/>
    <g id="ytick_24"/>
    <g id="ytick_25"/>
    <g id="ytick_26"/>
    <g id="ytick_27"/>
    <g id="text_10">
     <!-- throughput (QPS) -->
     <g style="fill:#262626;" transform="translate(18.943437 263.185625)rotate(-90)scale(0.26 -0.26)">
      <defs>
       <path d="M 25.78125 7.859375 
L 27.046875 0.09375 
Q 23.34375 -0.6875 20.40625 -0.6875 
Q 15.625 -0.6875 12.984375 0.828125 
Q 10.359375 2.34375 9.28125 4.8125 
Q 8.203125 7.28125 8.203125 15.1875 
L 8.203125 45.015625 
L 1.765625 45.015625 
L 1.765625 51.859375 
L 8.203125 51.859375 
L 8.203125 64.703125 
L 16.9375 69.96875 
L 16.9375 51.859375 
L 25.78125 51.859375 
L 25.78125 45.015625 
L 16.9375 45.015625 
L 16.9375 14.703125 
Q 16.9375 10.9375 17.40625 9.859375 
Q 17.875 8.796875 18.921875 8.15625 
Q 19.96875 7.515625 21.921875 7.515625 
Q 23.390625 7.515625 25.78125 7.859375 
z
" id="ArialMT-116"/>
       <path d="M 6.59375 0 
L 6.59375 71.578125 
L 15.375 71.578125 
L 15.375 45.90625 
Q 21.53125 53.03125 30.90625 53.03125 
Q 36.671875 53.03125 40.921875 50.75 
Q 45.171875 48.484375 47 44.484375 
Q 48.828125 40.484375 48.828125 32.859375 
L 48.828125 0 
L 40.046875 0 
L 40.046875 32.859375 
Q 40.046875 39.453125 37.1875 42.453125 
Q 34.328125 45.453125 29.109375 45.453125 
Q 25.203125 45.453125 21.75 43.421875 
Q 18.3125 41.40625 16.84375 37.9375 
Q 15.375 34.46875 15.375 28.375 
L 15.375 0 
z
" id="ArialMT-104"/>
       <path d="M 3.328125 25.921875 
Q 3.328125 40.328125 11.328125 47.265625 
Q 18.015625 53.03125 27.640625 53.03125 
Q 38.328125 53.03125 45.109375 46.015625 
Q 51.90625 39.015625 51.90625 26.65625 
Q 51.90625 16.65625 48.90625 10.90625 
Q 45.90625 5.171875 40.15625 2 
Q 34.421875 -1.171875 27.640625 -1.171875 
Q 16.75 -1.171875 10.03125 5.8125 
Q 3.328125 12.796875 3.328125 25.921875 
z
M 12.359375 25.921875 
Q 12.359375 15.96875 16.703125 11.015625 
Q 21.046875 6.0625 27.640625 6.0625 
Q 34.1875 6.0625 38.53125 11.03125 
Q 42.875 16.015625 42.875 26.21875 
Q 42.875 35.84375 38.5 40.796875 
Q 34.125 45.75 27.640625 45.75 
Q 21.046875 45.75 16.703125 40.8125 
Q 12.359375 35.890625 12.359375 25.921875 
z
" id="ArialMT-111"/>
       <path d="M 40.578125 0 
L 40.578125 7.625 
Q 34.515625 -1.171875 24.125 -1.171875 
Q 19.53125 -1.171875 15.546875 0.578125 
Q 11.578125 2.34375 9.640625 5 
Q 7.71875 7.671875 6.9375 11.53125 
Q 6.390625 14.109375 6.390625 19.734375 
L 6.390625 51.859375 
L 15.1875 51.859375 
L 15.1875 23.09375 
Q 15.1875 16.21875 15.71875 13.8125 
Q 16.546875 10.359375 19.234375 8.375 
Q 21.921875 6.390625 25.875 6.390625 
Q 29.828125 6.390625 33.296875 8.421875 
Q 36.765625 10.453125 38.203125 13.9375 
Q 39.65625 17.4375 39.65625 24.078125 
L 39.65625 51.859375 
L 48.4375 51.859375 
L 48.4375 0 
z
" id="ArialMT-117"/>
       <path d="M 4.984375 -4.296875 
L 13.53125 -5.5625 
Q 14.0625 -9.515625 16.5 -11.328125 
Q 19.78125 -13.765625 25.4375 -13.765625 
Q 31.546875 -13.765625 34.859375 -11.328125 
Q 38.1875 -8.890625 39.359375 -4.5 
Q 40.046875 -1.8125 39.984375 6.78125 
Q 34.234375 0 25.640625 0 
Q 14.9375 0 9.078125 7.71875 
Q 3.21875 15.4375 3.21875 26.21875 
Q 3.21875 33.640625 5.90625 39.90625 
Q 8.59375 46.1875 13.6875 49.609375 
Q 18.796875 53.03125 25.6875 53.03125 
Q 34.859375 53.03125 40.828125 45.609375 
L 40.828125 51.859375 
L 48.921875 51.859375 
L 48.921875 7.03125 
Q 48.921875 -5.078125 46.453125 -10.125 
Q 44 -15.1875 38.640625 -18.109375 
Q 33.296875 -21.046875 25.484375 -21.046875 
Q 16.21875 -21.046875 10.5 -16.875 
Q 4.78125 -12.703125 4.984375 -4.296875 
z
M 12.25 26.859375 
Q 12.25 16.65625 16.296875 11.96875 
Q 20.359375 7.28125 26.46875 7.28125 
Q 32.515625 7.28125 36.609375 11.9375 
Q 40.71875 16.609375 40.71875 26.5625 
Q 40.71875 36.078125 36.5 40.90625 
Q 32.28125 45.75 26.3125 45.75 
Q 20.453125 45.75 16.34375 40.984375 
Q 12.25 36.234375 12.25 26.859375 
z
" id="ArialMT-103"/>
       <path d="M 6.59375 -19.875 
L 6.59375 51.859375 
L 14.59375 51.859375 
L 14.59375 45.125 
Q 17.4375 49.078125 21 51.046875 
Q 24.5625 53.03125 29.640625 53.03125 
Q 36.28125 53.03125 41.359375 49.609375 
Q 46.4375 46.1875 49.015625 39.953125 
Q 51.609375 33.734375 51.609375 26.3125 
Q 51.609375 18.359375 48.75 11.984375 
Q 45.90625 5.609375 40.453125 2.21875 
Q 35.015625 -1.171875 29 -1.171875 
Q 24.609375 -1.171875 21.109375 0.6875 
Q 17.625 2.546875 15.375 5.375 
L 15.375 -19.875 
z
M 14.546875 25.640625 
Q 14.546875 15.625 18.59375 10.84375 
Q 22.65625 6.0625 28.421875 6.0625 
Q 34.28125 6.0625 38.453125 11.015625 
Q 42.625 15.96875 42.625 26.375 
Q 42.625 36.28125 38.546875 41.203125 
Q 34.46875 46.140625 28.8125 46.140625 
Q 23.1875 46.140625 18.859375 40.890625 
Q 14.546875 35.640625 14.546875 25.640625 
z
" id="ArialMT-112"/>
       <path d="M 23.390625 -21.046875 
Q 16.109375 -11.859375 11.078125 0.4375 
Q 6.0625 12.75 6.0625 25.921875 
Q 6.0625 37.546875 9.8125 48.1875 
Q 14.203125 60.546875 23.390625 72.796875 
L 29.6875 72.796875 
Q 23.78125 62.640625 21.875 58.296875 
Q 18.890625 51.5625 17.1875 44.234375 
Q 15.09375 35.109375 15.09375 25.875 
Q 15.09375 2.390625 29.6875 -21.046875 
z
" id="ArialMT-40"/>
       <path d="M 61.96875 7.671875 
Q 68.5625 3.125 74.125 1.03125 
L 71.34375 -5.5625 
Q 63.625 -2.78125 55.953125 3.21875 
Q 48 -1.21875 38.375 -1.21875 
Q 28.65625 -1.21875 20.75 3.46875 
Q 12.84375 8.15625 8.5625 16.640625 
Q 4.296875 25.140625 4.296875 35.796875 
Q 4.296875 46.390625 8.59375 55.078125 
Q 12.890625 63.765625 20.828125 68.3125 
Q 28.765625 72.859375 38.578125 72.859375 
Q 48.484375 72.859375 56.4375 68.140625 
Q 64.40625 63.421875 68.578125 54.953125 
Q 72.75 46.484375 72.75 35.84375 
Q 72.75 27 70.0625 19.9375 
Q 67.390625 12.890625 61.96875 7.671875 
z
M 41.109375 19.78125 
Q 49.3125 17.484375 54.640625 12.9375 
Q 62.984375 20.5625 62.984375 35.84375 
Q 62.984375 44.53125 60.03125 51.015625 
Q 57.078125 57.515625 51.390625 61.109375 
Q 45.703125 64.703125 38.625 64.703125 
Q 28.03125 64.703125 21.046875 57.453125 
Q 14.0625 50.203125 14.0625 35.796875 
Q 14.0625 21.828125 20.96875 14.359375 
Q 27.875 6.890625 38.625 6.890625 
Q 43.703125 6.890625 48.1875 8.796875 
Q 43.75 11.671875 38.8125 12.890625 
z
" id="ArialMT-81"/>
       <path d="M 7.71875 0 
L 7.71875 71.578125 
L 34.71875 71.578125 
Q 41.84375 71.578125 45.609375 70.90625 
Q 50.875 70.015625 54.4375 67.546875 
Q 58.015625 65.09375 60.1875 60.640625 
Q 62.359375 56.203125 62.359375 50.875 
Q 62.359375 41.75 56.546875 35.421875 
Q 50.734375 29.109375 35.546875 29.109375 
L 17.1875 29.109375 
L 17.1875 0 
z
M 17.1875 37.546875 
L 35.6875 37.546875 
Q 44.875 37.546875 48.734375 40.96875 
Q 52.59375 44.390625 52.59375 50.59375 
Q 52.59375 55.078125 50.3125 58.265625 
Q 48.046875 61.46875 44.34375 62.5 
Q 41.9375 63.140625 35.5 63.140625 
L 17.1875 63.140625 
z
" id="ArialMT-80"/>
       <path d="M 4.5 23 
L 13.421875 23.78125 
Q 14.0625 18.40625 16.375 14.96875 
Q 18.703125 11.53125 23.578125 9.40625 
Q 28.46875 7.28125 34.578125 7.28125 
Q 39.984375 7.28125 44.140625 8.890625 
Q 48.296875 10.5 50.3125 13.296875 
Q 52.34375 16.109375 52.34375 19.4375 
Q 52.34375 22.796875 50.390625 25.3125 
Q 48.4375 27.828125 43.953125 29.546875 
Q 41.0625 30.671875 31.203125 33.03125 
Q 21.34375 35.40625 17.390625 37.5 
Q 12.25 40.1875 9.734375 44.15625 
Q 7.234375 48.140625 7.234375 53.078125 
Q 7.234375 58.5 10.296875 63.203125 
Q 13.375 67.921875 19.28125 70.359375 
Q 25.203125 72.796875 32.421875 72.796875 
Q 40.375 72.796875 46.453125 70.234375 
Q 52.546875 67.671875 55.8125 62.6875 
Q 59.078125 57.71875 59.328125 51.421875 
L 50.25 50.734375 
Q 49.515625 57.515625 45.28125 60.984375 
Q 41.0625 64.453125 32.8125 64.453125 
Q 24.21875 64.453125 20.28125 61.296875 
Q 16.359375 58.15625 16.359375 53.71875 
Q 16.359375 49.859375 19.140625 47.359375 
Q 21.875 44.875 33.421875 42.265625 
Q 44.96875 39.65625 49.265625 37.703125 
Q 55.515625 34.8125 58.484375 30.390625 
Q 61.46875 25.984375 61.46875 20.21875 
Q 61.46875 14.5 58.203125 9.4375 
Q 54.9375 4.390625 48.796875 1.578125 
Q 42.671875 -1.21875 35.015625 -1.21875 
Q 25.296875 -1.21875 18.71875 1.609375 
Q 12.15625 4.4375 8.421875 10.125 
Q 4.6875 15.828125 4.5 23 
z
" id="ArialMT-83"/>
       <path d="M 12.359375 -21.046875 
L 6.0625 -21.046875 
Q 20.65625 2.390625 20.65625 25.875 
Q 20.65625 35.0625 18.5625 44.09375 
Q 16.890625 51.421875 13.921875 58.15625 
Q 12.015625 62.546875 6.0625 72.796875 
L 12.359375 72.796875 
Q 21.53125 60.546875 25.921875 48.1875 
Q 29.6875 37.546875 29.6875 25.921875 
Q 29.6875 12.75 24.625 0.4375 
Q 19.578125 -11.859375 12.359375 -21.046875 
z
" id="ArialMT-41"/>
      </defs>
      <use xlink:href="#ArialMT-116"/>
      <use x="27.783203" xlink:href="#ArialMT-104"/>
      <use x="83.398438" xlink:href="#ArialMT-114"/>
      <use x="116.699219" xlink:href="#ArialMT-111"/>
      <use x="172.314453" xlink:href="#ArialMT-117"/>
      <use x="227.929688" xlink:href="#ArialMT-103"/>
      <use x="283.544922" xlink:href="#ArialMT-104"/>
      <use x="339.160156" xlink:href="#ArialMT-112"/>
      <use x="394.775391" xlink:href="#ArialMT-117"/>
      <use x="450.390625" xlink:href="#ArialMT-116"/>
      <use x="478.173828" xlink:href="#ArialMT-32"/>
      <use x="505.957031" xlink:href="#ArialMT-40"/>
      <use x="539.257812" xlink:href="#ArialMT-81"/>
      <use x="617.041016" xlink:href="#ArialMT-80"/>
      <use x="683.740234" xlink:href="#ArialMT-83"/>
      <use x="750.439453" xlink:href="#ArialMT-41"/>
     </g>
    </g>
   </g>
   <g id="line2d_9">
    <path clip-path="url(#pc60fe6a41c)" d="M 141.067379 106.895082 
L 234.205727 110.756504 
L 295.510351 113.951883 
L 319.331944 115.462246 
L 343.604623 117.290317 
L 364.955988 118.976585 
L 384.481532 120.680636 
L 400.01175 127.494218 
L 449.437797 128.809926 
L 451.285098 131.62125 
L 490.722831 137.700278 
L 491.732402 140.363246 
L 513.427451 144.964969 
L 514.329622 147.489569 
L 515.94064 158.354148 
L 534.478093 158.645091 
L 534.950658 160.81746 
L 537.72161 172.517681 
L 546.313709 174.765557 
L 546.46407 186.952924 
L 550.609758 190.622656 
L 551.060843 201.158301 
L 554.605084 248.076348 
" style="fill:none;stroke:#0173b2;stroke-linecap:round;stroke-width:3;"/>
    <defs>
     <path d="M 0 7.5 
C 1.989023 7.5 3.896849 6.709753 5.303301 5.303301 
C 6.709753 3.896849 7.5 1.989023 7.5 0 
C 7.5 -1.989023 6.709753 -3.896849 5.303301 -5.303301 
C 3.896849 -6.709753 1.989023 -7.5 0 -7.5 
C -1.989023 -7.5 -3.896849 -6.709753 -5.303301 -5.303301 
C -6.709753 -3.896849 -7.5 -1.989023 -7.5 0 
C -7.5 1.989023 -6.709753 3.896849 -5.303301 5.303301 
C -3.896849 6.709753 -1.989023 7.5 0 7.5 
z
" id="m865c7242d1" style="stroke:#ffffff;stroke-width:0.75;"/>
    </defs>
    <g clip-path="url(#pc60fe6a41c)">
     <use style="fill:#0173b2;stroke:#ffffff;stroke-width:0.75;" x="141.067379" xlink:href="#m865c7242d1" y="106.895082"/>
     <use style="fill:#0173b2;stroke:#ffffff;stroke-width:0.75;" x="234.205727" xlink:href="#m865c7242d1" y="110.756504"/>
     <use style="fill:#0173b2;stroke:#ffffff;stroke-width:0.75;" x="295.510351" xlink:href="#m865c7242d1" y="113.951883"/>
     <use style="fill:#0173b2;stroke:#ffffff;stroke-width:0.75;" x="319.331944" xlink:href="#m865c7242d1" y="115.462246"/>
     <use style="fill:#0173b2;stroke:#ffffff;stroke-width:0.75;" x="343.604623" xlink:href="#m865c7242d1" y="117.290317"/>
     <use style="fill:#0173b2;stroke:#ffffff;stroke-width:0.75;" x="364.955988" xlink:href="#m865c7242d1" y="118.976585"/>
     <use style="fill:#0173b2;stroke:#ffffff;stroke-width:0.75;" x="384.481532" xlink:href="#m865c7242d1" y="120.680636"/>
     <use style="fill:#0173b2;stroke:#ffffff;stroke-width:0.75;" x="400.01175" xlink:href="#m865c7242d1" y="127.494218"/>
     <use style="fill:#0173b2;stroke:#ffffff;stroke-width:0.75;" x="449.437797" xlink:href="#m865c7242d1" y="128.809926"/>
     <use style="fill:#0173b2;stroke:#ffffff;stroke-width:0.75;" x="451.285098" xlink:href="#m865c7242d1" y="131.62125"/>
     <use style="fill:#0173b2;stroke:#ffffff;stroke-width:0.75;" x="490.722831" xlink:href="#m865c7242d1" y="137.700278"/>
     <use style="fill:#0173b2;stroke:#ffffff;stroke-width:0.75;" x="491.732402" xlink:href="#m865c7242d1" y="140.363246"/>
     <use style="fill:#0173b2;stroke:#ffffff;stroke-width:0.75;" x="513.427451" xlink:href="#m865c7242d1" y="144.964969"/>
     <use style="fill:#0173b2;stroke:#ffffff;stroke-width:0.75;" x="514.329622" xlink:href="#m865c7242d1" y="147.489569"/>
     <use style="fill:#0173b2;stroke:#ffffff;stroke-width:0.75;" x="515.94064" xlink:href="#m865c7242d1" y="158.354148"/>
     <use style="fill:#0173b2;stroke:#ffffff;stroke-width:0.75;" x="534.478093" xlink:href="#m865c7242d1" y="158.645091"/>
     <use style="fill:#0173b2;stroke:#ffffff;stroke-width:0.75;" x="534.950658" xlink:href="#m865c7242d1" y="160.81746"/>
     <use style="fill:#0173b2;stroke:#ffffff;stroke-width:0.75;" x="537.72161" xlink:href="#m865c7242d1" y="172.517681"/>
     <use style="fill:#0173b2;stroke:#ffffff;stroke-width:0.75;" x="546.313709" xlink:href="#m865c7242d1" y="174.765557"/>
     <use style="fill:#0173b2;stroke:#ffffff;stroke-width:0.75;" x="546.46407" xlink:href="#m865c7242d1" y="186.952924"/>
     <use style="fill:#0173b2;stroke:#ffffff;stroke-width:0.75;" x="550.609758" xlink:href="#m865c7242d1" y="190.622656"/>
     <use style="fill:#0173b2;stroke:#ffffff;stroke-width:0.75;" x="551.060843" xlink:href="#m865c7242d1" y="201.158301"/>
     <use style="fill:#0173b2;stroke:#ffffff;stroke-width:0.75;" x="554.605084" xlink:href="#m865c7242d1" y="248.076348"/>
    </g>
   </g>
   <g id="line2d_10">
    <path clip-path="url(#pc60fe6a41c)" d="M 208.214629 144.695343 
L 330.050587 154.225632 
L 365.707796 157.916235 
L 394.469846 161.476989 
L 416.057494 164.655107 
L 434.444585 167.619192 
L 448.020101 170.35255 
L 460.650486 172.934214 
L 470.746201 175.389359 
L 479.080537 177.713863 
L 492.677533 181.944039 
L 502.343644 185.642313 
L 510.484657 189.067274 
L 511.837913 194.379444 
L 521.117379 195.235719 
L 530.976813 202.602959 
L 535.745427 206.904527 
L 535.938749 210.353906 
L 539.977036 212.440048 
L 541.416212 216.133924 
L 541.545094 218.422542 
L 544.917493 219.891777 
L 545.411538 223.296132 
L 545.433018 225.426103 
L 547.989168 226.240631 
L 549.428344 231.389422 
L 550.523837 235.993498 
L 550.695679 239.447182 
L 550.80308 241.409836 
L 550.867521 242.732212 
L 552.134855 243.631985 
L 552.800743 250.039545 
L 553.466631 254.220662 
L 553.788834 259.394737 
L 554.003637 261.165015 
L 554.411761 266.783881 
L 554.776926 275.569846 
L 555.228011 282.403599 
L 555.249491 284.851705 
" style="fill:none;stroke:#029e73;stroke-dasharray:12,4.5;stroke-dashoffset:0;stroke-width:3;"/>
    <defs>
     <path d="M -3.75 7.5 
L 0 3.75 
L 3.75 7.5 
L 7.5 3.75 
L 3.75 0 
L 7.5 -3.75 
L 3.75 -7.5 
L 0 -3.75 
L -3.75 -7.5 
L -7.5 -3.75 
L -3.75 0 
L -7.5 3.75 
z
" id="m8d6617f035" style="stroke:#ffffff;stroke-linejoin:miter;stroke-width:0.75;"/>
    </defs>
    <g clip-path="url(#pc60fe6a41c)">
     <use style="fill:#029e73;stroke:#ffffff;stroke-linejoin:miter;stroke-width:0.75;" x="208.214629" xlink:href="#m8d6617f035" y="144.695343"/>
     <use style="fill:#029e73;stroke:#ffffff;stroke-linejoin:miter;stroke-width:0.75;" x="330.050587" xlink:href="#m8d6617f035" y="154.225632"/>
     <use style="fill:#029e73;stroke:#ffffff;stroke-linejoin:miter;stroke-width:0.75;" x="365.707796" xlink:href="#m8d6617f035" y="157.916235"/>
     <use style="fill:#029e73;stroke:#ffffff;stroke-linejoin:miter;stroke-width:0.75;" x="394.469846" xlink:href="#m8d6617f035" y="161.476989"/>
     <use style="fill:#029e73;stroke:#ffffff;stroke-linejoin:miter;stroke-width:0.75;" x="416.057494" xlink:href="#m8d6617f035" y="164.655107"/>
     <use style="fill:#029e73;stroke:#ffffff;stroke-linejoin:miter;stroke-width:0.75;" x="434.444585" xlink:href="#m8d6617f035" y="167.619192"/>
     <use style="fill:#029e73;stroke:#ffffff;stroke-linejoin:miter;stroke-width:0.75;" x="448.020101" xlink:href="#m8d6617f035" y="170.35255"/>
     <use style="fill:#029e73;stroke:#ffffff;stroke-linejoin:miter;stroke-width:0.75;" x="460.650486" xlink:href="#m8d6617f035" y="172.934214"/>
     <use style="fill:#029e73;stroke:#ffffff;stroke-linejoin:miter;stroke-width:0.75;" x="470.746201" xlink:href="#m8d6617f035" y="175.389359"/>
     <use style="fill:#029e73;stroke:#ffffff;stroke-linejoin:miter;stroke-width:0.75;" x="479.080537" xlink:href="#m8d6617f035" y="177.713863"/>
     <use style="fill:#029e73;stroke:#ffffff;stroke-linejoin:miter;stroke-width:0.75;" x="492.677533" xlink:href="#m8d6617f035" y="181.944039"/>
     <use style="fill:#029e73;stroke:#ffffff;stroke-linejoin:miter;stroke-width:0.75;" x="502.343644" xlink:href="#m8d6617f035" y="185.642313"/>
     <use style="fill:#029e73;stroke:#ffffff;stroke-linejoin:miter;stroke-width:0.75;" x="510.484657" xlink:href="#m8d6617f035" y="189.067274"/>
     <use style="fill:#029e73;stroke:#ffffff;stroke-linejoin:miter;stroke-width:0.75;" x="511.837913" xlink:href="#m8d6617f035" y="194.379444"/>
     <use style="fill:#029e73;stroke:#ffffff;stroke-linejoin:miter;stroke-width:0.75;" x="521.117379" xlink:href="#m8d6617f035" y="195.235719"/>
     <use style="fill:#029e73;stroke:#ffffff;stroke-linejoin:miter;stroke-width:0.75;" x="530.976813" xlink:href="#m8d6617f035" y="202.602959"/>
     <use style="fill:#029e73;stroke:#ffffff;stroke-linejoin:miter;stroke-width:0.75;" x="535.745427" xlink:href="#m8d6617f035" y="206.904527"/>
     <use style="fill:#029e73;stroke:#ffffff;stroke-linejoin:miter;stroke-width:0.75;" x="535.938749" xlink:href="#m8d6617f035" y="210.353906"/>
     <use style="fill:#029e73;stroke:#ffffff;stroke-linejoin:miter;stroke-width:0.75;" x="539.977036" xlink:href="#m8d6617f035" y="212.440048"/>
     <use style="fill:#029e73;stroke:#ffffff;stroke-linejoin:miter;stroke-width:0.75;" x="541.416212" xlink:href="#m8d6617f035" y="216.133924"/>
     <use style="fill:#029e73;stroke:#ffffff;stroke-linejoin:miter;stroke-width:0.75;" x="541.545094" xlink:href="#m8d6617f035" y="218.422542"/>
     <use style="fill:#029e73;stroke:#ffffff;stroke-linejoin:miter;stroke-width:0.75;" x="544.917493" xlink:href="#m8d6617f035" y="219.891777"/>
     <use style="fill:#029e73;stroke:#ffffff;stroke-linejoin:miter;stroke-width:0.75;" x="545.411538" xlink:href="#m8d6617f035" y="223.296132"/>
     <use style="fill:#029e73;stroke:#ffffff;stroke-linejoin:miter;stroke-width:0.75;" x="545.433018" xlink:href="#m8d6617f035" y="225.426103"/>
     <use style="fill:#029e73;stroke:#ffffff;stroke-linejoin:miter;stroke-width:0.75;" x="547.989168" xlink:href="#m8d6617f035" y="226.240631"/>
     <use style="fill:#029e73;stroke:#ffffff;stroke-linejoin:miter;stroke-width:0.75;" x="549.428344" xlink:href="#m8d6617f035" y="231.389422"/>
     <use style="fill:#029e73;stroke:#ffffff;stroke-linejoin:miter;stroke-width:0.75;" x="550.523837" xlink:href="#m8d6617f035" y="235.993498"/>
     <use style="fill:#029e73;stroke:#ffffff;stroke-linejoin:miter;stroke-width:0.75;" x="550.695679" xlink:href="#m8d6617f035" y="239.447182"/>
     <use style="fill:#029e73;stroke:#ffffff;stroke-linejoin:miter;stroke-width:0.75;" x="550.80308" xlink:href="#m8d6617f035" y="241.409836"/>
     <use style="fill:#029e73;stroke:#ffffff;stroke-linejoin:miter;stroke-width:0.75;" x="550.867521" xlink:href="#m8d6617f035" y="242.732212"/>
     <use style="fill:#029e73;stroke:#ffffff;stroke-linejoin:miter;stroke-width:0.75;" x="552.134855" xlink:href="#m8d6617f035" y="243.631985"/>
     <use style="fill:#029e73;stroke:#ffffff;stroke-linejoin:miter;stroke-width:0.75;" x="552.800743" xlink:href="#m8d6617f035" y="250.039545"/>
     <use style="fill:#029e73;stroke:#ffffff;stroke-linejoin:miter;stroke-width:0.75;" x="553.466631" xlink:href="#m8d6617f035" y="254.220662"/>
     <use style="fill:#029e73;stroke:#ffffff;stroke-linejoin:miter;stroke-width:0.75;" x="553.788834" xlink:href="#m8d6617f035" y="259.394737"/>
     <use style="fill:#029e73;stroke:#ffffff;stroke-linejoin:miter;stroke-width:0.75;" x="554.003637" xlink:href="#m8d6617f035" y="261.165015"/>
     <use style="fill:#029e73;stroke:#ffffff;stroke-linejoin:miter;stroke-width:0.75;" x="554.411761" xlink:href="#m8d6617f035" y="266.783881"/>
     <use style="fill:#029e73;stroke:#ffffff;stroke-linejoin:miter;stroke-width:0.75;" x="554.776926" xlink:href="#m8d6617f035" y="275.569846"/>
     <use style="fill:#029e73;stroke:#ffffff;stroke-linejoin:miter;stroke-width:0.75;" x="555.228011" xlink:href="#m8d6617f035" y="282.403599"/>
     <use style="fill:#029e73;stroke:#ffffff;stroke-linejoin:miter;stroke-width:0.75;" x="555.249491" xlink:href="#m8d6617f035" y="284.851705"/>
    </g>
   </g>
   <g id="line2d_11">
    <path clip-path="url(#pc60fe6a41c)" d="M 160.678844 156.469418 
L 255.664494 162.839925 
L 287.498219 166.257561 
L 372.10891 167.666383 
L 433.026889 174.277161 
L 529.9028 189.452011 
L 543.220553 200.755264 
L 549.170581 205.552304 
L 550.480876 219.025607 
L 553.015545 221.069115 
L 554.218439 224.507459 
L 554.884327 234.224433 
L 555.077649 243.163559 
L 555.507254 248.580556 
L 555.765017 249.980663 
L 556.108701 268.667486 
" style="fill:none;stroke:#cc78bc;stroke-dasharray:3,3;stroke-dashoffset:0;stroke-width:3;"/>
    <defs>
     <path d="M -5.303301 -5.303301 
L -5.303301 5.303301 
L 5.303301 5.303301 
L 5.303301 -5.303301 
z
" id="mbb89e7c5c1" style="stroke:#ffffff;stroke-linejoin:miter;stroke-width:0.75;"/>
    </defs>
    <g clip-path="url(#pc60fe6a41c)">
     <use style="fill:#cc78bc;stroke:#ffffff;stroke-linejoin:miter;stroke-width:0.75;" x="160.678844" xlink:href="#mbb89e7c5c1" y="156.469418"/>
     <use style="fill:#cc78bc;stroke:#ffffff;stroke-linejoin:miter;stroke-width:0.75;" x="255.664494" xlink:href="#mbb89e7c5c1" y="162.839925"/>
     <use style="fill:#cc78bc;stroke:#ffffff;stroke-linejoin:miter;stroke-width:0.75;" x="287.498219" xlink:href="#mbb89e7c5c1" y="166.257561"/>
     <use style="fill:#cc78bc;stroke:#ffffff;stroke-linejoin:miter;stroke-width:0.75;" x="372.10891" xlink:href="#mbb89e7c5c1" y="167.666383"/>
     <use style="fill:#cc78bc;stroke:#ffffff;stroke-linejoin:miter;stroke-width:0.75;" x="433.026889" xlink:href="#mbb89e7c5c1" y="174.277161"/>
     <use style="fill:#cc78bc;stroke:#ffffff;stroke-linejoin:miter;stroke-width:0.75;" x="529.9028" xlink:href="#mbb89e7c5c1" y="189.452011"/>
     <use style="fill:#cc78bc;stroke:#ffffff;stroke-linejoin:miter;stroke-width:0.75;" x="543.220553" xlink:href="#mbb89e7c5c1" y="200.755264"/>
     <use style="fill:#cc78bc;stroke:#ffffff;stroke-linejoin:miter;stroke-width:0.75;" x="549.170581" xlink:href="#mbb89e7c5c1" y="205.552304"/>
     <use style="fill:#cc78bc;stroke:#ffffff;stroke-linejoin:miter;stroke-width:0.75;" x="550.480876" xlink:href="#mbb89e7c5c1" y="219.025607"/>
     <use style="fill:#cc78bc;stroke:#ffffff;stroke-linejoin:miter;stroke-width:0.75;" x="553.015545" xlink:href="#mbb89e7c5c1" y="221.069115"/>
     <use style="fill:#cc78bc;stroke:#ffffff;stroke-linejoin:miter;stroke-width:0.75;" x="554.218439" xlink:href="#mbb89e7c5c1" y="224.507459"/>
     <use style="fill:#cc78bc;stroke:#ffffff;stroke-linejoin:miter;stroke-width:0.75;" x="554.884327" xlink:href="#mbb89e7c5c1" y="234.224433"/>
     <use style="fill:#cc78bc;stroke:#ffffff;stroke-linejoin:miter;stroke-width:0.75;" x="555.077649" xlink:href="#mbb89e7c5c1" y="243.163559"/>
     <use style="fill:#cc78bc;stroke:#ffffff;stroke-linejoin:miter;stroke-width:0.75;" x="555.507254" xlink:href="#mbb89e7c5c1" y="248.580556"/>
     <use style="fill:#cc78bc;stroke:#ffffff;stroke-linejoin:miter;stroke-width:0.75;" x="555.765017" xlink:href="#mbb89e7c5c1" y="249.980663"/>
     <use style="fill:#cc78bc;stroke:#ffffff;stroke-linejoin:miter;stroke-width:0.75;" x="556.108701" xlink:href="#mbb89e7c5c1" y="268.667486"/>
    </g>
   </g>
   <g id="line2d_12"/>
   <g id="line2d_13"/>
   <g id="line2d_14"/>
   <g id="patch_3">
    <path d="M 120.315313 297.20625 
L 120.315313 25.40625 
" style="fill:none;stroke:#cccccc;stroke-linecap:square;stroke-linejoin:miter;stroke-width:1.25;"/>
   </g>
   <g id="patch_4">
    <path d="M 576.860767 297.20625 
L 576.860767 25.40625 
" style="fill:none;stroke:#cccccc;stroke-linecap:square;stroke-linejoin:miter;stroke-width:1.25;"/>
   </g>
   <g id="patch_5">
    <path d="M 120.315312 297.20625 
L 576.860767 297.20625 
" style="fill:none;stroke:#cccccc;stroke-linecap:square;stroke-linejoin:miter;stroke-width:1.25;"/>
   </g>
   <g id="patch_6">
    <path d="M 120.315312 25.40625 
L 576.860767 25.40625 
" style="fill:none;stroke:#cccccc;stroke-linecap:square;stroke-linejoin:miter;stroke-width:1.25;"/>
   </g>
   <g id="text_11">
    <!-- query batch = 10 -->
    <g style="fill:#262626;" transform="translate(156.339027 282.324047)scale(0.27 -0.27)">
     <defs>
      <path d="M 39.65625 -19.875 
L 39.65625 5.515625 
Q 37.59375 2.640625 33.90625 0.734375 
Q 30.21875 -1.171875 26.078125 -1.171875 
Q 16.84375 -1.171875 10.171875 6.203125 
Q 3.515625 13.578125 3.515625 26.421875 
Q 3.515625 34.234375 6.21875 40.421875 
Q 8.9375 46.625 14.078125 49.828125 
Q 19.234375 53.03125 25.390625 53.03125 
Q 35.015625 53.03125 40.53125 44.921875 
L 40.53125 51.859375 
L 48.4375 51.859375 
L 48.4375 -19.875 
z
M 12.546875 26.078125 
Q 12.546875 16.0625 16.75 11.0625 
Q 20.953125 6.0625 26.8125 6.0625 
Q 32.421875 6.0625 36.46875 10.8125 
Q 40.53125 15.578125 40.53125 25.296875 
Q 40.53125 35.640625 36.25 40.859375 
Q 31.984375 46.09375 26.21875 46.09375 
Q 20.515625 46.09375 16.53125 41.234375 
Q 12.546875 36.375 12.546875 26.078125 
z
" id="ArialMT-113"/>
      <path d="M 6.203125 -19.96875 
L 5.21875 -11.71875 
Q 8.109375 -12.5 10.25 -12.5 
Q 13.1875 -12.5 14.9375 -11.515625 
Q 16.703125 -10.546875 17.828125 -8.796875 
Q 18.65625 -7.46875 20.515625 -2.25 
Q 20.75 -1.515625 21.296875 -0.09375 
L 1.609375 51.859375 
L 11.078125 51.859375 
L 21.875 21.828125 
Q 23.96875 16.109375 25.640625 9.8125 
Q 27.15625 15.875 29.25 21.625 
L 40.328125 51.859375 
L 49.125 51.859375 
L 29.390625 -0.875 
Q 26.21875 -9.421875 24.46875 -12.640625 
Q 22.125 -17 19.09375 -19.015625 
Q 16.0625 -21.046875 11.859375 -21.046875 
Q 9.328125 -21.046875 6.203125 -19.96875 
z
" id="ArialMT-121"/>
      <path d="M 14.703125 0 
L 6.546875 0 
L 6.546875 71.578125 
L 15.328125 71.578125 
L 15.328125 46.046875 
Q 20.90625 53.03125 29.546875 53.03125 
Q 34.328125 53.03125 38.59375 51.09375 
Q 42.875 49.171875 45.625 45.671875 
Q 48.390625 42.1875 49.953125 37.25 
Q 51.515625 32.328125 51.515625 26.703125 
Q 51.515625 13.375 44.921875 6.09375 
Q 38.328125 -1.171875 29.109375 -1.171875 
Q 19.921875 -1.171875 14.703125 6.5 
z
M 14.59375 26.3125 
Q 14.59375 17 17.140625 12.84375 
Q 21.296875 6.0625 28.375 6.0625 
Q 34.125 6.0625 38.328125 11.0625 
Q 42.53125 16.0625 42.53125 25.984375 
Q 42.53125 36.140625 38.5 40.96875 
Q 34.46875 45.796875 28.765625 45.796875 
Q 23 45.796875 18.796875 40.796875 
Q 14.59375 35.796875 14.59375 26.3125 
z
" id="ArialMT-98"/>
      <path d="M 52.828125 42.09375 
L 5.5625 42.09375 
L 5.5625 50.296875 
L 52.828125 50.296875 
z
M 52.828125 20.359375 
L 5.5625 20.359375 
L 5.5625 28.5625 
L 52.828125 28.5625 
z
" id="ArialMT-61"/>
     </defs>
     <use xlink:href="#ArialMT-113"/>
     <use x="55.615234" xlink:href="#ArialMT-117"/>
     <use x="111.230469" xlink:href="#ArialMT-101"/>
     <use x="166.845703" xlink:href="#ArialMT-114"/>
     <use x="200.146484" xlink:href="#ArialMT-121"/>
     <use x="250.146484" xlink:href="#ArialMT-32"/>
     <use x="277.929688" xlink:href="#ArialMT-98"/>
     <use x="333.544922" xlink:href="#ArialMT-97"/>
     <use x="389.160156" xlink:href="#ArialMT-116"/>
     <use x="416.943359" xlink:href="#ArialMT-99"/>
     <use x="466.943359" xlink:href="#ArialMT-104"/>
     <use x="522.558594" xlink:href="#ArialMT-32"/>
     <use x="550.341797" xlink:href="#ArialMT-61"/>
     <use x="608.740234" xlink:href="#ArialMT-32"/>
     <use x="636.523438" xlink:href="#ArialMT-49"/>
     <use x="692.138672" xlink:href="#ArialMT-48"/>
    </g>
   </g>
   <g id="text_12">
    <g id="patch_7">
     <path d="M 316.20108 29.138906 
L 580.910767 29.138906 
L 580.910767 -4.05 
L 316.20108 -4.05 
z
" style="fill:#ffffff;stroke:#ffffff;stroke-linejoin:miter;"/>
    </g>
    <!-- open-images-512-1M -->
    <g style="fill:#262626;" transform="translate(320.25108 19.40625)scale(0.27 -0.27)">
     <defs>
      <path d="M 6.59375 0 
L 6.59375 51.859375 
L 14.5 51.859375 
L 14.5 44.484375 
Q 20.21875 53.03125 31 53.03125 
Q 35.6875 53.03125 39.625 51.34375 
Q 43.5625 49.65625 45.515625 46.921875 
Q 47.46875 44.1875 48.25 40.4375 
Q 48.734375 37.984375 48.734375 31.890625 
L 48.734375 0 
L 39.9375 0 
L 39.9375 31.546875 
Q 39.9375 36.921875 38.90625 39.578125 
Q 37.890625 42.234375 35.28125 43.8125 
Q 32.671875 45.40625 29.15625 45.40625 
Q 23.53125 45.40625 19.453125 41.84375 
Q 15.375 38.28125 15.375 28.328125 
L 15.375 0 
z
" id="ArialMT-110"/>
      <path d="M 3.171875 21.484375 
L 3.171875 30.328125 
L 30.171875 30.328125 
L 30.171875 21.484375 
z
" id="ArialMT-45"/>
      <path d="M 6.640625 61.46875 
L 6.640625 71.578125 
L 15.4375 71.578125 
L 15.4375 61.46875 
z
M 6.640625 0 
L 6.640625 51.859375 
L 15.4375 51.859375 
L 15.4375 0 
z
" id="ArialMT-105"/>
      <path d="M 6.59375 0 
L 6.59375 51.859375 
L 14.453125 51.859375 
L 14.453125 44.578125 
Q 16.890625 48.390625 20.9375 50.703125 
Q 25 53.03125 30.171875 53.03125 
Q 35.9375 53.03125 39.625 50.640625 
Q 43.3125 48.25 44.828125 43.953125 
Q 50.984375 53.03125 60.84375 53.03125 
Q 68.5625 53.03125 72.703125 48.75 
Q 76.859375 44.484375 76.859375 35.59375 
L 76.859375 0 
L 68.109375 0 
L 68.109375 32.671875 
Q 68.109375 37.9375 67.25 40.25 
Q 66.40625 42.578125 64.15625 43.984375 
Q 61.921875 45.40625 58.890625 45.40625 
Q 53.421875 45.40625 49.796875 41.765625 
Q 46.1875 38.140625 46.1875 30.125 
L 46.1875 0 
L 37.40625 0 
L 37.40625 33.6875 
Q 37.40625 39.546875 35.25 42.46875 
Q 33.109375 45.40625 28.21875 45.40625 
Q 24.515625 45.40625 21.359375 43.453125 
Q 18.21875 41.5 16.796875 37.734375 
Q 15.375 33.984375 15.375 26.90625 
L 15.375 0 
z
" id="ArialMT-109"/>
      <path d="M 3.078125 15.484375 
L 11.765625 16.84375 
Q 12.5 11.625 15.84375 8.84375 
Q 19.1875 6.0625 25.203125 6.0625 
Q 31.25 6.0625 34.171875 8.515625 
Q 37.109375 10.984375 37.109375 14.3125 
Q 37.109375 17.28125 34.515625 19 
Q 32.71875 20.171875 25.53125 21.96875 
Q 15.875 24.421875 12.140625 26.203125 
Q 8.40625 27.984375 6.46875 31.125 
Q 4.546875 34.28125 4.546875 38.09375 
Q 4.546875 41.546875 6.125 44.5 
Q 7.71875 47.46875 10.453125 49.421875 
Q 12.5 50.921875 16.03125 51.96875 
Q 19.578125 53.03125 23.640625 53.03125 
Q 29.734375 53.03125 34.34375 51.265625 
Q 38.96875 49.515625 41.15625 46.5 
Q 43.359375 43.5 44.1875 38.484375 
L 35.59375 37.3125 
Q 35.015625 41.3125 32.203125 43.546875 
Q 29.390625 45.796875 24.265625 45.796875 
Q 18.21875 45.796875 15.625 43.796875 
Q 13.03125 41.796875 13.03125 39.109375 
Q 13.03125 37.40625 14.109375 36.03125 
Q 15.1875 34.625 17.484375 33.6875 
Q 18.796875 33.203125 25.25 31.453125 
Q 34.578125 28.953125 38.25 27.359375 
Q 41.9375 25.78125 44.03125 22.75 
Q 46.140625 19.734375 46.140625 15.234375 
Q 46.140625 10.84375 43.578125 6.953125 
Q 41.015625 3.078125 36.171875 0.953125 
Q 31.34375 -1.171875 25.25 -1.171875 
Q 15.140625 -1.171875 9.84375 3.03125 
Q 4.546875 7.234375 3.078125 15.484375 
z
" id="ArialMT-115"/>
      <path d="M 50.34375 8.453125 
L 50.34375 0 
L 3.03125 0 
Q 2.9375 3.171875 4.046875 6.109375 
Q 5.859375 10.9375 9.828125 15.625 
Q 13.8125 20.3125 21.34375 26.46875 
Q 33.015625 36.03125 37.109375 41.625 
Q 41.21875 47.21875 41.21875 52.203125 
Q 41.21875 57.421875 37.46875 61 
Q 33.734375 64.59375 27.734375 64.59375 
Q 21.390625 64.59375 17.578125 60.78125 
Q 13.765625 56.984375 13.71875 50.25 
L 4.6875 51.171875 
Q 5.609375 61.28125 11.65625 66.578125 
Q 17.71875 71.875 27.9375 71.875 
Q 38.234375 71.875 44.234375 66.15625 
Q 50.25 60.453125 50.25 52 
Q 50.25 47.703125 48.484375 43.546875 
Q 46.734375 39.40625 42.65625 34.8125 
Q 38.578125 30.21875 29.109375 22.21875 
Q 21.1875 15.578125 18.9375 13.203125 
Q 16.703125 10.84375 15.234375 8.453125 
z
" id="ArialMT-50"/>
      <path d="M 7.421875 0 
L 7.421875 71.578125 
L 21.6875 71.578125 
L 38.625 20.90625 
Q 40.96875 13.8125 42.046875 10.296875 
Q 43.265625 14.203125 45.84375 21.78125 
L 62.984375 71.578125 
L 75.734375 71.578125 
L 75.734375 0 
L 66.609375 0 
L 66.609375 59.90625 
L 45.796875 0 
L 37.25 0 
L 16.546875 60.9375 
L 16.546875 0 
z
" id="ArialMT-77"/>
     </defs>
     <use xlink:href="#ArialMT-111"/>
     <use x="55.615234" xlink:href="#ArialMT-112"/>
     <use x="111.230469" xlink:href="#ArialMT-101"/>
     <use x="166.845703" xlink:href="#ArialMT-110"/>
     <use x="222.460938" xlink:href="#ArialMT-45"/>
     <use x="255.761719" xlink:href="#ArialMT-105"/>
     <use x="277.978516" xlink:href="#ArialMT-109"/>
     <use x="361.279297" xlink:href="#ArialMT-97"/>
     <use x="416.894531" xlink:href="#ArialMT-103"/>
     <use x="472.509766" xlink:href="#ArialMT-101"/>
     <use x="528.125" xlink:href="#ArialMT-115"/>
     <use x="578.125" xlink:href="#ArialMT-45"/>
     <use x="611.425781" xlink:href="#ArialMT-53"/>
     <use x="667.041016" xlink:href="#ArialMT-49"/>
     <use x="722.65625" xlink:href="#ArialMT-50"/>
     <use x="778.271484" xlink:href="#ArialMT-45"/>
     <use x="811.572266" xlink:href="#ArialMT-49"/>
     <use x="867.1875" xlink:href="#ArialMT-77"/>
    </g>
   </g>
   <g id="legend_1">
    <g id="patch_8">
     <path d="M 229.824403 420.10625 
L 900.697528 420.10625 
Q 905.897528 420.10625 905.897528 414.90625 
L 905.897528 380.728438 
Q 905.897528 375.528438 900.697528 375.528438 
L 229.824403 375.528438 
Q 224.624403 375.528438 224.624403 380.728438 
L 224.624403 414.90625 
Q 224.624403 420.10625 229.824403 420.10625 
z
" style="fill:#ffffff;opacity:0.8;"/>
    </g>
    <g id="line2d_15">
     <path d="M 235.024403 395.43875 
L 287.024403 395.43875 
" style="fill:none;stroke:#0173b2;stroke-linecap:round;stroke-width:1.5;"/>
    </g>
    <g id="line2d_16">
     <defs>
      <path d="M 0 3 
C 0.795609 3 1.55874 2.683901 2.12132 2.12132 
C 2.683901 1.55874 3 0.795609 3 0 
C 3 -0.795609 2.683901 -1.55874 2.12132 -2.12132 
C 1.55874 -2.683901 0.795609 -3 0 -3 
C -0.795609 -3 -1.55874 -2.683901 -2.12132 -2.12132 
C -2.683901 -1.55874 -3 -0.795609 -3 0 
C -3 0.795609 -2.683901 1.55874 -2.12132 2.12132 
C -1.55874 2.683901 -0.795609 3 0 3 
z
" id="m8bace8ee29" style="stroke:#0173b2;"/>
     </defs>
     <g>
      <use style="fill:#0173b2;stroke:#0173b2;" x="261.024403" xlink:href="#m8bace8ee29" y="395.43875"/>
     </g>
    </g>
    <g id="text_13">
     <!-- SVS -->
     <g style="fill:#262626;" transform="translate(307.824403 404.53875)scale(0.26 -0.26)">
      <defs>
       <path d="M 28.171875 0 
L 0.4375 71.578125 
L 10.6875 71.578125 
L 29.296875 19.578125 
Q 31.546875 13.328125 33.0625 7.859375 
Q 34.71875 13.71875 36.921875 19.578125 
L 56.25 71.578125 
L 65.921875 71.578125 
L 37.890625 0 
z
" id="ArialMT-86"/>
      </defs>
      <use xlink:href="#ArialMT-83"/>
      <use x="66.699219" xlink:href="#ArialMT-86"/>
      <use x="133.398438" xlink:href="#ArialMT-83"/>
     </g>
    </g>
    <g id="line2d_17">
     <path d="M 411.852841 395.43875 
L 463.852841 395.43875 
" style="fill:none;stroke:#029e73;stroke-dasharray:6,2.25;stroke-dashoffset:0;stroke-width:1.5;"/>
    </g>
    <g id="line2d_18">
     <defs>
      <path d="M -1.5 3 
L 0 1.5 
L 1.5 3 
L 3 1.5 
L 1.5 0 
L 3 -1.5 
L 1.5 -3 
L 0 -1.5 
L -1.5 -3 
L -3 -1.5 
L -1.5 0 
L -3 1.5 
z
" id="m5fe18da86d" style="stroke:#029e73;stroke-linejoin:miter;"/>
     </defs>
     <g>
      <use style="fill:#029e73;stroke:#029e73;stroke-linejoin:miter;" x="437.852841" xlink:href="#m5fe18da86d" y="395.43875"/>
     </g>
    </g>
    <g id="text_14">
     <!-- HNSWlib -->
     <g style="fill:#262626;" transform="translate(484.652841 404.53875)scale(0.26 -0.26)">
      <defs>
       <path d="M 8.015625 0 
L 8.015625 71.578125 
L 17.484375 71.578125 
L 17.484375 42.1875 
L 54.6875 42.1875 
L 54.6875 71.578125 
L 64.15625 71.578125 
L 64.15625 0 
L 54.6875 0 
L 54.6875 33.734375 
L 17.484375 33.734375 
L 17.484375 0 
z
" id="ArialMT-72"/>
       <path d="M 7.625 0 
L 7.625 71.578125 
L 17.328125 71.578125 
L 54.9375 15.375 
L 54.9375 71.578125 
L 64.015625 71.578125 
L 64.015625 0 
L 54.296875 0 
L 16.703125 56.25 
L 16.703125 0 
z
" id="ArialMT-78"/>
       <path d="M 20.21875 0 
L 1.21875 71.578125 
L 10.9375 71.578125 
L 21.828125 24.65625 
Q 23.578125 17.28125 24.859375 10.015625 
Q 27.59375 21.484375 28.078125 23.25 
L 41.703125 71.578125 
L 53.125 71.578125 
L 63.375 35.359375 
Q 67.234375 21.875 68.953125 10.015625 
Q 70.3125 16.796875 72.515625 25.59375 
L 83.734375 71.578125 
L 93.265625 71.578125 
L 73.640625 0 
L 64.5 0 
L 49.421875 54.546875 
Q 47.515625 61.375 47.171875 62.9375 
Q 46.046875 58.015625 45.0625 54.546875 
L 29.890625 0 
z
" id="ArialMT-87"/>
      </defs>
      <use xlink:href="#ArialMT-72"/>
      <use x="72.216797" xlink:href="#ArialMT-78"/>
      <use x="144.433594" xlink:href="#ArialMT-83"/>
      <use x="211.132812" xlink:href="#ArialMT-87"/>
      <use x="305.517578" xlink:href="#ArialMT-108"/>
      <use x="327.734375" xlink:href="#ArialMT-105"/>
      <use x="349.951172" xlink:href="#ArialMT-98"/>
     </g>
    </g>
    <g id="line2d_19">
     <path d="M 642.103153 395.43875 
L 694.103153 395.43875 
" style="fill:none;stroke:#cc78bc;stroke-dasharray:1.5,1.5;stroke-dashoffset:0;stroke-width:1.5;"/>
    </g>
    <g id="line2d_20">
     <defs>
      <path d="M -2.12132 -2.12132 
L -2.12132 2.12132 
L 2.12132 2.12132 
L 2.12132 -2.12132 
z
" id="m4b96592673" style="stroke:#cc78bc;stroke-linejoin:miter;"/>
     </defs>
     <g>
      <use style="fill:#cc78bc;stroke:#cc78bc;stroke-linejoin:miter;" x="668.103153" xlink:href="#m4b96592673" y="395.43875"/>
     </g>
    </g>
    <g id="text_15">
     <!-- FAISS-IVFPQfs -->
     <g style="fill:#262626;" transform="translate(714.903153 404.53875)scale(0.26 -0.26)">
      <defs>
       <path d="M 8.203125 0 
L 8.203125 71.578125 
L 56.5 71.578125 
L 56.5 63.140625 
L 17.671875 63.140625 
L 17.671875 40.96875 
L 51.265625 40.96875 
L 51.265625 32.515625 
L 17.671875 32.515625 
L 17.671875 0 
z
" id="ArialMT-70"/>
       <path d="M -0.140625 0 
L 27.34375 71.578125 
L 37.546875 71.578125 
L 66.84375 0 
L 56.0625 0 
L 47.703125 21.6875 
L 17.78125 21.6875 
L 9.90625 0 
z
M 20.515625 29.390625 
L 44.78125 29.390625 
L 37.3125 49.21875 
Q 33.890625 58.25 32.234375 64.0625 
Q 30.859375 57.171875 28.375 50.390625 
z
" id="ArialMT-65"/>
       <path d="M 9.328125 0 
L 9.328125 71.578125 
L 18.796875 71.578125 
L 18.796875 0 
z
" id="ArialMT-73"/>
       <path d="M 8.6875 0 
L 8.6875 45.015625 
L 0.921875 45.015625 
L 0.921875 51.859375 
L 8.6875 51.859375 
L 8.6875 57.375 
Q 8.6875 62.59375 9.625 65.140625 
Q 10.890625 68.5625 14.078125 70.671875 
Q 17.28125 72.796875 23.046875 72.796875 
Q 26.765625 72.796875 31.25 71.921875 
L 29.9375 64.265625 
Q 27.203125 64.75 24.75 64.75 
Q 20.75 64.75 19.09375 63.03125 
Q 17.4375 61.328125 17.4375 56.640625 
L 17.4375 51.859375 
L 27.546875 51.859375 
L 27.546875 45.015625 
L 17.4375 45.015625 
L 17.4375 0 
z
" id="ArialMT-102"/>
      </defs>
      <use xlink:href="#ArialMT-70"/>
      <use x="55.583984" xlink:href="#ArialMT-65"/>
      <use x="122.283203" xlink:href="#ArialMT-73"/>
      <use x="150.066406" xlink:href="#ArialMT-83"/>
      <use x="216.765625" xlink:href="#ArialMT-83"/>
      <use x="283.464844" xlink:href="#ArialMT-45"/>
      <use x="316.765625" xlink:href="#ArialMT-73"/>
      <use x="344.548828" xlink:href="#ArialMT-86"/>
      <use x="411.248047" xlink:href="#ArialMT-70"/>
      <use x="472.332031" xlink:href="#ArialMT-80"/>
      <use x="539.03125" xlink:href="#ArialMT-81"/>
      <use x="616.814453" xlink:href="#ArialMT-102"/>
      <use x="644.597656" xlink:href="#ArialMT-115"/>
     </g>
    </g>
   </g>
  </g>
  <g id="axes_2">
   <g id="patch_9">
    <path d="M 668.169858 297.20625 
L 1124.715312 297.20625 
L 1124.715312 25.40625 
L 668.169858 25.40625 
z
" style="fill:#ffffff;"/>
   </g>
   <g id="matplotlib.axis_3">
    <g id="xtick_6">
     <g id="line2d_21">
      <path clip-path="url(#p7442877863)" d="M 679.584184 297.20625 
L 679.584184 25.40625 
" style="fill:none;stroke:#cccccc;stroke-linecap:round;"/>
     </g>
     <g id="text_16">
      <!-- 0.80 -->
      <g style="fill:#262626;" transform="translate(654.284965 325.316563)scale(0.26 -0.26)">
       <use xlink:href="#ArialMT-48"/>
       <use x="55.615234" xlink:href="#ArialMT-46"/>
       <use x="83.398438" xlink:href="#ArialMT-56"/>
       <use x="139.013672" xlink:href="#ArialMT-48"/>
      </g>
     </g>
    </g>
    <g id="xtick_7">
     <g id="line2d_22">
      <path clip-path="url(#p7442877863)" d="M 785.694866 297.20625 
L 785.694866 25.40625 
" style="fill:none;stroke:#cccccc;stroke-linecap:round;"/>
     </g>
     <g id="text_17">
      <!-- 0.85 -->
      <g style="fill:#262626;" transform="translate(760.395647 325.316563)scale(0.26 -0.26)">
       <use xlink:href="#ArialMT-48"/>
       <use x="55.615234" xlink:href="#ArialMT-46"/>
       <use x="83.398438" xlink:href="#ArialMT-56"/>
       <use x="139.013672" xlink:href="#ArialMT-53"/>
      </g>
     </g>
    </g>
    <g id="xtick_8">
     <g id="line2d_23">
      <path clip-path="url(#p7442877863)" d="M 891.805548 297.20625 
L 891.805548 25.40625 
" style="fill:none;stroke:#cccccc;stroke-linecap:round;"/>
     </g>
     <g id="text_18">
      <!-- 0.90 -->
      <g style="fill:#262626;" transform="translate(866.50633 325.316563)scale(0.26 -0.26)">
       <use xlink:href="#ArialMT-48"/>
       <use x="55.615234" xlink:href="#ArialMT-46"/>
       <use x="83.398438" xlink:href="#ArialMT-57"/>
       <use x="139.013672" xlink:href="#ArialMT-48"/>
      </g>
     </g>
    </g>
    <g id="xtick_9">
     <g id="line2d_24">
      <path clip-path="url(#p7442877863)" d="M 997.916231 297.20625 
L 997.916231 25.40625 
" style="fill:none;stroke:#cccccc;stroke-linecap:round;"/>
     </g>
     <g id="text_19">
      <!-- 0.95 -->
      <g style="fill:#262626;" transform="translate(972.617012 325.316563)scale(0.26 -0.26)">
       <use xlink:href="#ArialMT-48"/>
       <use x="55.615234" xlink:href="#ArialMT-46"/>
       <use x="83.398438" xlink:href="#ArialMT-57"/>
       <use x="139.013672" xlink:href="#ArialMT-53"/>
      </g>
     </g>
    </g>
    <g id="xtick_10">
     <g id="line2d_25">
      <path clip-path="url(#p7442877863)" d="M 1104.026913 297.20625 
L 1104.026913 25.40625 
" style="fill:none;stroke:#cccccc;stroke-linecap:round;"/>
     </g>
     <g id="text_20">
      <!-- 1.00 -->
      <g style="fill:#262626;" transform="translate(1078.727694 325.316563)scale(0.26 -0.26)">
       <use xlink:href="#ArialMT-49"/>
       <use x="55.615234" xlink:href="#ArialMT-46"/>
       <use x="83.398438" xlink:href="#ArialMT-48"/>
       <use x="139.013672" xlink:href="#ArialMT-48"/>
      </g>
     </g>
    </g>
    <g id="text_21">
     <!-- 10 recall@10 -->
     <g style="fill:#262626;" transform="translate(819.65321 353.439688)scale(0.26 -0.26)">
      <use xlink:href="#ArialMT-49"/>
      <use x="55.615234" xlink:href="#ArialMT-48"/>
      <use x="111.230469" xlink:href="#ArialMT-32"/>
      <use x="139.013672" xlink:href="#ArialMT-114"/>
      <use x="172.314453" xlink:href="#ArialMT-101"/>
      <use x="227.929688" xlink:href="#ArialMT-99"/>
      <use x="277.929688" xlink:href="#ArialMT-97"/>
      <use x="333.544922" xlink:href="#ArialMT-108"/>
      <use x="355.761719" xlink:href="#ArialMT-108"/>
      <use x="377.978516" xlink:href="#ArialMT-64"/>
      <use x="479.492188" xlink:href="#ArialMT-49"/>
      <use x="535.107422" xlink:href="#ArialMT-48"/>
     </g>
    </g>
   </g>
   <g id="matplotlib.axis_4">
    <g id="ytick_28">
     <g id="line2d_26">
      <path clip-path="url(#p7442877863)" d="M 668.169858 215.046051 
L 1124.715312 215.046051 
" style="fill:none;stroke:#cccccc;stroke-linecap:round;"/>
     </g>
    </g>
    <g id="ytick_29">
     <g id="line2d_27">
      <path clip-path="url(#p7442877863)" d="M 668.169858 124.732642 
L 1124.715312 124.732642 
" style="fill:none;stroke:#cccccc;stroke-linecap:round;"/>
     </g>
    </g>
    <g id="ytick_30">
     <g id="line2d_28">
      <path clip-path="url(#p7442877863)" d="M 668.169858 34.419232 
L 1124.715312 34.419232 
" style="fill:none;stroke:#cccccc;stroke-linecap:round;"/>
     </g>
    </g>
    <g id="ytick_31"/>
    <g id="ytick_32"/>
    <g id="ytick_33"/>
    <g id="ytick_34"/>
    <g id="ytick_35"/>
    <g id="ytick_36"/>
    <g id="ytick_37"/>
    <g id="ytick_38"/>
    <g id="ytick_39"/>
    <g id="ytick_40"/>
    <g id="ytick_41"/>
    <g id="ytick_42"/>
    <g id="ytick_43"/>
    <g id="ytick_44"/>
    <g id="ytick_45"/>
    <g id="ytick_46"/>
    <g id="ytick_47"/>
    <g id="ytick_48"/>
    <g id="ytick_49"/>
    <g id="ytick_50"/>
    <g id="ytick_51"/>
    <g id="ytick_52"/>
    <g id="ytick_53"/>
    <g id="ytick_54"/>
   </g>
   <g id="line2d_29">
    <path clip-path="url(#p7442877863)" d="M 688.921924 37.760795 
L 785.92831 42.576911 
L 846.496287 46.029707 
L 870.031636 48.613554 
L 892.548323 49.829181 
L 915.107454 51.269592 
L 934.398376 53.46762 
L 998.574117 62.55506 
L 1039.363063 72.126797 
L 1062.686191 79.875376 
L 1082.337889 93.747949 
L 1094.413285 109.55026 
L 1098.445491 125.360179 
L 1098.530379 138.100484 
L 1098.976044 150.409351 
L 1102.477697 201.743664 
" style="fill:none;stroke:#0173b2;stroke-linecap:round;stroke-width:3;"/>
    <g clip-path="url(#p7442877863)">
     <use style="fill:#0173b2;stroke:#ffffff;stroke-width:0.75;" x="688.921924" xlink:href="#m865c7242d1" y="37.760795"/>
     <use style="fill:#0173b2;stroke:#ffffff;stroke-width:0.75;" x="785.92831" xlink:href="#m865c7242d1" y="42.576911"/>
     <use style="fill:#0173b2;stroke:#ffffff;stroke-width:0.75;" x="846.496287" xlink:href="#m865c7242d1" y="46.029707"/>
     <use style="fill:#0173b2;stroke:#ffffff;stroke-width:0.75;" x="870.031636" xlink:href="#m865c7242d1" y="48.613554"/>
     <use style="fill:#0173b2;stroke:#ffffff;stroke-width:0.75;" x="892.548323" xlink:href="#m865c7242d1" y="49.829181"/>
     <use style="fill:#0173b2;stroke:#ffffff;stroke-width:0.75;" x="915.107454" xlink:href="#m865c7242d1" y="51.269592"/>
     <use style="fill:#0173b2;stroke:#ffffff;stroke-width:0.75;" x="934.398376" xlink:href="#m865c7242d1" y="53.46762"/>
     <use style="fill:#0173b2;stroke:#ffffff;stroke-width:0.75;" x="998.574117" xlink:href="#m865c7242d1" y="62.55506"/>
     <use style="fill:#0173b2;stroke:#ffffff;stroke-width:0.75;" x="1039.363063" xlink:href="#m865c7242d1" y="72.126797"/>
     <use style="fill:#0173b2;stroke:#ffffff;stroke-width:0.75;" x="1062.686191" xlink:href="#m865c7242d1" y="79.875376"/>
     <use style="fill:#0173b2;stroke:#ffffff;stroke-width:0.75;" x="1082.337889" xlink:href="#m865c7242d1" y="93.747949"/>
     <use style="fill:#0173b2;stroke:#ffffff;stroke-width:0.75;" x="1094.413285" xlink:href="#m865c7242d1" y="109.55026"/>
     <use style="fill:#0173b2;stroke:#ffffff;stroke-width:0.75;" x="1098.445491" xlink:href="#m865c7242d1" y="125.360179"/>
     <use style="fill:#0173b2;stroke:#ffffff;stroke-width:0.75;" x="1098.530379" xlink:href="#m865c7242d1" y="138.100484"/>
     <use style="fill:#0173b2;stroke:#ffffff;stroke-width:0.75;" x="1098.976044" xlink:href="#m865c7242d1" y="150.409351"/>
     <use style="fill:#0173b2;stroke:#ffffff;stroke-width:0.75;" x="1102.477697" xlink:href="#m865c7242d1" y="201.743664"/>
    </g>
   </g>
   <g id="line2d_30">
    <path clip-path="url(#p7442877863)" d="M 760.249525 93.424368 
L 880.621483 104.006438 
L 915.850229 108.288393 
L 944.26667 112.108965 
L 965.594917 115.587717 
L 983.761066 118.763858 
L 997.173456 121.794894 
L 1009.652072 124.315472 
L 1019.626476 126.953185 
L 1027.860665 129.117105 
L 1028.072886 132.677605 
L 1041.294277 133.297515 
L 1050.844239 137.04588 
L 1054.43078 140.080672 
L 1058.887429 140.386278 
L 1060.224423 142.73968 
L 1060.797421 144.110376 
L 1061.412863 145.053747 
L 1064.872071 145.179987 
L 1069.392386 146.205194 
L 1069.774385 149.600902 
L 1076.056137 151.571735 
L 1076.098581 152.946481 
L 1079.133347 153.413346 
L 1080.85234 155.285031 
L 1081.064561 157.403145 
L 1083.844661 157.473905 
L 1084.03566 158.533065 
L 1084.311548 160.589432 
L 1088.025422 162.817302 
L 1089.447305 164.186339 
L 1089.574638 165.499641 
L 1092.906513 170.093469 
L 1093.394622 171.157351 
L 1093.415845 172.372834 
L 1093.521955 173.145814 
L 1094.986283 175.030378 
L 1095.941279 176.090292 
L 1096.896275 180.112067 
L 1097.363162 181.084288 
L 1098.445491 185.398592 
L 1098.615268 187.024671 
L 1098.721379 188.259143 
L 1098.785045 188.945615 
L 1100.037151 192.693267 
L 1100.695037 197.545557 
L 1101.352924 201.651733 
L 1101.671256 208.024103 
L 1101.883477 208.496168 
L 1102.286698 215.169855 
L 1102.647474 222.829778 
L 1103.093139 229.664073 
L 1103.114361 231.327849 
" style="fill:none;stroke:#029e73;stroke-dasharray:12,4.5;stroke-dashoffset:0;stroke-width:3;"/>
    <g clip-path="url(#p7442877863)">
     <use style="fill:#029e73;stroke:#ffffff;stroke-linejoin:miter;stroke-width:0.75;" x="760.249525" xlink:href="#m8d6617f035" y="93.424368"/>
     <use style="fill:#029e73;stroke:#ffffff;stroke-linejoin:miter;stroke-width:0.75;" x="880.621483" xlink:href="#m8d6617f035" y="104.006438"/>
     <use style="fill:#029e73;stroke:#ffffff;stroke-linejoin:miter;stroke-width:0.75;" x="915.850229" xlink:href="#m8d6617f035" y="108.288393"/>
     <use style="fill:#029e73;stroke:#ffffff;stroke-linejoin:miter;stroke-width:0.75;" x="944.26667" xlink:href="#m8d6617f035" y="112.108965"/>
     <use style="fill:#029e73;stroke:#ffffff;stroke-linejoin:miter;stroke-width:0.75;" x="965.594917" xlink:href="#m8d6617f035" y="115.587717"/>
     <use style="fill:#029e73;stroke:#ffffff;stroke-linejoin:miter;stroke-width:0.75;" x="983.761066" xlink:href="#m8d6617f035" y="118.763858"/>
     <use style="fill:#029e73;stroke:#ffffff;stroke-linejoin:miter;stroke-width:0.75;" x="997.173456" xlink:href="#m8d6617f035" y="121.794894"/>
     <use style="fill:#029e73;stroke:#ffffff;stroke-linejoin:miter;stroke-width:0.75;" x="1009.652072" xlink:href="#m8d6617f035" y="124.315472"/>
     <use style="fill:#029e73;stroke:#ffffff;stroke-linejoin:miter;stroke-width:0.75;" x="1019.626476" xlink:href="#m8d6617f035" y="126.953185"/>
     <use style="fill:#029e73;stroke:#ffffff;stroke-linejoin:miter;stroke-width:0.75;" x="1027.860665" xlink:href="#m8d6617f035" y="129.117105"/>
     <use style="fill:#029e73;stroke:#ffffff;stroke-linejoin:miter;stroke-width:0.75;" x="1028.072886" xlink:href="#m8d6617f035" y="132.677605"/>
     <use style="fill:#029e73;stroke:#ffffff;stroke-linejoin:miter;stroke-width:0.75;" x="1041.294277" xlink:href="#m8d6617f035" y="133.297515"/>
     <use style="fill:#029e73;stroke:#ffffff;stroke-linejoin:miter;stroke-width:0.75;" x="1050.844239" xlink:href="#m8d6617f035" y="137.04588"/>
     <use style="fill:#029e73;stroke:#ffffff;stroke-linejoin:miter;stroke-width:0.75;" x="1054.43078" xlink:href="#m8d6617f035" y="140.080672"/>
     <use style="fill:#029e73;stroke:#ffffff;stroke-linejoin:miter;stroke-width:0.75;" x="1058.887429" xlink:href="#m8d6617f035" y="140.386278"/>
     <use style="fill:#029e73;stroke:#ffffff;stroke-linejoin:miter;stroke-width:0.75;" x="1060.224423" xlink:href="#m8d6617f035" y="142.73968"/>
     <use style="fill:#029e73;stroke:#ffffff;stroke-linejoin:miter;stroke-width:0.75;" x="1060.797421" xlink:href="#m8d6617f035" y="144.110376"/>
     <use style="fill:#029e73;stroke:#ffffff;stroke-linejoin:miter;stroke-width:0.75;" x="1061.412863" xlink:href="#m8d6617f035" y="145.053747"/>
     <use style="fill:#029e73;stroke:#ffffff;stroke-linejoin:miter;stroke-width:0.75;" x="1064.872071" xlink:href="#m8d6617f035" y="145.179987"/>
     <use style="fill:#029e73;stroke:#ffffff;stroke-linejoin:miter;stroke-width:0.75;" x="1069.392386" xlink:href="#m8d6617f035" y="146.205194"/>
     <use style="fill:#029e73;stroke:#ffffff;stroke-linejoin:miter;stroke-width:0.75;" x="1069.774385" xlink:href="#m8d6617f035" y="149.600902"/>
     <use style="fill:#029e73;stroke:#ffffff;stroke-linejoin:miter;stroke-width:0.75;" x="1076.056137" xlink:href="#m8d6617f035" y="151.571735"/>
     <use style="fill:#029e73;stroke:#ffffff;stroke-linejoin:miter;stroke-width:0.75;" x="1076.098581" xlink:href="#m8d6617f035" y="152.946481"/>
     <use style="fill:#029e73;stroke:#ffffff;stroke-linejoin:miter;stroke-width:0.75;" x="1079.133347" xlink:href="#m8d6617f035" y="153.413346"/>
     <use style="fill:#029e73;stroke:#ffffff;stroke-linejoin:miter;stroke-width:0.75;" x="1080.85234" xlink:href="#m8d6617f035" y="155.285031"/>
     <use style="fill:#029e73;stroke:#ffffff;stroke-linejoin:miter;stroke-width:0.75;" x="1081.064561" xlink:href="#m8d6617f035" y="157.403145"/>
     <use style="fill:#029e73;stroke:#ffffff;stroke-linejoin:miter;stroke-width:0.75;" x="1083.844661" xlink:href="#m8d6617f035" y="157.473905"/>
     <use style="fill:#029e73;stroke:#ffffff;stroke-linejoin:miter;stroke-width:0.75;" x="1084.03566" xlink:href="#m8d6617f035" y="158.533065"/>
     <use style="fill:#029e73;stroke:#ffffff;stroke-linejoin:miter;stroke-width:0.75;" x="1084.311548" xlink:href="#m8d6617f035" y="160.589432"/>
     <use style="fill:#029e73;stroke:#ffffff;stroke-linejoin:miter;stroke-width:0.75;" x="1088.025422" xlink:href="#m8d6617f035" y="162.817302"/>
     <use style="fill:#029e73;stroke:#ffffff;stroke-linejoin:miter;stroke-width:0.75;" x="1089.447305" xlink:href="#m8d6617f035" y="164.186339"/>
     <use style="fill:#029e73;stroke:#ffffff;stroke-linejoin:miter;stroke-width:0.75;" x="1089.574638" xlink:href="#m8d6617f035" y="165.499641"/>
     <use style="fill:#029e73;stroke:#ffffff;stroke-linejoin:miter;stroke-width:0.75;" x="1092.906513" xlink:href="#m8d6617f035" y="170.093469"/>
     <use style="fill:#029e73;stroke:#ffffff;stroke-linejoin:miter;stroke-width:0.75;" x="1093.394622" xlink:href="#m8d6617f035" y="171.157351"/>
     <use style="fill:#029e73;stroke:#ffffff;stroke-linejoin:miter;stroke-width:0.75;" x="1093.415845" xlink:href="#m8d6617f035" y="172.372834"/>
     <use style="fill:#029e73;stroke:#ffffff;stroke-linejoin:miter;stroke-width:0.75;" x="1093.521955" xlink:href="#m8d6617f035" y="173.145814"/>
     <use style="fill:#029e73;stroke:#ffffff;stroke-linejoin:miter;stroke-width:0.75;" x="1094.986283" xlink:href="#m8d6617f035" y="175.030378"/>
     <use style="fill:#029e73;stroke:#ffffff;stroke-linejoin:miter;stroke-width:0.75;" x="1095.941279" xlink:href="#m8d6617f035" y="176.090292"/>
     <use style="fill:#029e73;stroke:#ffffff;stroke-linejoin:miter;stroke-width:0.75;" x="1096.896275" xlink:href="#m8d6617f035" y="180.112067"/>
     <use style="fill:#029e73;stroke:#ffffff;stroke-linejoin:miter;stroke-width:0.75;" x="1097.363162" xlink:href="#m8d6617f035" y="181.084288"/>
     <use style="fill:#029e73;stroke:#ffffff;stroke-linejoin:miter;stroke-width:0.75;" x="1098.445491" xlink:href="#m8d6617f035" y="185.398592"/>
     <use style="fill:#029e73;stroke:#ffffff;stroke-linejoin:miter;stroke-width:0.75;" x="1098.615268" xlink:href="#m8d6617f035" y="187.024671"/>
     <use style="fill:#029e73;stroke:#ffffff;stroke-linejoin:miter;stroke-width:0.75;" x="1098.721379" xlink:href="#m8d6617f035" y="188.259143"/>
     <use style="fill:#029e73;stroke:#ffffff;stroke-linejoin:miter;stroke-width:0.75;" x="1098.785045" xlink:href="#m8d6617f035" y="188.945615"/>
     <use style="fill:#029e73;stroke:#ffffff;stroke-linejoin:miter;stroke-width:0.75;" x="1100.037151" xlink:href="#m8d6617f035" y="192.693267"/>
     <use style="fill:#029e73;stroke:#ffffff;stroke-linejoin:miter;stroke-width:0.75;" x="1100.695037" xlink:href="#m8d6617f035" y="197.545557"/>
     <use style="fill:#029e73;stroke:#ffffff;stroke-linejoin:miter;stroke-width:0.75;" x="1101.352924" xlink:href="#m8d6617f035" y="201.651733"/>
     <use style="fill:#029e73;stroke:#ffffff;stroke-linejoin:miter;stroke-width:0.75;" x="1101.671256" xlink:href="#m8d6617f035" y="208.024103"/>
     <use style="fill:#029e73;stroke:#ffffff;stroke-linejoin:miter;stroke-width:0.75;" x="1101.883477" xlink:href="#m8d6617f035" y="208.496168"/>
     <use style="fill:#029e73;stroke:#ffffff;stroke-linejoin:miter;stroke-width:0.75;" x="1102.286698" xlink:href="#m8d6617f035" y="215.169855"/>
     <use style="fill:#029e73;stroke:#ffffff;stroke-linejoin:miter;stroke-width:0.75;" x="1102.647474" xlink:href="#m8d6617f035" y="222.829778"/>
     <use style="fill:#029e73;stroke:#ffffff;stroke-linejoin:miter;stroke-width:0.75;" x="1103.093139" xlink:href="#m8d6617f035" y="229.664073"/>
     <use style="fill:#029e73;stroke:#ffffff;stroke-linejoin:miter;stroke-width:0.75;" x="1103.114361" xlink:href="#m8d6617f035" y="231.327849"/>
    </g>
   </g>
   <g id="line2d_31">
    <path clip-path="url(#p7442877863)" d="M 713.306159 85.634431 
L 922.174426 90.486677 
L 982.31796 104.996807 
L 1078.07224 113.19848 
L 1091.229965 124.586356 
L 1097.108496 127.10004 
L 1098.403047 139.779038 
L 1100.907259 140.982345 
L 1102.095698 145.145047 
L 1102.944584 160.888092 
L 1103.369027 173.47769 
L 1103.623692 174.643411 
L 1103.963246 191.059235 
" style="fill:none;stroke:#cc78bc;stroke-dasharray:3,3;stroke-dashoffset:0;stroke-width:3;"/>
    <g clip-path="url(#p7442877863)">
     <use style="fill:#cc78bc;stroke:#ffffff;stroke-linejoin:miter;stroke-width:0.75;" x="713.306159" xlink:href="#mbb89e7c5c1" y="85.634431"/>
     <use style="fill:#cc78bc;stroke:#ffffff;stroke-linejoin:miter;stroke-width:0.75;" x="922.174426" xlink:href="#mbb89e7c5c1" y="90.486677"/>
     <use style="fill:#cc78bc;stroke:#ffffff;stroke-linejoin:miter;stroke-width:0.75;" x="982.31796" xlink:href="#mbb89e7c5c1" y="104.996807"/>
     <use style="fill:#cc78bc;stroke:#ffffff;stroke-linejoin:miter;stroke-width:0.75;" x="1078.07224" xlink:href="#mbb89e7c5c1" y="113.19848"/>
     <use style="fill:#cc78bc;stroke:#ffffff;stroke-linejoin:miter;stroke-width:0.75;" x="1091.229965" xlink:href="#mbb89e7c5c1" y="124.586356"/>
     <use style="fill:#cc78bc;stroke:#ffffff;stroke-linejoin:miter;stroke-width:0.75;" x="1097.108496" xlink:href="#mbb89e7c5c1" y="127.10004"/>
     <use style="fill:#cc78bc;stroke:#ffffff;stroke-linejoin:miter;stroke-width:0.75;" x="1098.403047" xlink:href="#mbb89e7c5c1" y="139.779038"/>
     <use style="fill:#cc78bc;stroke:#ffffff;stroke-linejoin:miter;stroke-width:0.75;" x="1100.907259" xlink:href="#mbb89e7c5c1" y="140.982345"/>
     <use style="fill:#cc78bc;stroke:#ffffff;stroke-linejoin:miter;stroke-width:0.75;" x="1102.095698" xlink:href="#mbb89e7c5c1" y="145.145047"/>
     <use style="fill:#cc78bc;stroke:#ffffff;stroke-linejoin:miter;stroke-width:0.75;" x="1102.944584" xlink:href="#mbb89e7c5c1" y="160.888092"/>
     <use style="fill:#cc78bc;stroke:#ffffff;stroke-linejoin:miter;stroke-width:0.75;" x="1103.369027" xlink:href="#mbb89e7c5c1" y="173.47769"/>
     <use style="fill:#cc78bc;stroke:#ffffff;stroke-linejoin:miter;stroke-width:0.75;" x="1103.623692" xlink:href="#mbb89e7c5c1" y="174.643411"/>
     <use style="fill:#cc78bc;stroke:#ffffff;stroke-linejoin:miter;stroke-width:0.75;" x="1103.963246" xlink:href="#mbb89e7c5c1" y="191.059235"/>
    </g>
   </g>
   <g id="line2d_32"/>
   <g id="line2d_33"/>
   <g id="line2d_34"/>
   <g id="patch_10">
    <path d="M 668.169858 297.20625 
L 668.169858 25.40625 
" style="fill:none;stroke:#cccccc;stroke-linecap:square;stroke-linejoin:miter;stroke-width:1.25;"/>
   </g>
   <g id="patch_11">
    <path d="M 1124.715312 297.20625 
L 1124.715312 25.40625 
" style="fill:none;stroke:#cccccc;stroke-linecap:square;stroke-linejoin:miter;stroke-width:1.25;"/>
   </g>
   <g id="patch_12">
    <path d="M 668.169858 297.20625 
L 1124.715312 297.20625 
" style="fill:none;stroke:#cccccc;stroke-linecap:square;stroke-linejoin:miter;stroke-width:1.25;"/>
   </g>
   <g id="patch_13">
    <path d="M 668.169858 25.40625 
L 1124.715312 25.40625 
" style="fill:none;stroke:#cccccc;stroke-linecap:square;stroke-linejoin:miter;stroke-width:1.25;"/>
   </g>
   <g id="text_22">
    <!-- query batch = 10000 -->
    <g style="fill:#262626;" transform="translate(681.671776 282.324047)scale(0.27 -0.27)">
     <use xlink:href="#ArialMT-113"/>
     <use x="55.615234" xlink:href="#ArialMT-117"/>
     <use x="111.230469" xlink:href="#ArialMT-101"/>
     <use x="166.845703" xlink:href="#ArialMT-114"/>
     <use x="200.146484" xlink:href="#ArialMT-121"/>
     <use x="250.146484" xlink:href="#ArialMT-32"/>
     <use x="277.929688" xlink:href="#ArialMT-98"/>
     <use x="333.544922" xlink:href="#ArialMT-97"/>
     <use x="389.160156" xlink:href="#ArialMT-116"/>
     <use x="416.943359" xlink:href="#ArialMT-99"/>
     <use x="466.943359" xlink:href="#ArialMT-104"/>
     <use x="522.558594" xlink:href="#ArialMT-32"/>
     <use x="550.341797" xlink:href="#ArialMT-61"/>
     <use x="608.740234" xlink:href="#ArialMT-32"/>
     <use x="636.523438" xlink:href="#ArialMT-49"/>
     <use x="692.138672" xlink:href="#ArialMT-48"/>
     <use x="747.753906" xlink:href="#ArialMT-48"/>
     <use x="803.369141" xlink:href="#ArialMT-48"/>
     <use x="858.984375" xlink:href="#ArialMT-48"/>
    </g>
   </g>
   <g id="text_23">
    <g id="patch_14">
     <path d="M 864.055625 29.138906 
L 1128.765312 29.138906 
L 1128.765312 -4.05 
L 864.055625 -4.05 
z
" style="fill:#ffffff;stroke:#ffffff;stroke-linejoin:miter;"/>
    </g>
    <!-- open-images-512-1M -->
    <g style="fill:#262626;" transform="translate(868.105625 19.40625)scale(0.27 -0.27)">
     <use xlink:href="#ArialMT-111"/>
     <use x="55.615234" xlink:href="#ArialMT-112"/>
     <use x="111.230469" xlink:href="#ArialMT-101"/>
     <use x="166.845703" xlink:href="#ArialMT-110"/>
     <use x="222.460938" xlink:href="#ArialMT-45"/>
     <use x="255.761719" xlink:href="#ArialMT-105"/>
     <use x="277.978516" xlink:href="#ArialMT-109"/>
     <use x="361.279297" xlink:href="#ArialMT-97"/>
     <use x="416.894531" xlink:href="#ArialMT-103"/>
     <use x="472.509766" xlink:href="#ArialMT-101"/>
     <use x="528.125" xlink:href="#ArialMT-115"/>
     <use x="578.125" xlink:href="#ArialMT-45"/>
     <use x="611.425781" xlink:href="#ArialMT-53"/>
     <use x="667.041016" xlink:href="#ArialMT-49"/>
     <use x="722.65625" xlink:href="#ArialMT-50"/>
     <use x="778.271484" xlink:href="#ArialMT-45"/>
     <use x="811.572266" xlink:href="#ArialMT-49"/>
     <use x="867.1875" xlink:href="#ArialMT-77"/>
    </g>
   </g>
   <g id="legend_2"/>
  </g>
 </g>
 <defs>
  <clipPath id="pc60fe6a41c">
   <rect height="271.8" width="456.545455" x="120.315313" y="25.40625"/>
  </clipPath>
  <clipPath id="p7442877863">
   <rect height="271.8" width="456.545455" x="668.169858" y="25.40625"/>
  </clipPath>
 </defs>
</svg>
