<?xml version="1.0" encoding="utf-8" standalone="no"?>
<!--
  ~ Copyright (C) 2024 Intel Corporation
  ~
  ~ This software and the related documents are Intel copyrighted materials,
  ~ and your use of them is governed by the express license under which they
  ~ were provided to you ("License"). Unless the License provides otherwise,
  ~ you may not use, modify, copy, publish, distribute, disclose or transmit
  ~ this software or the related documents without Intel's prior written
  ~ permission.
  ~
  ~ This software and the related documents are provided as is, with no
  ~ express or implied warranties, other than those that are expressly stated
  ~ in the License.
-->

<!DOCTYPE svg PUBLIC "-//W3C//DTD SVG 1.1//EN"
  "http://www.w3.org/Graphics/SVG/1.1/DTD/svg11.dtd">
<!-- Created with matplotlib (https://matplotlib.org/) -->
<svg height="420.10625pt" version="1.1" viewBox="0 0 1129.304446 420.10625" width="1129.304446pt" xmlns="http://www.w3.org/2000/svg" xmlns:xlink="http://www.w3.org/1999/xlink">
 <metadata>
  <rdf:RDF xmlns:cc="http://creativecommons.org/ns#" xmlns:dc="http://purl.org/dc/elements/1.1/" xmlns:rdf="http://www.w3.org/1999/02/22-rdf-syntax-ns#">
   <cc:Work>
    <dc:type rdf:resource="http://purl.org/dc/dcmitype/StillImage"/>
    <dc:date>2024-04-03T12:24:34.603265</dc:date>
    <dc:format>image/svg+xml</dc:format>
    <dc:creator>
     <cc:Agent>
      <dc:title>Matplotlib v3.3.2, https://matplotlib.org/</dc:title>
     </cc:Agent>
    </dc:creator>
   </cc:Work>
  </rdf:RDF>
 </metadata>
 <defs>
  <style type="text/css">*{stroke-linecap:butt;stroke-linejoin:round;}</style>
 </defs>
 <g id="figure_1">
  <g id="patch_1">
   <path d="M -0 420.10625 
L 1129.304446 420.10625 
L 1129.304446 0 
L -0 0 
z
" style="fill:#ffffff;"/>
  </g>
  <g id="axes_1">
   <g id="patch_2">
    <path d="M 120.315313 297.20625 
L 576.860767 297.20625 
L 576.860767 25.40625 
L 120.315313 25.40625 
z
" style="fill:#ffffff;"/>
   </g>
   <g id="matplotlib.axis_1">
    <g id="xtick_1">
     <g id="line2d_1">
      <path clip-path="url(#pb73eb9ad5f)" d="M 136.34456 297.20625 
L 136.34456 25.40625 
" style="fill:none;stroke:#cccccc;stroke-linecap:round;"/>
     </g>
     <g id="text_1">
      <!-- 0.80 -->
      <g style="fill:#262626;" transform="translate(111.045341 325.316563)scale(0.26 -0.26)">
       <defs>
        <path d="M 4.15625 35.296875 
Q 4.15625 48 6.765625 55.734375 
Q 9.375 63.484375 14.515625 67.671875 
Q 19.671875 71.875 27.484375 71.875 
Q 33.25 71.875 37.59375 69.546875 
Q 41.9375 67.234375 44.765625 62.859375 
Q 47.609375 58.5 49.21875 52.21875 
Q 50.828125 45.953125 50.828125 35.296875 
Q 50.828125 22.703125 48.234375 14.96875 
Q 45.65625 7.234375 40.5 3 
Q 35.359375 -1.21875 27.484375 -1.21875 
Q 17.140625 -1.21875 11.234375 6.203125 
Q 4.15625 15.140625 4.15625 35.296875 
z
M 13.1875 35.296875 
Q 13.1875 17.671875 17.3125 11.828125 
Q 21.4375 6 27.484375 6 
Q 33.546875 6 37.671875 11.859375 
Q 41.796875 17.71875 41.796875 35.296875 
Q 41.796875 52.984375 37.671875 58.78125 
Q 33.546875 64.59375 27.390625 64.59375 
Q 21.34375 64.59375 17.71875 59.46875 
Q 13.1875 52.9375 13.1875 35.296875 
z
" id="ArialMT-48"/>
        <path d="M 9.078125 0 
L 9.078125 10.015625 
L 19.09375 10.015625 
L 19.09375 0 
z
" id="ArialMT-46"/>
        <path d="M 17.671875 38.8125 
Q 12.203125 40.828125 9.5625 44.53125 
Q 6.9375 48.25 6.9375 53.421875 
Q 6.9375 61.234375 12.546875 66.546875 
Q 18.171875 71.875 27.484375 71.875 
Q 36.859375 71.875 42.578125 66.421875 
Q 48.296875 60.984375 48.296875 53.171875 
Q 48.296875 48.1875 45.671875 44.5 
Q 43.0625 40.828125 37.75 38.8125 
Q 44.34375 36.671875 47.78125 31.875 
Q 51.21875 27.09375 51.21875 20.453125 
Q 51.21875 11.28125 44.71875 5.03125 
Q 38.234375 -1.21875 27.640625 -1.21875 
Q 17.046875 -1.21875 10.546875 5.046875 
Q 4.046875 11.328125 4.046875 20.703125 
Q 4.046875 27.6875 7.59375 32.390625 
Q 11.140625 37.109375 17.671875 38.8125 
z
M 15.921875 53.71875 
Q 15.921875 48.640625 19.1875 45.40625 
Q 22.46875 42.1875 27.6875 42.1875 
Q 32.765625 42.1875 36.015625 45.375 
Q 39.265625 48.578125 39.265625 53.21875 
Q 39.265625 58.0625 35.90625 61.359375 
Q 32.5625 64.65625 27.59375 64.65625 
Q 22.5625 64.65625 19.234375 61.421875 
Q 15.921875 58.203125 15.921875 53.71875 
z
M 13.09375 20.65625 
Q 13.09375 16.890625 14.875 13.375 
Q 16.65625 9.859375 20.171875 7.921875 
Q 23.6875 6 27.734375 6 
Q 34.03125 6 38.125 10.046875 
Q 42.234375 14.109375 42.234375 20.359375 
Q 42.234375 26.703125 38.015625 30.859375 
Q 33.796875 35.015625 27.4375 35.015625 
Q 21.234375 35.015625 17.15625 30.90625 
Q 13.09375 26.8125 13.09375 20.65625 
z
" id="ArialMT-56"/>
       </defs>
       <use xlink:href="#ArialMT-48"/>
       <use x="55.615234" xlink:href="#ArialMT-46"/>
       <use x="83.398438" xlink:href="#ArialMT-56"/>
       <use x="139.013672" xlink:href="#ArialMT-48"/>
      </g>
     </g>
    </g>
    <g id="xtick_2">
     <g id="line2d_2">
      <path clip-path="url(#pb73eb9ad5f)" d="M 241.29609 297.20625 
L 241.29609 25.40625 
" style="fill:none;stroke:#cccccc;stroke-linecap:round;"/>
     </g>
     <g id="text_2">
      <!-- 0.85 -->
      <g style="fill:#262626;" transform="translate(215.996871 325.316563)scale(0.26 -0.26)">
       <defs>
        <path d="M 4.15625 18.75 
L 13.375 19.53125 
Q 14.40625 12.796875 18.140625 9.390625 
Q 21.875 6 27.15625 6 
Q 33.5 6 37.890625 10.78125 
Q 42.28125 15.578125 42.28125 23.484375 
Q 42.28125 31 38.0625 35.34375 
Q 33.84375 39.703125 27 39.703125 
Q 22.75 39.703125 19.328125 37.765625 
Q 15.921875 35.84375 13.96875 32.765625 
L 5.71875 33.84375 
L 12.640625 70.609375 
L 48.25 70.609375 
L 48.25 62.203125 
L 19.671875 62.203125 
L 15.828125 42.96875 
Q 22.265625 47.46875 29.34375 47.46875 
Q 38.71875 47.46875 45.15625 40.96875 
Q 51.609375 34.46875 51.609375 24.265625 
Q 51.609375 14.546875 45.953125 7.46875 
Q 39.0625 -1.21875 27.15625 -1.21875 
Q 17.390625 -1.21875 11.203125 4.25 
Q 5.03125 9.71875 4.15625 18.75 
z
" id="ArialMT-53"/>
       </defs>
       <use xlink:href="#ArialMT-48"/>
       <use x="55.615234" xlink:href="#ArialMT-46"/>
       <use x="83.398438" xlink:href="#ArialMT-56"/>
       <use x="139.013672" xlink:href="#ArialMT-53"/>
      </g>
     </g>
    </g>
    <g id="xtick_3">
     <g id="line2d_3">
      <path clip-path="url(#pb73eb9ad5f)" d="M 346.247621 297.20625 
L 346.247621 25.40625 
" style="fill:none;stroke:#cccccc;stroke-linecap:round;"/>
     </g>
     <g id="text_3">
      <!-- 0.90 -->
      <g style="fill:#262626;" transform="translate(320.948402 325.316563)scale(0.26 -0.26)">
       <defs>
        <path d="M 5.46875 16.546875 
L 13.921875 17.328125 
Q 14.984375 11.375 18.015625 8.6875 
Q 21.046875 6 25.78125 6 
Q 29.828125 6 32.875 7.859375 
Q 35.9375 9.71875 37.890625 12.8125 
Q 39.84375 15.921875 41.15625 21.1875 
Q 42.484375 26.46875 42.484375 31.9375 
Q 42.484375 32.515625 42.4375 33.6875 
Q 39.796875 29.5 35.234375 26.875 
Q 30.671875 24.265625 25.34375 24.265625 
Q 16.453125 24.265625 10.296875 30.703125 
Q 4.15625 37.15625 4.15625 47.703125 
Q 4.15625 58.59375 10.578125 65.234375 
Q 17 71.875 26.65625 71.875 
Q 33.640625 71.875 39.421875 68.109375 
Q 45.21875 64.359375 48.21875 57.390625 
Q 51.21875 50.4375 51.21875 37.25 
Q 51.21875 23.53125 48.234375 15.40625 
Q 45.265625 7.28125 39.375 3.03125 
Q 33.5 -1.21875 25.59375 -1.21875 
Q 17.1875 -1.21875 11.859375 3.4375 
Q 6.546875 8.109375 5.46875 16.546875 
z
M 41.453125 48.140625 
Q 41.453125 55.71875 37.421875 60.15625 
Q 33.40625 64.59375 27.734375 64.59375 
Q 21.875 64.59375 17.53125 59.8125 
Q 13.1875 55.03125 13.1875 47.40625 
Q 13.1875 40.578125 17.3125 36.296875 
Q 21.4375 32.03125 27.484375 32.03125 
Q 33.59375 32.03125 37.515625 36.296875 
Q 41.453125 40.578125 41.453125 48.140625 
z
" id="ArialMT-57"/>
       </defs>
       <use xlink:href="#ArialMT-48"/>
       <use x="55.615234" xlink:href="#ArialMT-46"/>
       <use x="83.398438" xlink:href="#ArialMT-57"/>
       <use x="139.013672" xlink:href="#ArialMT-48"/>
      </g>
     </g>
    </g>
    <g id="xtick_4">
     <g id="line2d_4">
      <path clip-path="url(#pb73eb9ad5f)" d="M 451.199151 297.20625 
L 451.199151 25.40625 
" style="fill:none;stroke:#cccccc;stroke-linecap:round;"/>
     </g>
     <g id="text_4">
      <!-- 0.95 -->
      <g style="fill:#262626;" transform="translate(425.899932 325.316563)scale(0.26 -0.26)">
       <use xlink:href="#ArialMT-48"/>
       <use x="55.615234" xlink:href="#ArialMT-46"/>
       <use x="83.398438" xlink:href="#ArialMT-57"/>
       <use x="139.013672" xlink:href="#ArialMT-53"/>
      </g>
     </g>
    </g>
    <g id="xtick_5">
     <g id="line2d_5">
      <path clip-path="url(#pb73eb9ad5f)" d="M 556.150682 297.20625 
L 556.150682 25.40625 
" style="fill:none;stroke:#cccccc;stroke-linecap:round;"/>
     </g>
     <g id="text_5">
      <!-- 1.00 -->
      <g style="fill:#262626;" transform="translate(530.851463 325.316563)scale(0.26 -0.26)">
       <defs>
        <path d="M 37.25 0 
L 28.46875 0 
L 28.46875 56 
Q 25.296875 52.984375 20.140625 49.953125 
Q 14.984375 46.921875 10.890625 45.40625 
L 10.890625 53.90625 
Q 18.265625 57.375 23.78125 62.296875 
Q 29.296875 67.234375 31.59375 71.875 
L 37.25 71.875 
z
" id="ArialMT-49"/>
       </defs>
       <use xlink:href="#ArialMT-49"/>
       <use x="55.615234" xlink:href="#ArialMT-46"/>
       <use x="83.398438" xlink:href="#ArialMT-48"/>
       <use x="139.013672" xlink:href="#ArialMT-48"/>
      </g>
     </g>
    </g>
    <g id="text_6">
     <!-- 10 recall@10 -->
     <g style="fill:#262626;" transform="translate(271.798665 353.439688)scale(0.26 -0.26)">
      <defs>
       <path id="ArialMT-32"/>
       <path d="M 6.5 0 
L 6.5 51.859375 
L 14.40625 51.859375 
L 14.40625 44 
Q 17.4375 49.515625 20 51.265625 
Q 22.5625 53.03125 25.640625 53.03125 
Q 30.078125 53.03125 34.671875 50.203125 
L 31.640625 42.046875 
Q 28.421875 43.953125 25.203125 43.953125 
Q 22.3125 43.953125 20.015625 42.21875 
Q 17.71875 40.484375 16.75 37.40625 
Q 15.28125 32.71875 15.28125 27.15625 
L 15.28125 0 
z
" id="ArialMT-114"/>
       <path d="M 42.09375 16.703125 
L 51.171875 15.578125 
Q 49.03125 7.625 43.21875 3.21875 
Q 37.40625 -1.171875 28.375 -1.171875 
Q 17 -1.171875 10.328125 5.828125 
Q 3.65625 12.84375 3.65625 25.484375 
Q 3.65625 38.578125 10.390625 45.796875 
Q 17.140625 53.03125 27.875 53.03125 
Q 38.28125 53.03125 44.875 45.953125 
Q 51.46875 38.875 51.46875 26.03125 
Q 51.46875 25.25 51.421875 23.6875 
L 12.75 23.6875 
Q 13.234375 15.140625 17.578125 10.59375 
Q 21.921875 6.0625 28.421875 6.0625 
Q 33.25 6.0625 36.671875 8.59375 
Q 40.09375 11.140625 42.09375 16.703125 
z
M 13.234375 30.90625 
L 42.1875 30.90625 
Q 41.609375 37.453125 38.875 40.71875 
Q 34.671875 45.796875 27.984375 45.796875 
Q 21.921875 45.796875 17.796875 41.75 
Q 13.671875 37.703125 13.234375 30.90625 
z
" id="ArialMT-101"/>
       <path d="M 40.4375 19 
L 49.078125 17.875 
Q 47.65625 8.9375 41.8125 3.875 
Q 35.984375 -1.171875 27.484375 -1.171875 
Q 16.84375 -1.171875 10.375 5.78125 
Q 3.90625 12.75 3.90625 25.734375 
Q 3.90625 34.125 6.6875 40.421875 
Q 9.46875 46.734375 15.15625 49.875 
Q 20.84375 53.03125 27.546875 53.03125 
Q 35.984375 53.03125 41.359375 48.75 
Q 46.734375 44.484375 48.25 36.625 
L 39.703125 35.296875 
Q 38.484375 40.53125 35.375 43.15625 
Q 32.28125 45.796875 27.875 45.796875 
Q 21.234375 45.796875 17.078125 41.03125 
Q 12.9375 36.28125 12.9375 25.984375 
Q 12.9375 15.53125 16.9375 10.796875 
Q 20.953125 6.0625 27.390625 6.0625 
Q 32.5625 6.0625 36.03125 9.234375 
Q 39.5 12.40625 40.4375 19 
z
" id="ArialMT-99"/>
       <path d="M 40.4375 6.390625 
Q 35.546875 2.25 31.03125 0.53125 
Q 26.515625 -1.171875 21.34375 -1.171875 
Q 12.796875 -1.171875 8.203125 3 
Q 3.609375 7.171875 3.609375 13.671875 
Q 3.609375 17.484375 5.34375 20.625 
Q 7.078125 23.78125 9.890625 25.6875 
Q 12.703125 27.59375 16.21875 28.5625 
Q 18.796875 29.25 24.03125 29.890625 
Q 34.671875 31.15625 39.703125 32.90625 
Q 39.75 34.71875 39.75 35.203125 
Q 39.75 40.578125 37.25 42.78125 
Q 33.890625 45.75 27.25 45.75 
Q 21.046875 45.75 18.09375 43.578125 
Q 15.140625 41.40625 13.71875 35.890625 
L 5.125 37.0625 
Q 6.296875 42.578125 8.984375 45.96875 
Q 11.671875 49.359375 16.75 51.1875 
Q 21.828125 53.03125 28.515625 53.03125 
Q 35.15625 53.03125 39.296875 51.46875 
Q 43.453125 49.90625 45.40625 47.53125 
Q 47.359375 45.171875 48.140625 41.546875 
Q 48.578125 39.3125 48.578125 33.453125 
L 48.578125 21.734375 
Q 48.578125 9.46875 49.140625 6.21875 
Q 49.703125 2.984375 51.375 0 
L 42.1875 0 
Q 40.828125 2.734375 40.4375 6.390625 
z
M 39.703125 26.03125 
Q 34.90625 24.078125 25.34375 22.703125 
Q 19.921875 21.921875 17.671875 20.9375 
Q 15.4375 19.96875 14.203125 18.09375 
Q 12.984375 16.21875 12.984375 13.921875 
Q 12.984375 10.40625 15.640625 8.0625 
Q 18.3125 5.71875 23.4375 5.71875 
Q 28.515625 5.71875 32.46875 7.9375 
Q 36.421875 10.15625 38.28125 14.015625 
Q 39.703125 17 39.703125 22.796875 
z
" id="ArialMT-97"/>
       <path d="M 6.390625 0 
L 6.390625 71.578125 
L 15.1875 71.578125 
L 15.1875 0 
z
" id="ArialMT-108"/>
       <path d="M 56.6875 7.953125 
Q 53.515625 4.296875 49.578125 2.078125 
Q 45.65625 -0.140625 41.703125 -0.140625 
Q 37.359375 -0.140625 33.25 2.390625 
Q 29.15625 4.9375 26.59375 10.203125 
Q 24.03125 15.484375 24.03125 21.78125 
Q 24.03125 29.546875 28 37.328125 
Q 31.984375 45.125 37.890625 49.03125 
Q 43.796875 52.9375 49.359375 52.9375 
Q 53.609375 52.9375 57.46875 50.703125 
Q 61.328125 48.484375 64.109375 43.953125 
L 65.765625 51.515625 
L 74.515625 51.515625 
L 67.484375 18.75 
Q 66.015625 11.921875 66.015625 11.1875 
Q 66.015625 9.859375 67.015625 8.90625 
Q 68.015625 7.953125 69.4375 7.953125 
Q 72.015625 7.953125 76.21875 10.9375 
Q 81.78125 14.84375 85.03125 21.40625 
Q 88.28125 27.984375 88.28125 34.96875 
Q 88.28125 43.109375 84.109375 50.1875 
Q 79.9375 57.28125 71.65625 61.515625 
Q 63.375 65.765625 53.375 65.765625 
Q 41.9375 65.765625 32.484375 60.421875 
Q 23.046875 55.078125 17.84375 45.09375 
Q 12.640625 35.109375 12.640625 23.6875 
Q 12.640625 11.71875 17.84375 3.078125 
Q 23.046875 -5.5625 32.875 -9.6875 
Q 42.71875 -13.8125 54.6875 -13.8125 
Q 67.484375 -13.8125 76.125 -9.515625 
Q 84.765625 -5.21875 89.0625 0.921875 
L 97.90625 0.921875 
Q 95.40625 -4.203125 89.34375 -9.515625 
Q 83.296875 -14.84375 74.953125 -17.9375 
Q 66.609375 -21.046875 54.828125 -21.046875 
Q 44 -21.046875 34.84375 -18.265625 
Q 25.6875 -15.484375 19.234375 -9.890625 
Q 12.796875 -4.296875 9.515625 2.984375 
Q 5.421875 12.203125 5.421875 22.90625 
Q 5.421875 34.8125 10.296875 45.609375 
Q 16.265625 58.84375 27.21875 65.875 
Q 38.1875 72.90625 53.8125 72.90625 
Q 65.921875 72.90625 75.5625 67.9375 
Q 85.203125 62.984375 90.765625 53.171875 
Q 95.515625 44.734375 95.515625 34.8125 
Q 95.515625 20.65625 85.546875 9.671875 
Q 76.65625 -0.203125 66.109375 -0.203125 
Q 62.75 -0.203125 60.671875 0.828125 
Q 58.59375 1.859375 57.625 3.765625 
Q 56.984375 4.984375 56.6875 7.953125 
z
M 33.0625 21.1875 
Q 33.0625 14.5 36.234375 10.78125 
Q 39.40625 7.078125 43.5 7.078125 
Q 46.234375 7.078125 49.265625 8.71875 
Q 52.296875 10.359375 55.046875 13.578125 
Q 57.8125 16.796875 59.5625 21.75 
Q 61.328125 26.703125 61.328125 31.6875 
Q 61.328125 38.328125 58.03125 41.984375 
Q 54.734375 45.65625 50 45.65625 
Q 46.875 45.65625 44.109375 44.0625 
Q 41.359375 42.484375 38.765625 38.96875 
Q 36.1875 35.453125 34.625 30.421875 
Q 33.0625 25.390625 33.0625 21.1875 
z
" id="ArialMT-64"/>
      </defs>
      <use xlink:href="#ArialMT-49"/>
      <use x="55.615234" xlink:href="#ArialMT-48"/>
      <use x="111.230469" xlink:href="#ArialMT-32"/>
      <use x="139.013672" xlink:href="#ArialMT-114"/>
      <use x="172.314453" xlink:href="#ArialMT-101"/>
      <use x="227.929688" xlink:href="#ArialMT-99"/>
      <use x="277.929688" xlink:href="#ArialMT-97"/>
      <use x="333.544922" xlink:href="#ArialMT-108"/>
      <use x="355.761719" xlink:href="#ArialMT-108"/>
      <use x="377.978516" xlink:href="#ArialMT-64"/>
      <use x="479.492188" xlink:href="#ArialMT-49"/>
      <use x="535.107422" xlink:href="#ArialMT-48"/>
     </g>
    </g>
   </g>
   <g id="matplotlib.axis_2">
    <g id="ytick_1">
     <g id="line2d_6">
      <path clip-path="url(#pb73eb9ad5f)" d="M 120.315313 255.240729 
L 576.860767 255.240729 
" style="fill:none;stroke:#cccccc;stroke-linecap:round;"/>
     </g>
     <g id="text_7">
      <!-- 10K -->
      <g style="fill:#262626;" transform="translate(64.555625 264.545886)scale(0.26 -0.26)">
       <defs>
        <path d="M 7.328125 0 
L 7.328125 71.578125 
L 16.796875 71.578125 
L 16.796875 36.078125 
L 52.34375 71.578125 
L 65.1875 71.578125 
L 35.15625 42.578125 
L 66.5 0 
L 54 0 
L 28.515625 36.234375 
L 16.796875 24.8125 
L 16.796875 0 
z
" id="ArialMT-75"/>
       </defs>
       <use xlink:href="#ArialMT-49"/>
       <use x="55.615234" xlink:href="#ArialMT-48"/>
       <use x="111.230469" xlink:href="#ArialMT-75"/>
      </g>
     </g>
    </g>
    <g id="ytick_2">
     <g id="line2d_7">
      <path clip-path="url(#pb73eb9ad5f)" d="M 120.315313 168.975122 
L 576.860767 168.975122 
" style="fill:none;stroke:#cccccc;stroke-linecap:round;"/>
     </g>
     <g id="text_8">
      <!-- 100K -->
      <g style="fill:#262626;" transform="translate(50.097188 178.280278)scale(0.26 -0.26)">
       <use xlink:href="#ArialMT-49"/>
       <use x="55.615234" xlink:href="#ArialMT-48"/>
       <use x="111.230469" xlink:href="#ArialMT-48"/>
       <use x="166.845703" xlink:href="#ArialMT-75"/>
      </g>
     </g>
    </g>
    <g id="ytick_3">
     <g id="line2d_8">
      <path clip-path="url(#pb73eb9ad5f)" d="M 120.315313 82.709515 
L 576.860767 82.709515 
" style="fill:none;stroke:#cccccc;stroke-linecap:round;"/>
     </g>
     <g id="text_9">
      <!-- 1,000K -->
      <g style="fill:#262626;" transform="translate(28.415625 92.014671)scale(0.26 -0.26)">
       <defs>
        <path d="M 8.890625 0 
L 8.890625 10.015625 
L 18.890625 10.015625 
L 18.890625 0 
Q 18.890625 -5.515625 16.9375 -8.90625 
Q 14.984375 -12.3125 10.75 -14.15625 
L 8.296875 -10.40625 
Q 11.078125 -9.1875 12.390625 -6.8125 
Q 13.71875 -4.4375 13.875 0 
z
" id="ArialMT-44"/>
       </defs>
       <use xlink:href="#ArialMT-49"/>
       <use x="55.615234" xlink:href="#ArialMT-44"/>
       <use x="83.398438" xlink:href="#ArialMT-48"/>
       <use x="139.013672" xlink:href="#ArialMT-48"/>
       <use x="194.628906" xlink:href="#ArialMT-48"/>
       <use x="250.244141" xlink:href="#ArialMT-75"/>
      </g>
     </g>
    </g>
    <g id="ytick_4"/>
    <g id="ytick_5"/>
    <g id="ytick_6"/>
    <g id="ytick_7"/>
    <g id="ytick_8"/>
    <g id="ytick_9"/>
    <g id="ytick_10"/>
    <g id="ytick_11"/>
    <g id="ytick_12"/>
    <g id="ytick_13"/>
    <g id="ytick_14"/>
    <g id="ytick_15"/>
    <g id="ytick_16"/>
    <g id="ytick_17"/>
    <g id="ytick_18"/>
    <g id="ytick_19"/>
    <g id="ytick_20"/>
    <g id="ytick_21"/>
    <g id="ytick_22"/>
    <g id="ytick_23"/>
    <g id="ytick_24"/>
    <g id="ytick_25"/>
    <g id="ytick_26"/>
    <g id="ytick_27"/>
    <g id="ytick_28"/>
    <g id="text_10">
     <!-- throughput (QPS) -->
     <g style="fill:#262626;" transform="translate(18.943437 263.185625)rotate(-90)scale(0.26 -0.26)">
      <defs>
       <path d="M 25.78125 7.859375 
L 27.046875 0.09375 
Q 23.34375 -0.6875 20.40625 -0.6875 
Q 15.625 -0.6875 12.984375 0.828125 
Q 10.359375 2.34375 9.28125 4.8125 
Q 8.203125 7.28125 8.203125 15.1875 
L 8.203125 45.015625 
L 1.765625 45.015625 
L 1.765625 51.859375 
L 8.203125 51.859375 
L 8.203125 64.703125 
L 16.9375 69.96875 
L 16.9375 51.859375 
L 25.78125 51.859375 
L 25.78125 45.015625 
L 16.9375 45.015625 
L 16.9375 14.703125 
Q 16.9375 10.9375 17.40625 9.859375 
Q 17.875 8.796875 18.921875 8.15625 
Q 19.96875 7.515625 21.921875 7.515625 
Q 23.390625 7.515625 25.78125 7.859375 
z
" id="ArialMT-116"/>
       <path d="M 6.59375 0 
L 6.59375 71.578125 
L 15.375 71.578125 
L 15.375 45.90625 
Q 21.53125 53.03125 30.90625 53.03125 
Q 36.671875 53.03125 40.921875 50.75 
Q 45.171875 48.484375 47 44.484375 
Q 48.828125 40.484375 48.828125 32.859375 
L 48.828125 0 
L 40.046875 0 
L 40.046875 32.859375 
Q 40.046875 39.453125 37.1875 42.453125 
Q 34.328125 45.453125 29.109375 45.453125 
Q 25.203125 45.453125 21.75 43.421875 
Q 18.3125 41.40625 16.84375 37.9375 
Q 15.375 34.46875 15.375 28.375 
L 15.375 0 
z
" id="ArialMT-104"/>
       <path d="M 3.328125 25.921875 
Q 3.328125 40.328125 11.328125 47.265625 
Q 18.015625 53.03125 27.640625 53.03125 
Q 38.328125 53.03125 45.109375 46.015625 
Q 51.90625 39.015625 51.90625 26.65625 
Q 51.90625 16.65625 48.90625 10.90625 
Q 45.90625 5.171875 40.15625 2 
Q 34.421875 -1.171875 27.640625 -1.171875 
Q 16.75 -1.171875 10.03125 5.8125 
Q 3.328125 12.796875 3.328125 25.921875 
z
M 12.359375 25.921875 
Q 12.359375 15.96875 16.703125 11.015625 
Q 21.046875 6.0625 27.640625 6.0625 
Q 34.1875 6.0625 38.53125 11.03125 
Q 42.875 16.015625 42.875 26.21875 
Q 42.875 35.84375 38.5 40.796875 
Q 34.125 45.75 27.640625 45.75 
Q 21.046875 45.75 16.703125 40.8125 
Q 12.359375 35.890625 12.359375 25.921875 
z
" id="ArialMT-111"/>
       <path d="M 40.578125 0 
L 40.578125 7.625 
Q 34.515625 -1.171875 24.125 -1.171875 
Q 19.53125 -1.171875 15.546875 0.578125 
Q 11.578125 2.34375 9.640625 5 
Q 7.71875 7.671875 6.9375 11.53125 
Q 6.390625 14.109375 6.390625 19.734375 
L 6.390625 51.859375 
L 15.1875 51.859375 
L 15.1875 23.09375 
Q 15.1875 16.21875 15.71875 13.8125 
Q 16.546875 10.359375 19.234375 8.375 
Q 21.921875 6.390625 25.875 6.390625 
Q 29.828125 6.390625 33.296875 8.421875 
Q 36.765625 10.453125 38.203125 13.9375 
Q 39.65625 17.4375 39.65625 24.078125 
L 39.65625 51.859375 
L 48.4375 51.859375 
L 48.4375 0 
z
" id="ArialMT-117"/>
       <path d="M 4.984375 -4.296875 
L 13.53125 -5.5625 
Q 14.0625 -9.515625 16.5 -11.328125 
Q 19.78125 -13.765625 25.4375 -13.765625 
Q 31.546875 -13.765625 34.859375 -11.328125 
Q 38.1875 -8.890625 39.359375 -4.5 
Q 40.046875 -1.8125 39.984375 6.78125 
Q 34.234375 0 25.640625 0 
Q 14.9375 0 9.078125 7.71875 
Q 3.21875 15.4375 3.21875 26.21875 
Q 3.21875 33.640625 5.90625 39.90625 
Q 8.59375 46.1875 13.6875 49.609375 
Q 18.796875 53.03125 25.6875 53.03125 
Q 34.859375 53.03125 40.828125 45.609375 
L 40.828125 51.859375 
L 48.921875 51.859375 
L 48.921875 7.03125 
Q 48.921875 -5.078125 46.453125 -10.125 
Q 44 -15.1875 38.640625 -18.109375 
Q 33.296875 -21.046875 25.484375 -21.046875 
Q 16.21875 -21.046875 10.5 -16.875 
Q 4.78125 -12.703125 4.984375 -4.296875 
z
M 12.25 26.859375 
Q 12.25 16.65625 16.296875 11.96875 
Q 20.359375 7.28125 26.46875 7.28125 
Q 32.515625 7.28125 36.609375 11.9375 
Q 40.71875 16.609375 40.71875 26.5625 
Q 40.71875 36.078125 36.5 40.90625 
Q 32.28125 45.75 26.3125 45.75 
Q 20.453125 45.75 16.34375 40.984375 
Q 12.25 36.234375 12.25 26.859375 
z
" id="ArialMT-103"/>
       <path d="M 6.59375 -19.875 
L 6.59375 51.859375 
L 14.59375 51.859375 
L 14.59375 45.125 
Q 17.4375 49.078125 21 51.046875 
Q 24.5625 53.03125 29.640625 53.03125 
Q 36.28125 53.03125 41.359375 49.609375 
Q 46.4375 46.1875 49.015625 39.953125 
Q 51.609375 33.734375 51.609375 26.3125 
Q 51.609375 18.359375 48.75 11.984375 
Q 45.90625 5.609375 40.453125 2.21875 
Q 35.015625 -1.171875 29 -1.171875 
Q 24.609375 -1.171875 21.109375 0.6875 
Q 17.625 2.546875 15.375 5.375 
L 15.375 -19.875 
z
M 14.546875 25.640625 
Q 14.546875 15.625 18.59375 10.84375 
Q 22.65625 6.0625 28.421875 6.0625 
Q 34.28125 6.0625 38.453125 11.015625 
Q 42.625 15.96875 42.625 26.375 
Q 42.625 36.28125 38.546875 41.203125 
Q 34.46875 46.140625 28.8125 46.140625 
Q 23.1875 46.140625 18.859375 40.890625 
Q 14.546875 35.640625 14.546875 25.640625 
z
" id="ArialMT-112"/>
       <path d="M 23.390625 -21.046875 
Q 16.109375 -11.859375 11.078125 0.4375 
Q 6.0625 12.75 6.0625 25.921875 
Q 6.0625 37.546875 9.8125 48.1875 
Q 14.203125 60.546875 23.390625 72.796875 
L 29.6875 72.796875 
Q 23.78125 62.640625 21.875 58.296875 
Q 18.890625 51.5625 17.1875 44.234375 
Q 15.09375 35.109375 15.09375 25.875 
Q 15.09375 2.390625 29.6875 -21.046875 
z
" id="ArialMT-40"/>
       <path d="M 61.96875 7.671875 
Q 68.5625 3.125 74.125 1.03125 
L 71.34375 -5.5625 
Q 63.625 -2.78125 55.953125 3.21875 
Q 48 -1.21875 38.375 -1.21875 
Q 28.65625 -1.21875 20.75 3.46875 
Q 12.84375 8.15625 8.5625 16.640625 
Q 4.296875 25.140625 4.296875 35.796875 
Q 4.296875 46.390625 8.59375 55.078125 
Q 12.890625 63.765625 20.828125 68.3125 
Q 28.765625 72.859375 38.578125 72.859375 
Q 48.484375 72.859375 56.4375 68.140625 
Q 64.40625 63.421875 68.578125 54.953125 
Q 72.75 46.484375 72.75 35.84375 
Q 72.75 27 70.0625 19.9375 
Q 67.390625 12.890625 61.96875 7.671875 
z
M 41.109375 19.78125 
Q 49.3125 17.484375 54.640625 12.9375 
Q 62.984375 20.5625 62.984375 35.84375 
Q 62.984375 44.53125 60.03125 51.015625 
Q 57.078125 57.515625 51.390625 61.109375 
Q 45.703125 64.703125 38.625 64.703125 
Q 28.03125 64.703125 21.046875 57.453125 
Q 14.0625 50.203125 14.0625 35.796875 
Q 14.0625 21.828125 20.96875 14.359375 
Q 27.875 6.890625 38.625 6.890625 
Q 43.703125 6.890625 48.1875 8.796875 
Q 43.75 11.671875 38.8125 12.890625 
z
" id="ArialMT-81"/>
       <path d="M 7.71875 0 
L 7.71875 71.578125 
L 34.71875 71.578125 
Q 41.84375 71.578125 45.609375 70.90625 
Q 50.875 70.015625 54.4375 67.546875 
Q 58.015625 65.09375 60.1875 60.640625 
Q 62.359375 56.203125 62.359375 50.875 
Q 62.359375 41.75 56.546875 35.421875 
Q 50.734375 29.109375 35.546875 29.109375 
L 17.1875 29.109375 
L 17.1875 0 
z
M 17.1875 37.546875 
L 35.6875 37.546875 
Q 44.875 37.546875 48.734375 40.96875 
Q 52.59375 44.390625 52.59375 50.59375 
Q 52.59375 55.078125 50.3125 58.265625 
Q 48.046875 61.46875 44.34375 62.5 
Q 41.9375 63.140625 35.5 63.140625 
L 17.1875 63.140625 
z
" id="ArialMT-80"/>
       <path d="M 4.5 23 
L 13.421875 23.78125 
Q 14.0625 18.40625 16.375 14.96875 
Q 18.703125 11.53125 23.578125 9.40625 
Q 28.46875 7.28125 34.578125 7.28125 
Q 39.984375 7.28125 44.140625 8.890625 
Q 48.296875 10.5 50.3125 13.296875 
Q 52.34375 16.109375 52.34375 19.4375 
Q 52.34375 22.796875 50.390625 25.3125 
Q 48.4375 27.828125 43.953125 29.546875 
Q 41.0625 30.671875 31.203125 33.03125 
Q 21.34375 35.40625 17.390625 37.5 
Q 12.25 40.1875 9.734375 44.15625 
Q 7.234375 48.140625 7.234375 53.078125 
Q 7.234375 58.5 10.296875 63.203125 
Q 13.375 67.921875 19.28125 70.359375 
Q 25.203125 72.796875 32.421875 72.796875 
Q 40.375 72.796875 46.453125 70.234375 
Q 52.546875 67.671875 55.8125 62.6875 
Q 59.078125 57.71875 59.328125 51.421875 
L 50.25 50.734375 
Q 49.515625 57.515625 45.28125 60.984375 
Q 41.0625 64.453125 32.8125 64.453125 
Q 24.21875 64.453125 20.28125 61.296875 
Q 16.359375 58.15625 16.359375 53.71875 
Q 16.359375 49.859375 19.140625 47.359375 
Q 21.875 44.875 33.421875 42.265625 
Q 44.96875 39.65625 49.265625 37.703125 
Q 55.515625 34.8125 58.484375 30.390625 
Q 61.46875 25.984375 61.46875 20.21875 
Q 61.46875 14.5 58.203125 9.4375 
Q 54.9375 4.390625 48.796875 1.578125 
Q 42.671875 -1.21875 35.015625 -1.21875 
Q 25.296875 -1.21875 18.71875 1.609375 
Q 12.15625 4.4375 8.421875 10.125 
Q 4.6875 15.828125 4.5 23 
z
" id="ArialMT-83"/>
       <path d="M 12.359375 -21.046875 
L 6.0625 -21.046875 
Q 20.65625 2.390625 20.65625 25.875 
Q 20.65625 35.0625 18.5625 44.09375 
Q 16.890625 51.421875 13.921875 58.15625 
Q 12.015625 62.546875 6.0625 72.796875 
L 12.359375 72.796875 
Q 21.53125 60.546875 25.921875 48.1875 
Q 29.6875 37.546875 29.6875 25.921875 
Q 29.6875 12.75 24.625 0.4375 
Q 19.578125 -11.859375 12.359375 -21.046875 
z
" id="ArialMT-41"/>
      </defs>
      <use xlink:href="#ArialMT-116"/>
      <use x="27.783203" xlink:href="#ArialMT-104"/>
      <use x="83.398438" xlink:href="#ArialMT-114"/>
      <use x="116.699219" xlink:href="#ArialMT-111"/>
      <use x="172.314453" xlink:href="#ArialMT-117"/>
      <use x="227.929688" xlink:href="#ArialMT-103"/>
      <use x="283.544922" xlink:href="#ArialMT-104"/>
      <use x="339.160156" xlink:href="#ArialMT-112"/>
      <use x="394.775391" xlink:href="#ArialMT-117"/>
      <use x="450.390625" xlink:href="#ArialMT-116"/>
      <use x="478.173828" xlink:href="#ArialMT-32"/>
      <use x="505.957031" xlink:href="#ArialMT-40"/>
      <use x="539.257812" xlink:href="#ArialMT-81"/>
      <use x="617.041016" xlink:href="#ArialMT-80"/>
      <use x="683.740234" xlink:href="#ArialMT-83"/>
      <use x="750.439453" xlink:href="#ArialMT-41"/>
     </g>
    </g>
   </g>
   <g id="line2d_9">
    <path clip-path="url(#pb73eb9ad5f)" d="M 141.067379 111.129243 
L 266.316535 115.173968 
L 274.334832 115.769661 
L 311.382722 116.447972 
L 320.933311 117.777585 
L 343.183036 118.262413 
L 369.127054 119.594682 
L 390.138351 120.925992 
L 403.11036 123.141077 
L 448.869227 129.428721 
L 454.662552 131.693842 
L 492.088267 137.620168 
L 493.284715 143.505565 
L 513.897195 144.743878 
L 514.254031 150.077568 
L 535.286317 155.911051 
L 545.403645 167.707009 
L 545.550577 174.807211 
L 550.126464 178.307447 
L 550.399338 188.809005 
L 554.00967 206.046244 
" style="fill:none;stroke:#0173b2;stroke-linecap:round;stroke-width:3;"/>
    <defs>
     <path d="M 0 7.5 
C 1.989023 7.5 3.896849 6.709753 5.303301 5.303301 
C 6.709753 3.896849 7.5 1.989023 7.5 0 
C 7.5 -1.989023 6.709753 -3.896849 5.303301 -5.303301 
C 3.896849 -6.709753 1.989023 -7.5 0 -7.5 
C -1.989023 -7.5 -3.896849 -6.709753 -5.303301 -5.303301 
C -6.709753 -3.896849 -7.5 -1.989023 -7.5 0 
C -7.5 1.989023 -6.709753 3.896849 -5.303301 5.303301 
C -3.896849 6.709753 -1.989023 7.5 0 7.5 
z
" id="mbc1807b208" style="stroke:#ffffff;stroke-width:0.75;"/>
    </defs>
    <g clip-path="url(#pb73eb9ad5f)">
     <use style="fill:#0173b2;stroke:#ffffff;stroke-width:0.75;" x="141.067379" xlink:href="#mbc1807b208" y="111.129243"/>
     <use style="fill:#0173b2;stroke:#ffffff;stroke-width:0.75;" x="266.316535" xlink:href="#mbc1807b208" y="115.173968"/>
     <use style="fill:#0173b2;stroke:#ffffff;stroke-width:0.75;" x="274.334832" xlink:href="#mbc1807b208" y="115.769661"/>
     <use style="fill:#0173b2;stroke:#ffffff;stroke-width:0.75;" x="311.382722" xlink:href="#mbc1807b208" y="116.447972"/>
     <use style="fill:#0173b2;stroke:#ffffff;stroke-width:0.75;" x="320.933311" xlink:href="#mbc1807b208" y="117.777585"/>
     <use style="fill:#0173b2;stroke:#ffffff;stroke-width:0.75;" x="343.183036" xlink:href="#mbc1807b208" y="118.262413"/>
     <use style="fill:#0173b2;stroke:#ffffff;stroke-width:0.75;" x="369.127054" xlink:href="#mbc1807b208" y="119.594682"/>
     <use style="fill:#0173b2;stroke:#ffffff;stroke-width:0.75;" x="390.138351" xlink:href="#mbc1807b208" y="120.925992"/>
     <use style="fill:#0173b2;stroke:#ffffff;stroke-width:0.75;" x="403.11036" xlink:href="#mbc1807b208" y="123.141077"/>
     <use style="fill:#0173b2;stroke:#ffffff;stroke-width:0.75;" x="448.869227" xlink:href="#mbc1807b208" y="129.428721"/>
     <use style="fill:#0173b2;stroke:#ffffff;stroke-width:0.75;" x="454.662552" xlink:href="#mbc1807b208" y="131.693842"/>
     <use style="fill:#0173b2;stroke:#ffffff;stroke-width:0.75;" x="492.088267" xlink:href="#mbc1807b208" y="137.620168"/>
     <use style="fill:#0173b2;stroke:#ffffff;stroke-width:0.75;" x="493.284715" xlink:href="#mbc1807b208" y="143.505565"/>
     <use style="fill:#0173b2;stroke:#ffffff;stroke-width:0.75;" x="513.897195" xlink:href="#mbc1807b208" y="144.743878"/>
     <use style="fill:#0173b2;stroke:#ffffff;stroke-width:0.75;" x="514.254031" xlink:href="#mbc1807b208" y="150.077568"/>
     <use style="fill:#0173b2;stroke:#ffffff;stroke-width:0.75;" x="535.286317" xlink:href="#mbc1807b208" y="155.911051"/>
     <use style="fill:#0173b2;stroke:#ffffff;stroke-width:0.75;" x="545.403645" xlink:href="#mbc1807b208" y="167.707009"/>
     <use style="fill:#0173b2;stroke:#ffffff;stroke-width:0.75;" x="545.550577" xlink:href="#mbc1807b208" y="174.807211"/>
     <use style="fill:#0173b2;stroke:#ffffff;stroke-width:0.75;" x="550.126464" xlink:href="#mbc1807b208" y="178.307447"/>
     <use style="fill:#0173b2;stroke:#ffffff;stroke-width:0.75;" x="550.399338" xlink:href="#mbc1807b208" y="188.809005"/>
     <use style="fill:#0173b2;stroke:#ffffff;stroke-width:0.75;" x="554.00967" xlink:href="#mbc1807b208" y="206.046244"/>
    </g>
   </g>
   <g id="line2d_10">
    <path clip-path="url(#pb73eb9ad5f)" d="M 195.852078 153.465301 
L 314.594239 162.071939 
L 353.02749 165.820567 
L 380.965587 169.119778 
L 406.007022 171.754599 
L 424.709385 174.539459 
L 440.431124 177.164881 
L 453.403133 179.510444 
L 463.730364 181.725843 
L 473.09204 183.924833 
L 487.701293 187.901678 
L 488.666847 190.255509 
L 499.036059 191.498902 
L 501.932721 194.143424 
L 507.810007 194.71713 
L 511.420339 197.325218 
L 518.494072 199.83608 
L 520.425181 200.436707 
L 524.4973 202.849914 
L 529.849828 205.237691 
L 532.557577 207.430905 
L 533.355209 207.533013 
L 535.223346 210.853137 
L 537.616241 211.607537 
L 538.89665 211.752677 
L 540.533894 214.596053 
L 542.800847 215.013005 
L 544.060265 218.646223 
L 545.298693 218.784628 
L 546.516131 221.560295 
L 546.893957 223.946843 
L 547.166831 224.434433 
L 549.013977 224.568716 
L 549.790619 227.304607 
L 550.105473 230.044695 
L 551.784698 231.186253 
L 552.183514 234.765614 
L 552.897184 235.219859 
L 553.27501 238.7207 
L 553.883728 240.588171 
L 554.198583 243.508673 
L 554.282544 245.75404 
L 555.038195 247.619978 
L 555.122157 250.59116 
L 555.143147 252.817431 
L 555.478992 253.425573 
L 555.751866 258.417388 
L 555.772856 261.311258 
L 555.919788 262.723473 
L 555.961769 269.891735 
L 556.108701 284.851705 
" style="fill:none;stroke:#029e73;stroke-dasharray:12,4.5;stroke-dashoffset:0;stroke-width:3;"/>
    <defs>
     <path d="M -3.75 7.5 
L 0 3.75 
L 3.75 7.5 
L 7.5 3.75 
L 3.75 0 
L 7.5 -3.75 
L 3.75 -7.5 
L 0 -3.75 
L -3.75 -7.5 
L -7.5 -3.75 
L -3.75 0 
L -7.5 3.75 
z
" id="mf0c9b83588" style="stroke:#ffffff;stroke-linejoin:miter;stroke-width:0.75;"/>
    </defs>
    <g clip-path="url(#pb73eb9ad5f)">
     <use style="fill:#029e73;stroke:#ffffff;stroke-linejoin:miter;stroke-width:0.75;" x="195.852078" xlink:href="#mf0c9b83588" y="153.465301"/>
     <use style="fill:#029e73;stroke:#ffffff;stroke-linejoin:miter;stroke-width:0.75;" x="314.594239" xlink:href="#mf0c9b83588" y="162.071939"/>
     <use style="fill:#029e73;stroke:#ffffff;stroke-linejoin:miter;stroke-width:0.75;" x="353.02749" xlink:href="#mf0c9b83588" y="165.820567"/>
     <use style="fill:#029e73;stroke:#ffffff;stroke-linejoin:miter;stroke-width:0.75;" x="380.965587" xlink:href="#mf0c9b83588" y="169.119778"/>
     <use style="fill:#029e73;stroke:#ffffff;stroke-linejoin:miter;stroke-width:0.75;" x="406.007022" xlink:href="#mf0c9b83588" y="171.754599"/>
     <use style="fill:#029e73;stroke:#ffffff;stroke-linejoin:miter;stroke-width:0.75;" x="424.709385" xlink:href="#mf0c9b83588" y="174.539459"/>
     <use style="fill:#029e73;stroke:#ffffff;stroke-linejoin:miter;stroke-width:0.75;" x="440.431124" xlink:href="#mf0c9b83588" y="177.164881"/>
     <use style="fill:#029e73;stroke:#ffffff;stroke-linejoin:miter;stroke-width:0.75;" x="453.403133" xlink:href="#mf0c9b83588" y="179.510444"/>
     <use style="fill:#029e73;stroke:#ffffff;stroke-linejoin:miter;stroke-width:0.75;" x="463.730364" xlink:href="#mf0c9b83588" y="181.725843"/>
     <use style="fill:#029e73;stroke:#ffffff;stroke-linejoin:miter;stroke-width:0.75;" x="473.09204" xlink:href="#mf0c9b83588" y="183.924833"/>
     <use style="fill:#029e73;stroke:#ffffff;stroke-linejoin:miter;stroke-width:0.75;" x="487.701293" xlink:href="#mf0c9b83588" y="187.901678"/>
     <use style="fill:#029e73;stroke:#ffffff;stroke-linejoin:miter;stroke-width:0.75;" x="488.666847" xlink:href="#mf0c9b83588" y="190.255509"/>
     <use style="fill:#029e73;stroke:#ffffff;stroke-linejoin:miter;stroke-width:0.75;" x="499.036059" xlink:href="#mf0c9b83588" y="191.498902"/>
     <use style="fill:#029e73;stroke:#ffffff;stroke-linejoin:miter;stroke-width:0.75;" x="501.932721" xlink:href="#mf0c9b83588" y="194.143424"/>
     <use style="fill:#029e73;stroke:#ffffff;stroke-linejoin:miter;stroke-width:0.75;" x="507.810007" xlink:href="#mf0c9b83588" y="194.71713"/>
     <use style="fill:#029e73;stroke:#ffffff;stroke-linejoin:miter;stroke-width:0.75;" x="511.420339" xlink:href="#mf0c9b83588" y="197.325218"/>
     <use style="fill:#029e73;stroke:#ffffff;stroke-linejoin:miter;stroke-width:0.75;" x="518.494072" xlink:href="#mf0c9b83588" y="199.83608"/>
     <use style="fill:#029e73;stroke:#ffffff;stroke-linejoin:miter;stroke-width:0.75;" x="520.425181" xlink:href="#mf0c9b83588" y="200.436707"/>
     <use style="fill:#029e73;stroke:#ffffff;stroke-linejoin:miter;stroke-width:0.75;" x="524.4973" xlink:href="#mf0c9b83588" y="202.849914"/>
     <use style="fill:#029e73;stroke:#ffffff;stroke-linejoin:miter;stroke-width:0.75;" x="529.849828" xlink:href="#mf0c9b83588" y="205.237691"/>
     <use style="fill:#029e73;stroke:#ffffff;stroke-linejoin:miter;stroke-width:0.75;" x="532.557577" xlink:href="#mf0c9b83588" y="207.430905"/>
     <use style="fill:#029e73;stroke:#ffffff;stroke-linejoin:miter;stroke-width:0.75;" x="533.355209" xlink:href="#mf0c9b83588" y="207.533013"/>
     <use style="fill:#029e73;stroke:#ffffff;stroke-linejoin:miter;stroke-width:0.75;" x="535.223346" xlink:href="#mf0c9b83588" y="210.853137"/>
     <use style="fill:#029e73;stroke:#ffffff;stroke-linejoin:miter;stroke-width:0.75;" x="537.616241" xlink:href="#mf0c9b83588" y="211.607537"/>
     <use style="fill:#029e73;stroke:#ffffff;stroke-linejoin:miter;stroke-width:0.75;" x="538.89665" xlink:href="#mf0c9b83588" y="211.752677"/>
     <use style="fill:#029e73;stroke:#ffffff;stroke-linejoin:miter;stroke-width:0.75;" x="540.533894" xlink:href="#mf0c9b83588" y="214.596053"/>
     <use style="fill:#029e73;stroke:#ffffff;stroke-linejoin:miter;stroke-width:0.75;" x="542.800847" xlink:href="#mf0c9b83588" y="215.013005"/>
     <use style="fill:#029e73;stroke:#ffffff;stroke-linejoin:miter;stroke-width:0.75;" x="544.060265" xlink:href="#mf0c9b83588" y="218.646223"/>
     <use style="fill:#029e73;stroke:#ffffff;stroke-linejoin:miter;stroke-width:0.75;" x="545.298693" xlink:href="#mf0c9b83588" y="218.784628"/>
     <use style="fill:#029e73;stroke:#ffffff;stroke-linejoin:miter;stroke-width:0.75;" x="546.516131" xlink:href="#mf0c9b83588" y="221.560295"/>
     <use style="fill:#029e73;stroke:#ffffff;stroke-linejoin:miter;stroke-width:0.75;" x="546.893957" xlink:href="#mf0c9b83588" y="223.946843"/>
     <use style="fill:#029e73;stroke:#ffffff;stroke-linejoin:miter;stroke-width:0.75;" x="547.166831" xlink:href="#mf0c9b83588" y="224.434433"/>
     <use style="fill:#029e73;stroke:#ffffff;stroke-linejoin:miter;stroke-width:0.75;" x="549.013977" xlink:href="#mf0c9b83588" y="224.568716"/>
     <use style="fill:#029e73;stroke:#ffffff;stroke-linejoin:miter;stroke-width:0.75;" x="549.790619" xlink:href="#mf0c9b83588" y="227.304607"/>
     <use style="fill:#029e73;stroke:#ffffff;stroke-linejoin:miter;stroke-width:0.75;" x="550.105473" xlink:href="#mf0c9b83588" y="230.044695"/>
     <use style="fill:#029e73;stroke:#ffffff;stroke-linejoin:miter;stroke-width:0.75;" x="551.784698" xlink:href="#mf0c9b83588" y="231.186253"/>
     <use style="fill:#029e73;stroke:#ffffff;stroke-linejoin:miter;stroke-width:0.75;" x="552.183514" xlink:href="#mf0c9b83588" y="234.765614"/>
     <use style="fill:#029e73;stroke:#ffffff;stroke-linejoin:miter;stroke-width:0.75;" x="552.897184" xlink:href="#mf0c9b83588" y="235.219859"/>
     <use style="fill:#029e73;stroke:#ffffff;stroke-linejoin:miter;stroke-width:0.75;" x="553.27501" xlink:href="#mf0c9b83588" y="238.7207"/>
     <use style="fill:#029e73;stroke:#ffffff;stroke-linejoin:miter;stroke-width:0.75;" x="553.883728" xlink:href="#mf0c9b83588" y="240.588171"/>
     <use style="fill:#029e73;stroke:#ffffff;stroke-linejoin:miter;stroke-width:0.75;" x="554.198583" xlink:href="#mf0c9b83588" y="243.508673"/>
     <use style="fill:#029e73;stroke:#ffffff;stroke-linejoin:miter;stroke-width:0.75;" x="554.282544" xlink:href="#mf0c9b83588" y="245.75404"/>
     <use style="fill:#029e73;stroke:#ffffff;stroke-linejoin:miter;stroke-width:0.75;" x="555.038195" xlink:href="#mf0c9b83588" y="247.619978"/>
     <use style="fill:#029e73;stroke:#ffffff;stroke-linejoin:miter;stroke-width:0.75;" x="555.122157" xlink:href="#mf0c9b83588" y="250.59116"/>
     <use style="fill:#029e73;stroke:#ffffff;stroke-linejoin:miter;stroke-width:0.75;" x="555.143147" xlink:href="#mf0c9b83588" y="252.817431"/>
     <use style="fill:#029e73;stroke:#ffffff;stroke-linejoin:miter;stroke-width:0.75;" x="555.478992" xlink:href="#mf0c9b83588" y="253.425573"/>
     <use style="fill:#029e73;stroke:#ffffff;stroke-linejoin:miter;stroke-width:0.75;" x="555.751866" xlink:href="#mf0c9b83588" y="258.417388"/>
     <use style="fill:#029e73;stroke:#ffffff;stroke-linejoin:miter;stroke-width:0.75;" x="555.772856" xlink:href="#mf0c9b83588" y="261.311258"/>
     <use style="fill:#029e73;stroke:#ffffff;stroke-linejoin:miter;stroke-width:0.75;" x="555.919788" xlink:href="#mf0c9b83588" y="262.723473"/>
     <use style="fill:#029e73;stroke:#ffffff;stroke-linejoin:miter;stroke-width:0.75;" x="555.961769" xlink:href="#mf0c9b83588" y="269.891735"/>
     <use style="fill:#029e73;stroke:#ffffff;stroke-linejoin:miter;stroke-width:0.75;" x="556.108701" xlink:href="#mf0c9b83588" y="284.851705"/>
    </g>
   </g>
   <g id="line2d_11">
    <path clip-path="url(#pb73eb9ad5f)" d="M 211.78372 154.218862 
L 240.477468 154.41199 
L 317.050105 157.990264 
L 344.84127 164.361404 
L 377.607138 164.378272 
L 474.204527 178.877721 
L 491.710442 184.38172 
L 500.001613 193.685337 
L 501.974702 198.381996 
L 534.13185 200.602962 
L 543.304614 214.801074 
L 551.113008 218.007742 
L 553.233029 226.745123 
L 554.345515 229.321147 
L 554.912253 234.966227 
L 554.954234 238.906789 
L 555.940778 243.968422 
" style="fill:none;stroke:#cc78bc;stroke-dasharray:3,3;stroke-dashoffset:0;stroke-width:3;"/>
    <defs>
     <path d="M -5.303301 -5.303301 
L -5.303301 5.303301 
L 5.303301 5.303301 
L 5.303301 -5.303301 
z
" id="md3d2971c9b" style="stroke:#ffffff;stroke-linejoin:miter;stroke-width:0.75;"/>
    </defs>
    <g clip-path="url(#pb73eb9ad5f)">
     <use style="fill:#cc78bc;stroke:#ffffff;stroke-linejoin:miter;stroke-width:0.75;" x="211.78372" xlink:href="#md3d2971c9b" y="154.218862"/>
     <use style="fill:#cc78bc;stroke:#ffffff;stroke-linejoin:miter;stroke-width:0.75;" x="240.477468" xlink:href="#md3d2971c9b" y="154.41199"/>
     <use style="fill:#cc78bc;stroke:#ffffff;stroke-linejoin:miter;stroke-width:0.75;" x="317.050105" xlink:href="#md3d2971c9b" y="157.990264"/>
     <use style="fill:#cc78bc;stroke:#ffffff;stroke-linejoin:miter;stroke-width:0.75;" x="344.84127" xlink:href="#md3d2971c9b" y="164.361404"/>
     <use style="fill:#cc78bc;stroke:#ffffff;stroke-linejoin:miter;stroke-width:0.75;" x="377.607138" xlink:href="#md3d2971c9b" y="164.378272"/>
     <use style="fill:#cc78bc;stroke:#ffffff;stroke-linejoin:miter;stroke-width:0.75;" x="474.204527" xlink:href="#md3d2971c9b" y="178.877721"/>
     <use style="fill:#cc78bc;stroke:#ffffff;stroke-linejoin:miter;stroke-width:0.75;" x="491.710442" xlink:href="#md3d2971c9b" y="184.38172"/>
     <use style="fill:#cc78bc;stroke:#ffffff;stroke-linejoin:miter;stroke-width:0.75;" x="500.001613" xlink:href="#md3d2971c9b" y="193.685337"/>
     <use style="fill:#cc78bc;stroke:#ffffff;stroke-linejoin:miter;stroke-width:0.75;" x="501.974702" xlink:href="#md3d2971c9b" y="198.381996"/>
     <use style="fill:#cc78bc;stroke:#ffffff;stroke-linejoin:miter;stroke-width:0.75;" x="534.13185" xlink:href="#md3d2971c9b" y="200.602962"/>
     <use style="fill:#cc78bc;stroke:#ffffff;stroke-linejoin:miter;stroke-width:0.75;" x="543.304614" xlink:href="#md3d2971c9b" y="214.801074"/>
     <use style="fill:#cc78bc;stroke:#ffffff;stroke-linejoin:miter;stroke-width:0.75;" x="551.113008" xlink:href="#md3d2971c9b" y="218.007742"/>
     <use style="fill:#cc78bc;stroke:#ffffff;stroke-linejoin:miter;stroke-width:0.75;" x="553.233029" xlink:href="#md3d2971c9b" y="226.745123"/>
     <use style="fill:#cc78bc;stroke:#ffffff;stroke-linejoin:miter;stroke-width:0.75;" x="554.345515" xlink:href="#md3d2971c9b" y="229.321147"/>
     <use style="fill:#cc78bc;stroke:#ffffff;stroke-linejoin:miter;stroke-width:0.75;" x="554.912253" xlink:href="#md3d2971c9b" y="234.966227"/>
     <use style="fill:#cc78bc;stroke:#ffffff;stroke-linejoin:miter;stroke-width:0.75;" x="554.954234" xlink:href="#md3d2971c9b" y="238.906789"/>
     <use style="fill:#cc78bc;stroke:#ffffff;stroke-linejoin:miter;stroke-width:0.75;" x="555.940778" xlink:href="#md3d2971c9b" y="243.968422"/>
    </g>
   </g>
   <g id="line2d_12"/>
   <g id="line2d_13"/>
   <g id="line2d_14"/>
   <g id="patch_3">
    <path d="M 120.315313 297.20625 
L 120.315313 25.40625 
" style="fill:none;stroke:#cccccc;stroke-linecap:square;stroke-linejoin:miter;stroke-width:1.25;"/>
   </g>
   <g id="patch_4">
    <path d="M 576.860767 297.20625 
L 576.860767 25.40625 
" style="fill:none;stroke:#cccccc;stroke-linecap:square;stroke-linejoin:miter;stroke-width:1.25;"/>
   </g>
   <g id="patch_5">
    <path d="M 120.315312 297.20625 
L 576.860767 297.20625 
" style="fill:none;stroke:#cccccc;stroke-linecap:square;stroke-linejoin:miter;stroke-width:1.25;"/>
   </g>
   <g id="patch_6">
    <path d="M 120.315312 25.40625 
L 576.860767 25.40625 
" style="fill:none;stroke:#cccccc;stroke-linecap:square;stroke-linejoin:miter;stroke-width:1.25;"/>
   </g>
   <g id="text_11">
    <!-- query batch = 10 -->
    <g style="fill:#262626;" transform="translate(156.339027 282.324047)scale(0.27 -0.27)">
     <defs>
      <path d="M 39.65625 -19.875 
L 39.65625 5.515625 
Q 37.59375 2.640625 33.90625 0.734375 
Q 30.21875 -1.171875 26.078125 -1.171875 
Q 16.84375 -1.171875 10.171875 6.203125 
Q 3.515625 13.578125 3.515625 26.421875 
Q 3.515625 34.234375 6.21875 40.421875 
Q 8.9375 46.625 14.078125 49.828125 
Q 19.234375 53.03125 25.390625 53.03125 
Q 35.015625 53.03125 40.53125 44.921875 
L 40.53125 51.859375 
L 48.4375 51.859375 
L 48.4375 -19.875 
z
M 12.546875 26.078125 
Q 12.546875 16.0625 16.75 11.0625 
Q 20.953125 6.0625 26.8125 6.0625 
Q 32.421875 6.0625 36.46875 10.8125 
Q 40.53125 15.578125 40.53125 25.296875 
Q 40.53125 35.640625 36.25 40.859375 
Q 31.984375 46.09375 26.21875 46.09375 
Q 20.515625 46.09375 16.53125 41.234375 
Q 12.546875 36.375 12.546875 26.078125 
z
" id="ArialMT-113"/>
      <path d="M 6.203125 -19.96875 
L 5.21875 -11.71875 
Q 8.109375 -12.5 10.25 -12.5 
Q 13.1875 -12.5 14.9375 -11.515625 
Q 16.703125 -10.546875 17.828125 -8.796875 
Q 18.65625 -7.46875 20.515625 -2.25 
Q 20.75 -1.515625 21.296875 -0.09375 
L 1.609375 51.859375 
L 11.078125 51.859375 
L 21.875 21.828125 
Q 23.96875 16.109375 25.640625 9.8125 
Q 27.15625 15.875 29.25 21.625 
L 40.328125 51.859375 
L 49.125 51.859375 
L 29.390625 -0.875 
Q 26.21875 -9.421875 24.46875 -12.640625 
Q 22.125 -17 19.09375 -19.015625 
Q 16.0625 -21.046875 11.859375 -21.046875 
Q 9.328125 -21.046875 6.203125 -19.96875 
z
" id="ArialMT-121"/>
      <path d="M 14.703125 0 
L 6.546875 0 
L 6.546875 71.578125 
L 15.328125 71.578125 
L 15.328125 46.046875 
Q 20.90625 53.03125 29.546875 53.03125 
Q 34.328125 53.03125 38.59375 51.09375 
Q 42.875 49.171875 45.625 45.671875 
Q 48.390625 42.1875 49.953125 37.25 
Q 51.515625 32.328125 51.515625 26.703125 
Q 51.515625 13.375 44.921875 6.09375 
Q 38.328125 -1.171875 29.109375 -1.171875 
Q 19.921875 -1.171875 14.703125 6.5 
z
M 14.59375 26.3125 
Q 14.59375 17 17.140625 12.84375 
Q 21.296875 6.0625 28.375 6.0625 
Q 34.125 6.0625 38.328125 11.0625 
Q 42.53125 16.0625 42.53125 25.984375 
Q 42.53125 36.140625 38.5 40.96875 
Q 34.46875 45.796875 28.765625 45.796875 
Q 23 45.796875 18.796875 40.796875 
Q 14.59375 35.796875 14.59375 26.3125 
z
" id="ArialMT-98"/>
      <path d="M 52.828125 42.09375 
L 5.5625 42.09375 
L 5.5625 50.296875 
L 52.828125 50.296875 
z
M 52.828125 20.359375 
L 5.5625 20.359375 
L 5.5625 28.5625 
L 52.828125 28.5625 
z
" id="ArialMT-61"/>
     </defs>
     <use xlink:href="#ArialMT-113"/>
     <use x="55.615234" xlink:href="#ArialMT-117"/>
     <use x="111.230469" xlink:href="#ArialMT-101"/>
     <use x="166.845703" xlink:href="#ArialMT-114"/>
     <use x="200.146484" xlink:href="#ArialMT-121"/>
     <use x="250.146484" xlink:href="#ArialMT-32"/>
     <use x="277.929688" xlink:href="#ArialMT-98"/>
     <use x="333.544922" xlink:href="#ArialMT-97"/>
     <use x="389.160156" xlink:href="#ArialMT-116"/>
     <use x="416.943359" xlink:href="#ArialMT-99"/>
     <use x="466.943359" xlink:href="#ArialMT-104"/>
     <use x="522.558594" xlink:href="#ArialMT-32"/>
     <use x="550.341797" xlink:href="#ArialMT-61"/>
     <use x="608.740234" xlink:href="#ArialMT-32"/>
     <use x="636.523438" xlink:href="#ArialMT-49"/>
     <use x="692.138672" xlink:href="#ArialMT-48"/>
    </g>
   </g>
   <g id="text_12">
    <g id="patch_7">
     <path d="M 427.23858 28.8225 
L 580.910767 28.8225 
L 580.910767 -4.05 
L 427.23858 -4.05 
z
" style="fill:#ffffff;stroke:#ffffff;stroke-linejoin:miter;"/>
    </g>
    <!-- deep-96-1M -->
    <g style="fill:#262626;" transform="translate(431.28858 19.40625)scale(0.27 -0.27)">
     <defs>
      <path d="M 40.234375 0 
L 40.234375 6.546875 
Q 35.296875 -1.171875 25.734375 -1.171875 
Q 19.53125 -1.171875 14.328125 2.25 
Q 9.125 5.671875 6.265625 11.796875 
Q 3.421875 17.921875 3.421875 25.875 
Q 3.421875 33.640625 6 39.96875 
Q 8.59375 46.296875 13.765625 49.65625 
Q 18.953125 53.03125 25.34375 53.03125 
Q 30.03125 53.03125 33.6875 51.046875 
Q 37.359375 49.078125 39.65625 45.90625 
L 39.65625 71.578125 
L 48.390625 71.578125 
L 48.390625 0 
z
M 12.453125 25.875 
Q 12.453125 15.921875 16.640625 10.984375 
Q 20.84375 6.0625 26.5625 6.0625 
Q 32.328125 6.0625 36.34375 10.765625 
Q 40.375 15.484375 40.375 25.140625 
Q 40.375 35.796875 36.265625 40.765625 
Q 32.171875 45.75 26.171875 45.75 
Q 20.3125 45.75 16.375 40.96875 
Q 12.453125 36.1875 12.453125 25.875 
z
" id="ArialMT-100"/>
      <path d="M 3.171875 21.484375 
L 3.171875 30.328125 
L 30.171875 30.328125 
L 30.171875 21.484375 
z
" id="ArialMT-45"/>
      <path d="M 49.75 54.046875 
L 41.015625 53.375 
Q 39.84375 58.546875 37.703125 60.890625 
Q 34.125 64.65625 28.90625 64.65625 
Q 24.703125 64.65625 21.53125 62.3125 
Q 17.390625 59.28125 14.984375 53.46875 
Q 12.59375 47.65625 12.5 36.921875 
Q 15.671875 41.75 20.265625 44.09375 
Q 24.859375 46.4375 29.890625 46.4375 
Q 38.671875 46.4375 44.84375 39.96875 
Q 51.03125 33.5 51.03125 23.25 
Q 51.03125 16.5 48.125 10.71875 
Q 45.21875 4.9375 40.140625 1.859375 
Q 35.0625 -1.21875 28.609375 -1.21875 
Q 17.625 -1.21875 10.6875 6.859375 
Q 3.765625 14.9375 3.765625 33.5 
Q 3.765625 54.25 11.421875 63.671875 
Q 18.109375 71.875 29.4375 71.875 
Q 37.890625 71.875 43.28125 67.140625 
Q 48.6875 62.40625 49.75 54.046875 
z
M 13.875 23.1875 
Q 13.875 18.65625 15.796875 14.5 
Q 17.71875 10.359375 21.1875 8.171875 
Q 24.65625 6 28.46875 6 
Q 34.03125 6 38.03125 10.484375 
Q 42.046875 14.984375 42.046875 22.703125 
Q 42.046875 30.125 38.078125 34.390625 
Q 34.125 38.671875 28.125 38.671875 
Q 22.171875 38.671875 18.015625 34.390625 
Q 13.875 30.125 13.875 23.1875 
z
" id="ArialMT-54"/>
      <path d="M 7.421875 0 
L 7.421875 71.578125 
L 21.6875 71.578125 
L 38.625 20.90625 
Q 40.96875 13.8125 42.046875 10.296875 
Q 43.265625 14.203125 45.84375 21.78125 
L 62.984375 71.578125 
L 75.734375 71.578125 
L 75.734375 0 
L 66.609375 0 
L 66.609375 59.90625 
L 45.796875 0 
L 37.25 0 
L 16.546875 60.9375 
L 16.546875 0 
z
" id="ArialMT-77"/>
     </defs>
     <use xlink:href="#ArialMT-100"/>
     <use x="55.615234" xlink:href="#ArialMT-101"/>
     <use x="111.230469" xlink:href="#ArialMT-101"/>
     <use x="166.845703" xlink:href="#ArialMT-112"/>
     <use x="222.460938" xlink:href="#ArialMT-45"/>
     <use x="255.761719" xlink:href="#ArialMT-57"/>
     <use x="311.376953" xlink:href="#ArialMT-54"/>
     <use x="366.992188" xlink:href="#ArialMT-45"/>
     <use x="400.292969" xlink:href="#ArialMT-49"/>
     <use x="455.908203" xlink:href="#ArialMT-77"/>
    </g>
   </g>
   <g id="legend_1">
    <g id="patch_8">
     <path d="M 229.824403 420.10625 
L 900.697528 420.10625 
Q 905.897528 420.10625 905.897528 414.90625 
L 905.897528 380.728438 
Q 905.897528 375.528438 900.697528 375.528438 
L 229.824403 375.528438 
Q 224.624403 375.528438 224.624403 380.728438 
L 224.624403 414.90625 
Q 224.624403 420.10625 229.824403 420.10625 
z
" style="fill:#ffffff;opacity:0.8;"/>
    </g>
    <g id="line2d_15">
     <path d="M 235.024403 395.43875 
L 287.024403 395.43875 
" style="fill:none;stroke:#0173b2;stroke-linecap:round;stroke-width:1.5;"/>
    </g>
    <g id="line2d_16">
     <defs>
      <path d="M 0 3 
C 0.795609 3 1.55874 2.683901 2.12132 2.12132 
C 2.683901 1.55874 3 0.795609 3 0 
C 3 -0.795609 2.683901 -1.55874 2.12132 -2.12132 
C 1.55874 -2.683901 0.795609 -3 0 -3 
C -0.795609 -3 -1.55874 -2.683901 -2.12132 -2.12132 
C -2.683901 -1.55874 -3 -0.795609 -3 0 
C -3 0.795609 -2.683901 1.55874 -2.12132 2.12132 
C -1.55874 2.683901 -0.795609 3 0 3 
z
" id="m0b97e33a08" style="stroke:#0173b2;"/>
     </defs>
     <g>
      <use style="fill:#0173b2;stroke:#0173b2;" x="261.024403" xlink:href="#m0b97e33a08" y="395.43875"/>
     </g>
    </g>
    <g id="text_13">
     <!-- SVS -->
     <g style="fill:#262626;" transform="translate(307.824403 404.53875)scale(0.26 -0.26)">
      <defs>
       <path d="M 28.171875 0 
L 0.4375 71.578125 
L 10.6875 71.578125 
L 29.296875 19.578125 
Q 31.546875 13.328125 33.0625 7.859375 
Q 34.71875 13.71875 36.921875 19.578125 
L 56.25 71.578125 
L 65.921875 71.578125 
L 37.890625 0 
z
" id="ArialMT-86"/>
      </defs>
      <use xlink:href="#ArialMT-83"/>
      <use x="66.699219" xlink:href="#ArialMT-86"/>
      <use x="133.398438" xlink:href="#ArialMT-83"/>
     </g>
    </g>
    <g id="line2d_17">
     <path d="M 411.852841 395.43875 
L 463.852841 395.43875 
" style="fill:none;stroke:#029e73;stroke-dasharray:6,2.25;stroke-dashoffset:0;stroke-width:1.5;"/>
    </g>
    <g id="line2d_18">
     <defs>
      <path d="M -1.5 3 
L 0 1.5 
L 1.5 3 
L 3 1.5 
L 1.5 0 
L 3 -1.5 
L 1.5 -3 
L 0 -1.5 
L -1.5 -3 
L -3 -1.5 
L -1.5 0 
L -3 1.5 
z
" id="m453150e404" style="stroke:#029e73;stroke-linejoin:miter;"/>
     </defs>
     <g>
      <use style="fill:#029e73;stroke:#029e73;stroke-linejoin:miter;" x="437.852841" xlink:href="#m453150e404" y="395.43875"/>
     </g>
    </g>
    <g id="text_14">
     <!-- HNSWlib -->
     <g style="fill:#262626;" transform="translate(484.652841 404.53875)scale(0.26 -0.26)">
      <defs>
       <path d="M 8.015625 0 
L 8.015625 71.578125 
L 17.484375 71.578125 
L 17.484375 42.1875 
L 54.6875 42.1875 
L 54.6875 71.578125 
L 64.15625 71.578125 
L 64.15625 0 
L 54.6875 0 
L 54.6875 33.734375 
L 17.484375 33.734375 
L 17.484375 0 
z
" id="ArialMT-72"/>
       <path d="M 7.625 0 
L 7.625 71.578125 
L 17.328125 71.578125 
L 54.9375 15.375 
L 54.9375 71.578125 
L 64.015625 71.578125 
L 64.015625 0 
L 54.296875 0 
L 16.703125 56.25 
L 16.703125 0 
z
" id="ArialMT-78"/>
       <path d="M 20.21875 0 
L 1.21875 71.578125 
L 10.9375 71.578125 
L 21.828125 24.65625 
Q 23.578125 17.28125 24.859375 10.015625 
Q 27.59375 21.484375 28.078125 23.25 
L 41.703125 71.578125 
L 53.125 71.578125 
L 63.375 35.359375 
Q 67.234375 21.875 68.953125 10.015625 
Q 70.3125 16.796875 72.515625 25.59375 
L 83.734375 71.578125 
L 93.265625 71.578125 
L 73.640625 0 
L 64.5 0 
L 49.421875 54.546875 
Q 47.515625 61.375 47.171875 62.9375 
Q 46.046875 58.015625 45.0625 54.546875 
L 29.890625 0 
z
" id="ArialMT-87"/>
       <path d="M 6.640625 61.46875 
L 6.640625 71.578125 
L 15.4375 71.578125 
L 15.4375 61.46875 
z
M 6.640625 0 
L 6.640625 51.859375 
L 15.4375 51.859375 
L 15.4375 0 
z
" id="ArialMT-105"/>
      </defs>
      <use xlink:href="#ArialMT-72"/>
      <use x="72.216797" xlink:href="#ArialMT-78"/>
      <use x="144.433594" xlink:href="#ArialMT-83"/>
      <use x="211.132812" xlink:href="#ArialMT-87"/>
      <use x="305.517578" xlink:href="#ArialMT-108"/>
      <use x="327.734375" xlink:href="#ArialMT-105"/>
      <use x="349.951172" xlink:href="#ArialMT-98"/>
     </g>
    </g>
    <g id="line2d_19">
     <path d="M 642.103153 395.43875 
L 694.103153 395.43875 
" style="fill:none;stroke:#cc78bc;stroke-dasharray:1.5,1.5;stroke-dashoffset:0;stroke-width:1.5;"/>
    </g>
    <g id="line2d_20">
     <defs>
      <path d="M -2.12132 -2.12132 
L -2.12132 2.12132 
L 2.12132 2.12132 
L 2.12132 -2.12132 
z
" id="m82ad8d5e44" style="stroke:#cc78bc;stroke-linejoin:miter;"/>
     </defs>
     <g>
      <use style="fill:#cc78bc;stroke:#cc78bc;stroke-linejoin:miter;" x="668.103153" xlink:href="#m82ad8d5e44" y="395.43875"/>
     </g>
    </g>
    <g id="text_15">
     <!-- FAISS-IVFPQfs -->
     <g style="fill:#262626;" transform="translate(714.903153 404.53875)scale(0.26 -0.26)">
      <defs>
       <path d="M 8.203125 0 
L 8.203125 71.578125 
L 56.5 71.578125 
L 56.5 63.140625 
L 17.671875 63.140625 
L 17.671875 40.96875 
L 51.265625 40.96875 
L 51.265625 32.515625 
L 17.671875 32.515625 
L 17.671875 0 
z
" id="ArialMT-70"/>
       <path d="M -0.140625 0 
L 27.34375 71.578125 
L 37.546875 71.578125 
L 66.84375 0 
L 56.0625 0 
L 47.703125 21.6875 
L 17.78125 21.6875 
L 9.90625 0 
z
M 20.515625 29.390625 
L 44.78125 29.390625 
L 37.3125 49.21875 
Q 33.890625 58.25 32.234375 64.0625 
Q 30.859375 57.171875 28.375 50.390625 
z
" id="ArialMT-65"/>
       <path d="M 9.328125 0 
L 9.328125 71.578125 
L 18.796875 71.578125 
L 18.796875 0 
z
" id="ArialMT-73"/>
       <path d="M 8.6875 0 
L 8.6875 45.015625 
L 0.921875 45.015625 
L 0.921875 51.859375 
L 8.6875 51.859375 
L 8.6875 57.375 
Q 8.6875 62.59375 9.625 65.140625 
Q 10.890625 68.5625 14.078125 70.671875 
Q 17.28125 72.796875 23.046875 72.796875 
Q 26.765625 72.796875 31.25 71.921875 
L 29.9375 64.265625 
Q 27.203125 64.75 24.75 64.75 
Q 20.75 64.75 19.09375 63.03125 
Q 17.4375 61.328125 17.4375 56.640625 
L 17.4375 51.859375 
L 27.546875 51.859375 
L 27.546875 45.015625 
L 17.4375 45.015625 
L 17.4375 0 
z
" id="ArialMT-102"/>
       <path d="M 3.078125 15.484375 
L 11.765625 16.84375 
Q 12.5 11.625 15.84375 8.84375 
Q 19.1875 6.0625 25.203125 6.0625 
Q 31.25 6.0625 34.171875 8.515625 
Q 37.109375 10.984375 37.109375 14.3125 
Q 37.109375 17.28125 34.515625 19 
Q 32.71875 20.171875 25.53125 21.96875 
Q 15.875 24.421875 12.140625 26.203125 
Q 8.40625 27.984375 6.46875 31.125 
Q 4.546875 34.28125 4.546875 38.09375 
Q 4.546875 41.546875 6.125 44.5 
Q 7.71875 47.46875 10.453125 49.421875 
Q 12.5 50.921875 16.03125 51.96875 
Q 19.578125 53.03125 23.640625 53.03125 
Q 29.734375 53.03125 34.34375 51.265625 
Q 38.96875 49.515625 41.15625 46.5 
Q 43.359375 43.5 44.1875 38.484375 
L 35.59375 37.3125 
Q 35.015625 41.3125 32.203125 43.546875 
Q 29.390625 45.796875 24.265625 45.796875 
Q 18.21875 45.796875 15.625 43.796875 
Q 13.03125 41.796875 13.03125 39.109375 
Q 13.03125 37.40625 14.109375 36.03125 
Q 15.1875 34.625 17.484375 33.6875 
Q 18.796875 33.203125 25.25 31.453125 
Q 34.578125 28.953125 38.25 27.359375 
Q 41.9375 25.78125 44.03125 22.75 
Q 46.140625 19.734375 46.140625 15.234375 
Q 46.140625 10.84375 43.578125 6.953125 
Q 41.015625 3.078125 36.171875 0.953125 
Q 31.34375 -1.171875 25.25 -1.171875 
Q 15.140625 -1.171875 9.84375 3.03125 
Q 4.546875 7.234375 3.078125 15.484375 
z
" id="ArialMT-115"/>
      </defs>
      <use xlink:href="#ArialMT-70"/>
      <use x="55.583984" xlink:href="#ArialMT-65"/>
      <use x="122.283203" xlink:href="#ArialMT-73"/>
      <use x="150.066406" xlink:href="#ArialMT-83"/>
      <use x="216.765625" xlink:href="#ArialMT-83"/>
      <use x="283.464844" xlink:href="#ArialMT-45"/>
      <use x="316.765625" xlink:href="#ArialMT-73"/>
      <use x="344.548828" xlink:href="#ArialMT-86"/>
      <use x="411.248047" xlink:href="#ArialMT-70"/>
      <use x="472.332031" xlink:href="#ArialMT-80"/>
      <use x="539.03125" xlink:href="#ArialMT-81"/>
      <use x="616.814453" xlink:href="#ArialMT-102"/>
      <use x="644.597656" xlink:href="#ArialMT-115"/>
     </g>
    </g>
   </g>
  </g>
  <g id="axes_2">
   <g id="patch_9">
    <path d="M 668.169858 297.20625 
L 1124.715312 297.20625 
L 1124.715312 25.40625 
L 668.169858 25.40625 
z
" style="fill:#ffffff;"/>
   </g>
   <g id="matplotlib.axis_3">
    <g id="xtick_6">
     <g id="line2d_21">
      <path clip-path="url(#p86f153b39c)" d="M 684.199105 297.20625 
L 684.199105 25.40625 
" style="fill:none;stroke:#cccccc;stroke-linecap:round;"/>
     </g>
     <g id="text_16">
      <!-- 0.80 -->
      <g style="fill:#262626;" transform="translate(658.899886 325.316563)scale(0.26 -0.26)">
       <use xlink:href="#ArialMT-48"/>
       <use x="55.615234" xlink:href="#ArialMT-46"/>
       <use x="83.398438" xlink:href="#ArialMT-56"/>
       <use x="139.013672" xlink:href="#ArialMT-48"/>
      </g>
     </g>
    </g>
    <g id="xtick_7">
     <g id="line2d_22">
      <path clip-path="url(#p86f153b39c)" d="M 789.150636 297.20625 
L 789.150636 25.40625 
" style="fill:none;stroke:#cccccc;stroke-linecap:round;"/>
     </g>
     <g id="text_17">
      <!-- 0.85 -->
      <g style="fill:#262626;" transform="translate(763.851417 325.316563)scale(0.26 -0.26)">
       <use xlink:href="#ArialMT-48"/>
       <use x="55.615234" xlink:href="#ArialMT-46"/>
       <use x="83.398438" xlink:href="#ArialMT-56"/>
       <use x="139.013672" xlink:href="#ArialMT-53"/>
      </g>
     </g>
    </g>
    <g id="xtick_8">
     <g id="line2d_23">
      <path clip-path="url(#p86f153b39c)" d="M 894.102166 297.20625 
L 894.102166 25.40625 
" style="fill:none;stroke:#cccccc;stroke-linecap:round;"/>
     </g>
     <g id="text_18">
      <!-- 0.90 -->
      <g style="fill:#262626;" transform="translate(868.802947 325.316563)scale(0.26 -0.26)">
       <use xlink:href="#ArialMT-48"/>
       <use x="55.615234" xlink:href="#ArialMT-46"/>
       <use x="83.398438" xlink:href="#ArialMT-57"/>
       <use x="139.013672" xlink:href="#ArialMT-48"/>
      </g>
     </g>
    </g>
    <g id="xtick_9">
     <g id="line2d_24">
      <path clip-path="url(#p86f153b39c)" d="M 999.053697 297.20625 
L 999.053697 25.40625 
" style="fill:none;stroke:#cccccc;stroke-linecap:round;"/>
     </g>
     <g id="text_19">
      <!-- 0.95 -->
      <g style="fill:#262626;" transform="translate(973.754478 325.316563)scale(0.26 -0.26)">
       <use xlink:href="#ArialMT-48"/>
       <use x="55.615234" xlink:href="#ArialMT-46"/>
       <use x="83.398438" xlink:href="#ArialMT-57"/>
       <use x="139.013672" xlink:href="#ArialMT-53"/>
      </g>
     </g>
    </g>
    <g id="xtick_10">
     <g id="line2d_25">
      <path clip-path="url(#p86f153b39c)" d="M 1104.005227 297.20625 
L 1104.005227 25.40625 
" style="fill:none;stroke:#cccccc;stroke-linecap:round;"/>
     </g>
     <g id="text_20">
      <!-- 1.00 -->
      <g style="fill:#262626;" transform="translate(1078.706008 325.316563)scale(0.26 -0.26)">
       <use xlink:href="#ArialMT-49"/>
       <use x="55.615234" xlink:href="#ArialMT-46"/>
       <use x="83.398438" xlink:href="#ArialMT-48"/>
       <use x="139.013672" xlink:href="#ArialMT-48"/>
      </g>
     </g>
    </g>
    <g id="text_21">
     <!-- 10 recall@10 -->
     <g style="fill:#262626;" transform="translate(819.65321 353.439688)scale(0.26 -0.26)">
      <use xlink:href="#ArialMT-49"/>
      <use x="55.615234" xlink:href="#ArialMT-48"/>
      <use x="111.230469" xlink:href="#ArialMT-32"/>
      <use x="139.013672" xlink:href="#ArialMT-114"/>
      <use x="172.314453" xlink:href="#ArialMT-101"/>
      <use x="227.929688" xlink:href="#ArialMT-99"/>
      <use x="277.929688" xlink:href="#ArialMT-97"/>
      <use x="333.544922" xlink:href="#ArialMT-108"/>
      <use x="355.761719" xlink:href="#ArialMT-108"/>
      <use x="377.978516" xlink:href="#ArialMT-64"/>
      <use x="479.492188" xlink:href="#ArialMT-49"/>
      <use x="535.107422" xlink:href="#ArialMT-48"/>
     </g>
    </g>
   </g>
   <g id="matplotlib.axis_4">
    <g id="ytick_29">
     <g id="line2d_26">
      <path clip-path="url(#p86f153b39c)" d="M 668.169858 255.240729 
L 1124.715312 255.240729 
" style="fill:none;stroke:#cccccc;stroke-linecap:round;"/>
     </g>
    </g>
    <g id="ytick_30">
     <g id="line2d_27">
      <path clip-path="url(#p86f153b39c)" d="M 668.169858 168.975122 
L 1124.715312 168.975122 
" style="fill:none;stroke:#cccccc;stroke-linecap:round;"/>
     </g>
    </g>
    <g id="ytick_31">
     <g id="line2d_28">
      <path clip-path="url(#p86f153b39c)" d="M 668.169858 82.709515 
L 1124.715312 82.709515 
" style="fill:none;stroke:#cccccc;stroke-linecap:round;"/>
     </g>
    </g>
    <g id="ytick_32"/>
    <g id="ytick_33"/>
    <g id="ytick_34"/>
    <g id="ytick_35"/>
    <g id="ytick_36"/>
    <g id="ytick_37"/>
    <g id="ytick_38"/>
    <g id="ytick_39"/>
    <g id="ytick_40"/>
    <g id="ytick_41"/>
    <g id="ytick_42"/>
    <g id="ytick_43"/>
    <g id="ytick_44"/>
    <g id="ytick_45"/>
    <g id="ytick_46"/>
    <g id="ytick_47"/>
    <g id="ytick_48"/>
    <g id="ytick_49"/>
    <g id="ytick_50"/>
    <g id="ytick_51"/>
    <g id="ytick_52"/>
    <g id="ytick_53"/>
    <g id="ytick_54"/>
    <g id="ytick_55"/>
    <g id="ytick_56"/>
   </g>
   <g id="line2d_29">
    <path clip-path="url(#p86f153b39c)" d="M 688.921924 37.760795 
L 822.189377 43.814512 
L 868.787857 46.312432 
L 928.778152 51.249009 
L 950.964905 56.111316 
L 996.723773 63.368847 
L 1002.517097 67.170223 
L 1039.942813 73.784289 
L 1040.593512 78.017722 
L 1061.751741 81.298745 
L 1062.108576 85.04591 
L 1083.140863 93.117115 
L 1093.25819 105.47196 
L 1093.405122 110.584826 
L 1097.981009 116.166711 
L 1098.253883 123.058412 
L 1101.864216 145.137481 
" style="fill:none;stroke:#0173b2;stroke-linecap:round;stroke-width:3;"/>
    <g clip-path="url(#p86f153b39c)">
     <use style="fill:#0173b2;stroke:#ffffff;stroke-width:0.75;" x="688.921924" xlink:href="#mbc1807b208" y="37.760795"/>
     <use style="fill:#0173b2;stroke:#ffffff;stroke-width:0.75;" x="822.189377" xlink:href="#mbc1807b208" y="43.814512"/>
     <use style="fill:#0173b2;stroke:#ffffff;stroke-width:0.75;" x="868.787857" xlink:href="#mbc1807b208" y="46.312432"/>
     <use style="fill:#0173b2;stroke:#ffffff;stroke-width:0.75;" x="928.778152" xlink:href="#mbc1807b208" y="51.249009"/>
     <use style="fill:#0173b2;stroke:#ffffff;stroke-width:0.75;" x="950.964905" xlink:href="#mbc1807b208" y="56.111316"/>
     <use style="fill:#0173b2;stroke:#ffffff;stroke-width:0.75;" x="996.723773" xlink:href="#mbc1807b208" y="63.368847"/>
     <use style="fill:#0173b2;stroke:#ffffff;stroke-width:0.75;" x="1002.517097" xlink:href="#mbc1807b208" y="67.170223"/>
     <use style="fill:#0173b2;stroke:#ffffff;stroke-width:0.75;" x="1039.942813" xlink:href="#mbc1807b208" y="73.784289"/>
     <use style="fill:#0173b2;stroke:#ffffff;stroke-width:0.75;" x="1040.593512" xlink:href="#mbc1807b208" y="78.017722"/>
     <use style="fill:#0173b2;stroke:#ffffff;stroke-width:0.75;" x="1061.751741" xlink:href="#mbc1807b208" y="81.298745"/>
     <use style="fill:#0173b2;stroke:#ffffff;stroke-width:0.75;" x="1062.108576" xlink:href="#mbc1807b208" y="85.04591"/>
     <use style="fill:#0173b2;stroke:#ffffff;stroke-width:0.75;" x="1083.140863" xlink:href="#mbc1807b208" y="93.117115"/>
     <use style="fill:#0173b2;stroke:#ffffff;stroke-width:0.75;" x="1093.25819" xlink:href="#mbc1807b208" y="105.47196"/>
     <use style="fill:#0173b2;stroke:#ffffff;stroke-width:0.75;" x="1093.405122" xlink:href="#mbc1807b208" y="110.584826"/>
     <use style="fill:#0173b2;stroke:#ffffff;stroke-width:0.75;" x="1097.981009" xlink:href="#mbc1807b208" y="116.166711"/>
     <use style="fill:#0173b2;stroke:#ffffff;stroke-width:0.75;" x="1098.253883" xlink:href="#mbc1807b208" y="123.058412"/>
     <use style="fill:#0173b2;stroke:#ffffff;stroke-width:0.75;" x="1101.864216" xlink:href="#mbc1807b208" y="145.137481"/>
    </g>
   </g>
   <g id="line2d_30">
    <path clip-path="url(#p86f153b39c)" d="M 704.664654 98.104091 
L 743.706623 98.379069 
L 862.448785 102.545607 
L 900.882035 103.126045 
L 928.820132 106.77104 
L 953.861568 109.538508 
L 972.56393 112.608158 
L 988.28567 114.693999 
L 1001.257679 117.198631 
L 1011.584909 120.098207 
L 1020.946586 122.193869 
L 1027.306649 124.035 
L 1035.555839 125.686204 
L 1036.521393 125.955545 
L 1042.293727 127.58989 
L 1046.890604 128.623137 
L 1049.787266 129.225394 
L 1054.594046 131.468946 
L 1055.664552 132.243817 
L 1059.274885 132.540972 
L 1063.221062 134.627787 
L 1066.348618 135.190356 
L 1069.518154 137.544804 
L 1072.351845 137.875071 
L 1074.933653 139.573287 
L 1077.704373 140.267932 
L 1079.404588 142.032344 
L 1081.209755 142.402167 
L 1083.077892 144.416702 
L 1083.938494 146.082215 
L 1086.751195 146.289814 
L 1088.388439 148.597939 
L 1089.039139 149.815279 
L 1090.655392 150.063513 
L 1091.914811 152.099255 
L 1093.153239 153.284466 
L 1094.370677 155.455733 
L 1094.748502 156.768809 
L 1096.868523 158.951217 
L 1097.645164 161.009263 
L 1097.960019 162.385612 
L 1099.639243 165.911408 
L 1100.038059 167.945466 
L 1100.247962 169.346608 
L 1100.75173 169.803441 
L 1101.129555 171.851509 
L 1101.192526 173.238164 
L 1101.738274 175.022019 
L 1102.053129 177.01484 
L 1102.13709 178.361648 
L 1102.892741 181.927723 
L 1102.976702 184.002127 
L 1102.997692 185.367792 
L 1103.333537 187.784647 
L 1103.375518 191.146334 
L 1103.606411 192.656948 
L 1103.627401 194.634319 
L 1103.774334 196.883399 
L 1103.816314 203.928748 
L 1103.963246 218.676197 
" style="fill:none;stroke:#029e73;stroke-dasharray:12,4.5;stroke-dashoffset:0;stroke-width:3;"/>
    <g clip-path="url(#p86f153b39c)">
     <use style="fill:#029e73;stroke:#ffffff;stroke-linejoin:miter;stroke-width:0.75;" x="704.664654" xlink:href="#mf0c9b83588" y="98.104091"/>
     <use style="fill:#029e73;stroke:#ffffff;stroke-linejoin:miter;stroke-width:0.75;" x="743.706623" xlink:href="#mf0c9b83588" y="98.379069"/>
     <use style="fill:#029e73;stroke:#ffffff;stroke-linejoin:miter;stroke-width:0.75;" x="862.448785" xlink:href="#mf0c9b83588" y="102.545607"/>
     <use style="fill:#029e73;stroke:#ffffff;stroke-linejoin:miter;stroke-width:0.75;" x="900.882035" xlink:href="#mf0c9b83588" y="103.126045"/>
     <use style="fill:#029e73;stroke:#ffffff;stroke-linejoin:miter;stroke-width:0.75;" x="928.820132" xlink:href="#mf0c9b83588" y="106.77104"/>
     <use style="fill:#029e73;stroke:#ffffff;stroke-linejoin:miter;stroke-width:0.75;" x="953.861568" xlink:href="#mf0c9b83588" y="109.538508"/>
     <use style="fill:#029e73;stroke:#ffffff;stroke-linejoin:miter;stroke-width:0.75;" x="972.56393" xlink:href="#mf0c9b83588" y="112.608158"/>
     <use style="fill:#029e73;stroke:#ffffff;stroke-linejoin:miter;stroke-width:0.75;" x="988.28567" xlink:href="#mf0c9b83588" y="114.693999"/>
     <use style="fill:#029e73;stroke:#ffffff;stroke-linejoin:miter;stroke-width:0.75;" x="1001.257679" xlink:href="#mf0c9b83588" y="117.198631"/>
     <use style="fill:#029e73;stroke:#ffffff;stroke-linejoin:miter;stroke-width:0.75;" x="1011.584909" xlink:href="#mf0c9b83588" y="120.098207"/>
     <use style="fill:#029e73;stroke:#ffffff;stroke-linejoin:miter;stroke-width:0.75;" x="1020.946586" xlink:href="#mf0c9b83588" y="122.193869"/>
     <use style="fill:#029e73;stroke:#ffffff;stroke-linejoin:miter;stroke-width:0.75;" x="1027.306649" xlink:href="#mf0c9b83588" y="124.035"/>
     <use style="fill:#029e73;stroke:#ffffff;stroke-linejoin:miter;stroke-width:0.75;" x="1035.555839" xlink:href="#mf0c9b83588" y="125.686204"/>
     <use style="fill:#029e73;stroke:#ffffff;stroke-linejoin:miter;stroke-width:0.75;" x="1036.521393" xlink:href="#mf0c9b83588" y="125.955545"/>
     <use style="fill:#029e73;stroke:#ffffff;stroke-linejoin:miter;stroke-width:0.75;" x="1042.293727" xlink:href="#mf0c9b83588" y="127.58989"/>
     <use style="fill:#029e73;stroke:#ffffff;stroke-linejoin:miter;stroke-width:0.75;" x="1046.890604" xlink:href="#mf0c9b83588" y="128.623137"/>
     <use style="fill:#029e73;stroke:#ffffff;stroke-linejoin:miter;stroke-width:0.75;" x="1049.787266" xlink:href="#mf0c9b83588" y="129.225394"/>
     <use style="fill:#029e73;stroke:#ffffff;stroke-linejoin:miter;stroke-width:0.75;" x="1054.594046" xlink:href="#mf0c9b83588" y="131.468946"/>
     <use style="fill:#029e73;stroke:#ffffff;stroke-linejoin:miter;stroke-width:0.75;" x="1055.664552" xlink:href="#mf0c9b83588" y="132.243817"/>
     <use style="fill:#029e73;stroke:#ffffff;stroke-linejoin:miter;stroke-width:0.75;" x="1059.274885" xlink:href="#mf0c9b83588" y="132.540972"/>
     <use style="fill:#029e73;stroke:#ffffff;stroke-linejoin:miter;stroke-width:0.75;" x="1063.221062" xlink:href="#mf0c9b83588" y="134.627787"/>
     <use style="fill:#029e73;stroke:#ffffff;stroke-linejoin:miter;stroke-width:0.75;" x="1066.348618" xlink:href="#mf0c9b83588" y="135.190356"/>
     <use style="fill:#029e73;stroke:#ffffff;stroke-linejoin:miter;stroke-width:0.75;" x="1069.518154" xlink:href="#mf0c9b83588" y="137.544804"/>
     <use style="fill:#029e73;stroke:#ffffff;stroke-linejoin:miter;stroke-width:0.75;" x="1072.351845" xlink:href="#mf0c9b83588" y="137.875071"/>
     <use style="fill:#029e73;stroke:#ffffff;stroke-linejoin:miter;stroke-width:0.75;" x="1074.933653" xlink:href="#mf0c9b83588" y="139.573287"/>
     <use style="fill:#029e73;stroke:#ffffff;stroke-linejoin:miter;stroke-width:0.75;" x="1077.704373" xlink:href="#mf0c9b83588" y="140.267932"/>
     <use style="fill:#029e73;stroke:#ffffff;stroke-linejoin:miter;stroke-width:0.75;" x="1079.404588" xlink:href="#mf0c9b83588" y="142.032344"/>
     <use style="fill:#029e73;stroke:#ffffff;stroke-linejoin:miter;stroke-width:0.75;" x="1081.209755" xlink:href="#mf0c9b83588" y="142.402167"/>
     <use style="fill:#029e73;stroke:#ffffff;stroke-linejoin:miter;stroke-width:0.75;" x="1083.077892" xlink:href="#mf0c9b83588" y="144.416702"/>
     <use style="fill:#029e73;stroke:#ffffff;stroke-linejoin:miter;stroke-width:0.75;" x="1083.938494" xlink:href="#mf0c9b83588" y="146.082215"/>
     <use style="fill:#029e73;stroke:#ffffff;stroke-linejoin:miter;stroke-width:0.75;" x="1086.751195" xlink:href="#mf0c9b83588" y="146.289814"/>
     <use style="fill:#029e73;stroke:#ffffff;stroke-linejoin:miter;stroke-width:0.75;" x="1088.388439" xlink:href="#mf0c9b83588" y="148.597939"/>
     <use style="fill:#029e73;stroke:#ffffff;stroke-linejoin:miter;stroke-width:0.75;" x="1089.039139" xlink:href="#mf0c9b83588" y="149.815279"/>
     <use style="fill:#029e73;stroke:#ffffff;stroke-linejoin:miter;stroke-width:0.75;" x="1090.655392" xlink:href="#mf0c9b83588" y="150.063513"/>
     <use style="fill:#029e73;stroke:#ffffff;stroke-linejoin:miter;stroke-width:0.75;" x="1091.914811" xlink:href="#mf0c9b83588" y="152.099255"/>
     <use style="fill:#029e73;stroke:#ffffff;stroke-linejoin:miter;stroke-width:0.75;" x="1093.153239" xlink:href="#mf0c9b83588" y="153.284466"/>
     <use style="fill:#029e73;stroke:#ffffff;stroke-linejoin:miter;stroke-width:0.75;" x="1094.370677" xlink:href="#mf0c9b83588" y="155.455733"/>
     <use style="fill:#029e73;stroke:#ffffff;stroke-linejoin:miter;stroke-width:0.75;" x="1094.748502" xlink:href="#mf0c9b83588" y="156.768809"/>
     <use style="fill:#029e73;stroke:#ffffff;stroke-linejoin:miter;stroke-width:0.75;" x="1096.868523" xlink:href="#mf0c9b83588" y="158.951217"/>
     <use style="fill:#029e73;stroke:#ffffff;stroke-linejoin:miter;stroke-width:0.75;" x="1097.645164" xlink:href="#mf0c9b83588" y="161.009263"/>
     <use style="fill:#029e73;stroke:#ffffff;stroke-linejoin:miter;stroke-width:0.75;" x="1097.960019" xlink:href="#mf0c9b83588" y="162.385612"/>
     <use style="fill:#029e73;stroke:#ffffff;stroke-linejoin:miter;stroke-width:0.75;" x="1099.639243" xlink:href="#mf0c9b83588" y="165.911408"/>
     <use style="fill:#029e73;stroke:#ffffff;stroke-linejoin:miter;stroke-width:0.75;" x="1100.038059" xlink:href="#mf0c9b83588" y="167.945466"/>
     <use style="fill:#029e73;stroke:#ffffff;stroke-linejoin:miter;stroke-width:0.75;" x="1100.247962" xlink:href="#mf0c9b83588" y="169.346608"/>
     <use style="fill:#029e73;stroke:#ffffff;stroke-linejoin:miter;stroke-width:0.75;" x="1100.75173" xlink:href="#mf0c9b83588" y="169.803441"/>
     <use style="fill:#029e73;stroke:#ffffff;stroke-linejoin:miter;stroke-width:0.75;" x="1101.129555" xlink:href="#mf0c9b83588" y="171.851509"/>
     <use style="fill:#029e73;stroke:#ffffff;stroke-linejoin:miter;stroke-width:0.75;" x="1101.192526" xlink:href="#mf0c9b83588" y="173.238164"/>
     <use style="fill:#029e73;stroke:#ffffff;stroke-linejoin:miter;stroke-width:0.75;" x="1101.738274" xlink:href="#mf0c9b83588" y="175.022019"/>
     <use style="fill:#029e73;stroke:#ffffff;stroke-linejoin:miter;stroke-width:0.75;" x="1102.053129" xlink:href="#mf0c9b83588" y="177.01484"/>
     <use style="fill:#029e73;stroke:#ffffff;stroke-linejoin:miter;stroke-width:0.75;" x="1102.13709" xlink:href="#mf0c9b83588" y="178.361648"/>
     <use style="fill:#029e73;stroke:#ffffff;stroke-linejoin:miter;stroke-width:0.75;" x="1102.892741" xlink:href="#mf0c9b83588" y="181.927723"/>
     <use style="fill:#029e73;stroke:#ffffff;stroke-linejoin:miter;stroke-width:0.75;" x="1102.976702" xlink:href="#mf0c9b83588" y="184.002127"/>
     <use style="fill:#029e73;stroke:#ffffff;stroke-linejoin:miter;stroke-width:0.75;" x="1102.997692" xlink:href="#mf0c9b83588" y="185.367792"/>
     <use style="fill:#029e73;stroke:#ffffff;stroke-linejoin:miter;stroke-width:0.75;" x="1103.333537" xlink:href="#mf0c9b83588" y="187.784647"/>
     <use style="fill:#029e73;stroke:#ffffff;stroke-linejoin:miter;stroke-width:0.75;" x="1103.375518" xlink:href="#mf0c9b83588" y="191.146334"/>
     <use style="fill:#029e73;stroke:#ffffff;stroke-linejoin:miter;stroke-width:0.75;" x="1103.606411" xlink:href="#mf0c9b83588" y="192.656948"/>
     <use style="fill:#029e73;stroke:#ffffff;stroke-linejoin:miter;stroke-width:0.75;" x="1103.627401" xlink:href="#mf0c9b83588" y="194.634319"/>
     <use style="fill:#029e73;stroke:#ffffff;stroke-linejoin:miter;stroke-width:0.75;" x="1103.774334" xlink:href="#mf0c9b83588" y="196.883399"/>
     <use style="fill:#029e73;stroke:#ffffff;stroke-linejoin:miter;stroke-width:0.75;" x="1103.816314" xlink:href="#mf0c9b83588" y="203.928748"/>
     <use style="fill:#029e73;stroke:#ffffff;stroke-linejoin:miter;stroke-width:0.75;" x="1103.963246" xlink:href="#mf0c9b83588" y="218.676197"/>
    </g>
   </g>
   <g id="line2d_31">
    <path clip-path="url(#p86f153b39c)" d="M 759.638265 84.951799 
L 864.90465 90.576946 
L 925.461683 93.09952 
L 1022.059072 110.224008 
L 1039.564987 114.154202 
L 1047.856158 120.955933 
L 1049.829247 124.621746 
L 1081.986396 127.558604 
L 1098.967554 143.373119 
L 1101.087574 157.297575 
L 1102.200061 162.624897 
L 1102.80878 163.444347 
L 1103.795324 176.645023 
" style="fill:none;stroke:#cc78bc;stroke-dasharray:3,3;stroke-dashoffset:0;stroke-width:3;"/>
    <g clip-path="url(#p86f153b39c)">
     <use style="fill:#cc78bc;stroke:#ffffff;stroke-linejoin:miter;stroke-width:0.75;" x="759.638265" xlink:href="#md3d2971c9b" y="84.951799"/>
     <use style="fill:#cc78bc;stroke:#ffffff;stroke-linejoin:miter;stroke-width:0.75;" x="864.90465" xlink:href="#md3d2971c9b" y="90.576946"/>
     <use style="fill:#cc78bc;stroke:#ffffff;stroke-linejoin:miter;stroke-width:0.75;" x="925.461683" xlink:href="#md3d2971c9b" y="93.09952"/>
     <use style="fill:#cc78bc;stroke:#ffffff;stroke-linejoin:miter;stroke-width:0.75;" x="1022.059072" xlink:href="#md3d2971c9b" y="110.224008"/>
     <use style="fill:#cc78bc;stroke:#ffffff;stroke-linejoin:miter;stroke-width:0.75;" x="1039.564987" xlink:href="#md3d2971c9b" y="114.154202"/>
     <use style="fill:#cc78bc;stroke:#ffffff;stroke-linejoin:miter;stroke-width:0.75;" x="1047.856158" xlink:href="#md3d2971c9b" y="120.955933"/>
     <use style="fill:#cc78bc;stroke:#ffffff;stroke-linejoin:miter;stroke-width:0.75;" x="1049.829247" xlink:href="#md3d2971c9b" y="124.621746"/>
     <use style="fill:#cc78bc;stroke:#ffffff;stroke-linejoin:miter;stroke-width:0.75;" x="1081.986396" xlink:href="#md3d2971c9b" y="127.558604"/>
     <use style="fill:#cc78bc;stroke:#ffffff;stroke-linejoin:miter;stroke-width:0.75;" x="1098.967554" xlink:href="#md3d2971c9b" y="143.373119"/>
     <use style="fill:#cc78bc;stroke:#ffffff;stroke-linejoin:miter;stroke-width:0.75;" x="1101.087574" xlink:href="#md3d2971c9b" y="157.297575"/>
     <use style="fill:#cc78bc;stroke:#ffffff;stroke-linejoin:miter;stroke-width:0.75;" x="1102.200061" xlink:href="#md3d2971c9b" y="162.624897"/>
     <use style="fill:#cc78bc;stroke:#ffffff;stroke-linejoin:miter;stroke-width:0.75;" x="1102.80878" xlink:href="#md3d2971c9b" y="163.444347"/>
     <use style="fill:#cc78bc;stroke:#ffffff;stroke-linejoin:miter;stroke-width:0.75;" x="1103.795324" xlink:href="#md3d2971c9b" y="176.645023"/>
    </g>
   </g>
   <g id="line2d_32"/>
   <g id="line2d_33"/>
   <g id="line2d_34"/>
   <g id="patch_10">
    <path d="M 668.169858 297.20625 
L 668.169858 25.40625 
" style="fill:none;stroke:#cccccc;stroke-linecap:square;stroke-linejoin:miter;stroke-width:1.25;"/>
   </g>
   <g id="patch_11">
    <path d="M 1124.715312 297.20625 
L 1124.715312 25.40625 
" style="fill:none;stroke:#cccccc;stroke-linecap:square;stroke-linejoin:miter;stroke-width:1.25;"/>
   </g>
   <g id="patch_12">
    <path d="M 668.169858 297.20625 
L 1124.715312 297.20625 
" style="fill:none;stroke:#cccccc;stroke-linecap:square;stroke-linejoin:miter;stroke-width:1.25;"/>
   </g>
   <g id="patch_13">
    <path d="M 668.169858 25.40625 
L 1124.715312 25.40625 
" style="fill:none;stroke:#cccccc;stroke-linecap:square;stroke-linejoin:miter;stroke-width:1.25;"/>
   </g>
   <g id="text_22">
    <!-- query batch = 10000 -->
    <g style="fill:#262626;" transform="translate(681.671776 282.324047)scale(0.27 -0.27)">
     <use xlink:href="#ArialMT-113"/>
     <use x="55.615234" xlink:href="#ArialMT-117"/>
     <use x="111.230469" xlink:href="#ArialMT-101"/>
     <use x="166.845703" xlink:href="#ArialMT-114"/>
     <use x="200.146484" xlink:href="#ArialMT-121"/>
     <use x="250.146484" xlink:href="#ArialMT-32"/>
     <use x="277.929688" xlink:href="#ArialMT-98"/>
     <use x="333.544922" xlink:href="#ArialMT-97"/>
     <use x="389.160156" xlink:href="#ArialMT-116"/>
     <use x="416.943359" xlink:href="#ArialMT-99"/>
     <use x="466.943359" xlink:href="#ArialMT-104"/>
     <use x="522.558594" xlink:href="#ArialMT-32"/>
     <use x="550.341797" xlink:href="#ArialMT-61"/>
     <use x="608.740234" xlink:href="#ArialMT-32"/>
     <use x="636.523438" xlink:href="#ArialMT-49"/>
     <use x="692.138672" xlink:href="#ArialMT-48"/>
     <use x="747.753906" xlink:href="#ArialMT-48"/>
     <use x="803.369141" xlink:href="#ArialMT-48"/>
     <use x="858.984375" xlink:href="#ArialMT-48"/>
    </g>
   </g>
   <g id="text_23">
    <g id="patch_14">
     <path d="M 975.093125 28.8225 
L 1128.765312 28.8225 
L 1128.765312 -4.05 
L 975.093125 -4.05 
z
" style="fill:#ffffff;stroke:#ffffff;stroke-linejoin:miter;"/>
    </g>
    <!-- deep-96-1M -->
    <g style="fill:#262626;" transform="translate(979.143125 19.40625)scale(0.27 -0.27)">
     <use xlink:href="#ArialMT-100"/>
     <use x="55.615234" xlink:href="#ArialMT-101"/>
     <use x="111.230469" xlink:href="#ArialMT-101"/>
     <use x="166.845703" xlink:href="#ArialMT-112"/>
     <use x="222.460938" xlink:href="#ArialMT-45"/>
     <use x="255.761719" xlink:href="#ArialMT-57"/>
     <use x="311.376953" xlink:href="#ArialMT-54"/>
     <use x="366.992188" xlink:href="#ArialMT-45"/>
     <use x="400.292969" xlink:href="#ArialMT-49"/>
     <use x="455.908203" xlink:href="#ArialMT-77"/>
    </g>
   </g>
   <g id="legend_2"/>
  </g>
 </g>
 <defs>
  <clipPath id="pb73eb9ad5f">
   <rect height="271.8" width="456.545455" x="120.315313" y="25.40625"/>
  </clipPath>
  <clipPath id="p86f153b39c">
   <rect height="271.8" width="456.545455" x="668.169858" y="25.40625"/>
  </clipPath>
 </defs>
</svg>
